<svg viewBox="-40 80.00000000000023 3279.9999999999995 1999.9999999999995" fill="none" xmlns="http://www.w3.org/2000/svg" xmlns:xlink="http://www.w3.org/1999/xlink" xmlns:blush="http://design.blush" overflow="visible" width="3279.9999999999995px" height="1999.9999999999995px"><g id="Master/Scenes/Work From Home" blush:has-customizable-colors="true" blush:viewBox="0 -7.999999999999773 3199.999999999999 2416.0000000000005" blush:i="0"><g id="Master/Scenes/Working Remotely" blush:has-customizable-colors="true" blush:component="Master/Scenes/Working Remotely" blush:width="3200" blush:height="2400" blush:i="0.0" blush:value="Working Remotely" transform="scale(1 1)" blush:viewBox="-16 104.00000000000023 3215.999999999999 1967.9999999999998"><g id="Master/Scenes/Working Remotely" blush:has-customizable-colors="true" blush:viewBox="-16 104.00000000000023 3215.999999999999 1967.9999999999998" blush:i="0.0.0"><g id="Background" blush:i="0.0.0.0"><g id="Chair" blush:component="Chair" blush:defaultValue="Stool" blush:width="700" blush:height="800" transform="translate(596 1255) scale(1 1)" blush:i="0.0.0.0.0" blush:value="Tall Chair 3" blush:viewBox="150.22831050228308 168 403.5388127853881 631.9999999999999"><g id="Chair/Tall Chair 3" blush:viewBox="150.22831050228308 168 403.5388127853881 631.9999999999999" blush:i="0.0.0.0.0.0"><g id="Group" blush:i="0.0.0.0.0.0.0"><path id="Fill 4" fill-rule="evenodd" clip-rule="evenodd" d="M472.778 418.881C472.347 417.021 470.684 415.63 468.692 415.622H468.658L306.34 415.001L306.326 415C304.123 414.99 302.128 416.502 301.615 418.738L224.07 796.631C223.735 798.096 224.639 799.564 226.105 799.918C227.583 800.274 229.07 799.368 229.428 797.892L310.164 424.683L465.326 424.088L545.57 797.892C545.923 799.357 547.394 800.27 548.867 799.929C550.348 799.587 551.271 798.111 550.929 796.631L472.778 418.881Z" fill="#090E2B" blush:i="0.0.0.0.0.0.0.0"/><path id="Fill 4 Copy" fill-rule="evenodd" clip-rule="evenodd" d="M415.778 418.881C415.347 417.021 413.684 415.63 411.692 415.622H411.658L249.34 415.001L249.326 415C247.123 414.99 245.128 416.502 244.615 418.738L167.07 796.631C166.735 798.096 167.639 799.564 169.105 799.918C170.583 800.274 172.07 799.368 172.428 797.892L253.164 424.683L408.326 424.088L488.57 797.892C488.923 799.357 490.394 800.27 491.867 799.929C493.348 799.587 494.271 798.111 493.929 796.631L415.778 418.881Z" fill="#090E2B" blush:i="0.0.0.0.0.0.0.1"/><path id="Fill 1" fill-rule="evenodd" clip-rule="evenodd" d="M208.192 210.22C216.309 250.419 262.03 375.924 286.698 390.043C311.365 404.16 455.424 401.41 472.322 402.82C489.221 404.231 507.528 414.105 504.711 432.441C501.895 450.778 494.854 445.135 445.566 445.135C396.278 445.135 280.806 445.955 280.806 445.955C280.806 445.955 221.008 449.665 196.395 389.787C173.853 334.946 153.909 233.748 151.092 215.41C148.277 197.073 150.312 174.585 164.264 170.02C174.828 166.565 200.076 170.02 208.192 210.22Z" fill="#008BF2" blush:i="0.0.0.0.0.0.0.2"/></g></g></g><g id="Medium Plants" blush:component="Medium Plants" blush:defaultValue="Plant 2" blush:width="845" blush:height="800" transform="translate(-1 1255) scale(1 1)" blush:i="0.0.0.0.1" blush:value="Plant 5" blush:viewBox="0 38.47780126849898 844.9999999999998 761.0993657505287"><g id="Medium Plants/Plant 5" blush:viewBox="0 38.47780126849898 844.9999999999998 761.0993657505287" blush:i="0.0.0.0.1.0"><g id="Group" blush:i="0.0.0.0.1.0.0"><path id="Fill 5" fill-rule="evenodd" clip-rule="evenodd" d="M416.637 624.048H426.647C426.647 624.048 424.801 565.172 465.321 505.212C505.842 445.252 536.975 444.156 536.975 444.156C536.975 444.156 502.535 445.35 456.396 505.212C426.914 543.462 417.413 609.272 416.637 624.048Z" fill="#090E2B" blush:i="0.0.0.0.1.0.0.0"/><path id="Fill 12" fill-rule="evenodd" clip-rule="evenodd" d="M354.591 599.412L345.247 596.902C345.247 596.902 364.621 487.511 319.265 409.079C273.908 330.647 77.6563 243.399 77.6563 243.399C85.1481 240.984 270.871 316.193 328.379 409.079C361.084 461.903 364.024 568.828 354.591 599.412Z" fill="#090E2B" blush:i="0.0.0.0.1.0.0.1"/><path id="Fill 1" fill-rule="evenodd" clip-rule="evenodd" d="M493.432 468.82C493.432 468.82 440.553 407.128 490.173 367.944C490.173 367.944 526.413 346 555.969 347.781C555.969 347.781 514.091 418.003 527.639 424.987C541.185 431.971 568.66 343.377 568.66 343.377C568.66 343.377 651.138 335.378 677.67 348.136C677.67 348.136 607.163 405.835 622.009 409.272C636.861 412.706 713.017 356.071 713.017 356.071C713.017 356.071 789.781 369.136 785.689 415.965C781.595 462.792 755.147 477.254 743.521 476.006C731.893 474.763 663.889 448.802 662.409 458.328C660.928 467.853 701.865 498.981 730.528 500.44C730.528 500.44 676.408 560.124 640.441 542.899C604.473 525.674 601.401 498.369 578.98 488.128C556.559 477.885 537.419 477.912 546.678 488.359C555.933 498.801 596.509 508.953 609.333 531.633C622.156 554.313 633.661 569.611 596.447 564.012C559.233 558.412 498.743 531.182 496.086 500.001L493.432 468.82Z" fill="#017C7F" blush:i="0.0.0.0.1.0.0.2"/><path id="Fill 19" fill-rule="evenodd" clip-rule="evenodd" d="M398.994 608.131H407.999C407.999 608.131 391.101 501.316 416.637 409.449C442.174 317.583 480.857 285.545 480.857 285.545C480.857 285.545 436.543 307.19 404.569 425.428C393.612 465.947 391.021 582.283 398.994 608.131Z" fill="#090E2B" blush:i="0.0.0.0.1.0.0.3"/><path id="Fill 7" fill-rule="evenodd" clip-rule="evenodd" d="M308.545 391.238C308.545 391.238 392.665 344.131 353.409 280.2C353.409 280.2 322.005 240.948 288.359 230.853C288.359 230.853 306.301 326.186 288.359 328.43C270.412 330.674 276.021 220.759 276.021 220.759C276.021 220.759 187.417 178.14 152.649 181.502C152.649 181.502 207.604 274.593 189.661 272.352C171.714 270.108 110.027 175.893 110.027 175.893C110.027 175.893 19.1823 159.072 4.59986 212.906C-9.98014 266.743 13.5735 293.661 27.0303 297.024C40.4919 300.389 126.851 299.27 124.607 310.485C122.365 321.698 64.0431 339.645 31.5183 329.551C31.5183 329.551 67.4079 418.154 114.515 413.669C161.62 409.183 176.2 380.021 205.362 377.779C234.522 375.535 255.832 383.388 241.252 391.238C226.672 399.089 177.323 393.809 153.769 413.834C130.216 433.857 111.15 446.193 154.893 455.167C198.633 464.138 277.141 458.532 292.845 424.886L308.545 391.238Z" fill="#009BA0" blush:i="0.0.0.0.1.0.0.4"/><path id="Fill 14" fill-rule="evenodd" clip-rule="evenodd" d="M442.373 326.272C442.373 326.272 331.49 264.176 383.234 179.908C383.234 179.908 424.63 128.161 468.984 114.853C468.984 114.853 445.33 240.522 468.984 243.479C492.638 246.436 485.246 101.548 485.246 101.548C485.246 101.548 578.39 57.0271 651.734 48.3084C651.734 48.3084 572.957 168.096 614.258 168.096C655.56 168.096 704.057 42.4116 704.057 42.4116C704.057 42.4116 837.354 28.0109 843.029 91.2012C848.703 154.392 831.204 197.646 813.461 202.084C795.722 206.519 681.881 205.038 684.838 219.822C687.794 234.608 764.674 258.263 807.547 244.957C807.547 244.957 760.236 361.753 698.141 355.84C636.048 349.926 616.826 311.488 578.39 308.528C539.95 305.574 511.86 315.923 531.079 326.272C550.298 336.62 615.35 329.663 646.397 356.058C677.446 382.451 702.578 398.716 644.921 410.543C587.261 422.37 483.768 414.978 463.07 370.624L442.373 326.272Z" fill="#009BA0" blush:i="0.0.0.0.1.0.0.5"/><path id="Rectangle" fill-rule="evenodd" clip-rule="evenodd" d="M256.801 595.13H587.201L571.513 728.477C566.773 768.766 532.628 799.13 492.061 799.13H346.772C305.015 799.13 270.282 767.014 267.017 725.385L256.801 595.13Z" fill="#FFB201" blush:i="0.0.0.0.1.0.0.6"/></g></g></g><g id="Outdoor Plants" blush:component="Outdoor Plants" blush:defaultValue="Plant 1" blush:width="751" blush:height="965" transform="translate(2449 1090) scale(1 1)" blush:i="0.0.0.0.2" blush:value="Plant 1" blush:viewBox="1.4479434447300719 207.47500000000002 752.9305912596402 762.3499999999999"><g id="Outdoor Plants/Plant 1" blush:viewBox="1.4479434447300719 207.47500000000002 752.9305912596402 762.3499999999999" blush:i="0.0.0.0.2.0"><g id="Group 6" blush:i="0.0.0.0.2.0.0"><path id="Stroke 8" fill-rule="evenodd" clip-rule="evenodd" d="M202.882 965C202.882 965 157.638 823.705 66.701 694.352C-24.2364 565 -10.9708 476.907 66.701 454.215C144.373 431.523 270.591 498.51 309.645 590.032C334.897 649.211 377.803 836.372 271.959 965C241.72 964.166 202.882 965 202.882 965Z" fill="#017C7F" blush:i="0.0.0.0.2.0.0.0"/><path id="Stroke 10" fill-rule="evenodd" clip-rule="evenodd" d="M183.801 474.46C128.131 221.421 224.5 186.701 331.621 217.34C438.741 247.979 510.96 381.305 494.621 508.677C469.682 703.085 323.448 965 323.448 965H239.471C239.471 965 239.471 727.5 183.801 474.46Z" fill="#009BA0" blush:i="0.0.0.0.2.0.0.1"/><path id="Path 6" d="M302.869 300.339C304.325 299.682 306.029 300.284 306.76 301.682L306.857 301.885L307.316 302.94L307.887 304.296C308.109 304.831 308.345 305.407 308.595 306.024L308.978 306.979C310.658 311.187 312.527 316.198 314.537 322.005C320.27 338.561 325.999 358.177 331.343 380.774C343.981 434.214 352.496 495.717 354.997 564.892C357.239 626.891 353.074 686.448 342.405 752.656L342.021 755.024C332.749 811.878 319.614 870.451 295.75 965.276C295.345 966.883 293.715 967.858 292.108 967.454C290.502 967.049 289.527 965.419 289.931 963.812L292.047 955.389C314.539 865.635 327.138 809.003 336.1 754.058C346.991 687.275 351.255 627.432 349.001 565.108C346.515 496.333 338.053 435.219 325.504 382.155L324.811 379.25C319.714 358.075 314.289 339.624 308.868 323.968L308.247 322.189C306.503 317.222 304.878 312.892 303.406 309.204L302.854 307.835C302.678 307.401 302.509 306.991 302.348 306.603L301.799 305.299L301.367 304.307C300.686 302.797 301.359 301.02 302.869 300.339Z" fill="#090E2B" blush:i="0.0.0.0.2.0.0.2"/><path id="Stroke 12" fill-rule="evenodd" clip-rule="evenodd" d="M592.576 490.557C753.421 482.364 763.643 615.887 742.779 670.864C718.163 735.726 644.308 778.96 585.305 804.643C446.496 865.062 411.156 965 411.156 965H289.625C289.625 965 312.813 504.806 592.576 490.557Z" fill="#FFB201" blush:i="0.0.0.0.2.0.0.3"/><path id="Path 3" d="M616.531 592.772C618.066 592.147 619.816 592.885 620.44 594.42C621.065 595.955 620.327 597.705 618.792 598.329C478.366 655.461 390.978 777.584 356.568 965.086C356.269 966.716 354.706 967.794 353.076 967.495C351.447 967.196 350.368 965.633 350.667 964.003C385.424 774.606 474.064 650.733 616.531 592.772Z" fill="#090E2B" blush:i="0.0.0.0.2.0.0.4"/></g></g></g><g id="Outdoor Plants" blush:component="Outdoor Plants" blush:defaultValue="Bush" blush:width="751" blush:height="965" transform="translate(2235 1090) scale(1 1)" blush:i="0.0.0.0.3" blush:value="Trees" blush:viewBox="49.712724935732695 24.125 680.5334190231363 950.5249999999997"><g id="Outdoor Plants/Trees" blush:viewBox="49.712724935732695 24.125 680.5334190231363 950.5249999999997" blush:i="0.0.0.0.3.0"><g id="Group" blush:i="0.0.0.0.3.0.0"><path id="Fill 1" fill-rule="evenodd" clip-rule="evenodd" d="M296.328 734.554C252.725 675.694 316.996 661.47 287.177 606.041C251.046 538.878 302.889 552.365 280.559 484.778C262.89 431.298 232.034 428.995 229.287 352.771C226.543 276.546 89.2583 272.252 118.925 378.777C148.596 485.302 72.2673 459.072 85.6974 536.467C103.649 639.915 31.6143 598.48 54.5598 678.098C74.0793 745.828 -9.15521 859.363 188.705 886C364.798 876.999 339.935 793.418 296.328 734.554Z" fill="#009BA0" blush:i="0.0.0.0.3.0.0.0"/><path id="Stroke 5 (Stroke)" fill-rule="evenodd" clip-rule="evenodd" d="M148.557 612.111C151.011 611.561 153.446 613.104 153.997 615.557L149.554 616.554C153.997 615.557 153.997 615.556 153.996 615.554L153.996 615.552L153.995 615.549C153.995 615.549 153.995 615.55 153.996 615.553L154.006 615.595C154.016 615.639 154.034 615.712 154.06 615.816C154.112 616.023 154.197 616.348 154.319 616.783C154.563 617.654 154.957 618.967 155.539 620.661C156.704 624.05 158.621 628.961 161.602 634.914C167.562 646.817 177.772 662.883 194.72 679.282C196.528 681.031 196.575 683.913 194.826 685.72C193.078 687.528 190.195 687.575 188.388 685.826C170.607 668.621 159.816 651.687 153.459 638.991C150.281 632.644 148.211 627.357 146.927 623.621C146.285 621.753 145.839 620.272 145.55 619.24C145.406 618.725 145.3 618.321 145.229 618.037C145.193 617.895 145.166 617.783 145.146 617.701C145.137 617.661 145.129 617.628 145.123 617.603L145.116 617.571L145.113 617.56L145.112 617.555C145.112 617.553 145.111 617.551 149.554 616.554L145.111 617.551C144.561 615.098 146.104 612.662 148.557 612.111Z" fill="#090E2B" blush:i="0.0.0.0.3.0.0.1"/><path id="Stroke 7 (Stroke)" fill-rule="evenodd" clip-rule="evenodd" d="M115.858 740.329C118.186 739.395 120.829 740.519 121.773 742.84L121.783 742.865C121.797 742.898 121.824 742.961 121.866 743.053C121.949 743.237 122.089 743.538 122.295 743.949C122.707 744.771 123.382 746.031 124.39 747.671C126.406 750.95 129.757 755.753 134.998 761.603C145.476 773.299 163.553 789.231 193.721 805.55C195.933 806.746 196.756 809.509 195.559 811.721C194.363 813.933 191.6 814.756 189.388 813.559C158.363 796.777 139.44 780.209 128.216 767.68C122.606 761.418 118.93 756.177 116.633 752.441C115.485 750.573 114.681 749.083 114.154 748.03C113.89 747.504 113.695 747.088 113.561 746.789C113.494 746.639 113.441 746.519 113.403 746.429C113.384 746.384 113.368 746.347 113.356 746.317L113.34 746.278L113.334 746.263L113.331 746.257C113.33 746.254 113.329 746.251 117.554 744.554L113.329 746.251C112.392 743.917 113.524 741.266 115.858 740.329Z" fill="#090E2B" blush:i="0.0.0.0.3.0.0.2"/><path id="Stroke 9 (Stroke)" fill-rule="evenodd" clip-rule="evenodd" d="M254.261 664.056C256.745 664.446 258.442 666.777 258.052 669.261L253.554 668.554C258.052 669.261 258.051 669.263 258.051 669.265L258.048 669.286L258.041 669.331C258.035 669.366 258.027 669.414 258.016 669.474C257.996 669.594 257.966 669.762 257.926 669.976C257.845 670.405 257.723 671.018 257.55 671.8C257.204 673.365 256.653 675.606 255.823 678.396C254.162 683.974 251.38 691.758 246.866 700.717C237.835 718.645 221.866 741.286 194.129 760.309C192.055 761.731 189.221 761.203 187.799 759.129C186.376 757.055 186.905 754.221 188.978 752.799C215.231 734.794 230.263 713.435 238.734 696.62C242.972 688.207 245.566 680.934 247.094 675.798C247.859 673.231 248.356 671.2 248.658 669.833C248.81 669.149 248.912 668.631 248.976 668.295C249.007 668.126 249.029 668.004 249.042 667.929C249.048 667.891 249.053 667.865 249.055 667.851L249.056 667.847C249.056 667.846 249.056 667.845 249.056 667.844C249.056 667.843 249.056 667.842 249.057 667.841C249.057 667.841 249.056 667.842 249.057 667.841C249.45 665.361 251.779 663.666 254.261 664.056Z" fill="#090E2B" blush:i="0.0.0.0.3.0.0.3"/><path id="Fill 11" fill-rule="evenodd" clip-rule="evenodd" d="M658.603 500.48C620.591 406.998 676.937 341.014 599.628 163.94C522.318 -13.1342 417.027 -13.759 401.056 134.785C385.09 283.329 260.937 377.641 318.195 511.721C374.468 643.494 257.89 674.352 295.711 772.062C343.787 896.263 502.913 901 502.913 901C676.2 901 704.358 843.787 717.883 794.077C753.355 663.7 675.009 540.826 658.603 500.48Z" fill="#FFB201" blush:i="0.0.0.0.3.0.0.4"/><path id="Stroke 15 (Stroke)" fill-rule="evenodd" clip-rule="evenodd" d="M590.434 341.087C592.901 341.573 594.507 343.967 594.021 346.434L589.553 345.554C594.021 346.434 594.02 346.436 594.02 346.438L594.019 346.444L594.016 346.46L594.005 346.511C593.997 346.554 593.984 346.614 593.968 346.691C593.936 346.845 593.889 347.066 593.826 347.353C593.699 347.927 593.507 348.763 593.241 349.844C592.709 352.006 591.88 355.151 590.675 359.143C588.267 367.126 584.359 378.503 578.339 392.199C566.299 419.588 545.799 456.273 511.926 493.613C510.236 495.476 507.357 495.616 505.494 493.927C503.632 492.237 503.491 489.357 505.181 487.495C538.286 451.001 558.286 415.186 570.002 388.534C575.859 375.209 579.643 364.18 581.957 356.512C583.113 352.679 583.902 349.686 584.399 347.668C584.647 346.66 584.822 345.895 584.933 345.39C584.989 345.138 585.029 344.95 585.054 344.83C585.066 344.77 585.075 344.727 585.08 344.701L585.086 344.675L585.086 344.674C585.086 344.673 585.086 344.672 585.086 344.672M590.434 341.087C587.967 340.601 585.574 342.206 585.086 344.672Z" fill="#090E2B" blush:i="0.0.0.0.3.0.0.5"/><path id="Stroke 17 (Stroke)" fill-rule="evenodd" clip-rule="evenodd" d="M615.7 638.148C618.134 638.781 619.593 641.267 618.96 643.701L614.553 642.554C618.96 643.701 618.959 643.703 618.959 643.706L618.957 643.712L618.952 643.73L618.938 643.784C618.926 643.829 618.909 643.892 618.887 643.971C618.844 644.129 618.78 644.355 618.695 644.646C618.525 645.229 618.269 646.074 617.915 647.164C617.207 649.344 616.104 652.505 614.507 656.514C611.312 664.53 606.137 675.936 598.171 689.654C582.237 717.095 555.152 753.766 510.471 791.05C508.54 792.662 505.669 792.402 504.057 790.472C502.446 788.541 502.705 785.669 504.636 784.058C548.435 747.511 574.851 711.681 590.296 685.081C598.021 671.778 603.005 660.777 606.048 653.142C607.569 649.325 608.604 646.35 609.254 644.349C609.579 643.349 609.808 642.593 609.953 642.097C610.025 641.849 610.076 641.666 610.108 641.551C610.124 641.493 610.135 641.452 610.141 641.428L610.147 641.408L610.148 641.405L610.148 641.405C610.782 638.973 613.267 637.515 615.7 638.148Z" fill="#090E2B" blush:i="0.0.0.0.3.0.0.6"/><path id="Stroke 19 (Stroke)" fill-rule="evenodd" clip-rule="evenodd" d="M424.065 495.938C424.065 495.939 424.065 495.94 424.066 495.94L424.066 495.942L424.07 495.973C424.075 496.005 424.082 496.056 424.093 496.127C424.114 496.27 424.148 496.491 424.196 496.788C424.293 497.382 424.447 498.279 424.671 499.452C425.121 501.798 425.852 505.248 426.971 509.593C429.209 518.285 432.995 530.543 439.165 544.7C451.508 573.019 473.354 608.846 511.382 638.985C513.353 640.547 513.684 643.411 512.122 645.382C510.56 647.353 507.696 647.684 505.726 646.122C466.252 614.836 443.598 577.663 430.817 548.338C424.425 533.673 420.491 520.948 418.152 511.864C416.982 507.32 416.21 503.683 415.727 501.164C415.486 499.905 415.317 498.924 415.208 498.249C415.153 497.912 415.113 497.651 415.086 497.469C415.072 497.379 415.062 497.308 415.055 497.257L415.046 497.197L415.044 497.178L415.043 497.172C415.042 497.169 415.042 497.167 419.554 496.554L415.042 497.167C414.703 494.675 416.449 492.381 418.94 492.042C421.431 491.703 423.725 493.447 424.065 495.937L424.065 495.938Z" fill="#090E2B" blush:i="0.0.0.0.3.0.0.7"/><path id="Stroke 3 (Stroke)" fill-rule="evenodd" clip-rule="evenodd" d="M188.553 538C191.068 538 193.107 540.039 193.107 542.553V969.553C193.107 972.068 191.068 974.107 188.553 974.107C186.039 974.107 184 972.068 184 969.553V542.553C184 540.039 186.039 538 188.553 538Z" fill="#090E2B" blush:i="0.0.0.0.3.0.0.8"/><path id="Stroke 13 (Stroke)" fill-rule="evenodd" clip-rule="evenodd" d="M505.553 253C508.068 253 510.107 255.039 510.107 257.553V963.553C510.107 966.068 508.068 968.107 505.553 968.107C503.039 968.107 501 966.068 501 963.553V257.553C501 255.039 503.039 253 505.553 253Z" fill="#090E2B" blush:i="0.0.0.0.3.0.0.9"/></g></g></g><g id="Floor" blush:i="0.0.0.0.4"><path id="Path 4 Copy" d="M1430.5 2051C1432.43 2051 1434 2052.57 1434 2054.5C1434 2056.37 1432.54 2057.9 1430.69 2057.99L1430.5 2058H210.5C208.567 2058 207 2056.43 207 2054.5C207 2052.63 208.464 2051.1 210.308 2051.01L210.5 2051H1430.5Z" fill="#090E2B" blush:i="0.0.0.0.4.0"/><path id="Path 4 Copy 2" d="M2965.5 2051C2967.43 2051 2969 2052.57 2969 2054.5C2969 2056.37 2967.54 2057.9 2965.69 2057.99L2965.5 2058H2159.5C2157.57 2058 2156 2056.43 2156 2054.5C2156 2052.63 2157.46 2051.1 2159.31 2051.01L2159.5 2051H2965.5Z" fill="#090E2B" blush:i="0.0.0.0.4.1"/></g><g id="UI Elements" blush:component="UI Elements" blush:defaultValue="UI Card 1" blush:width="1101" blush:height="811" transform="translate(946 117) scale(1 1)" blush:i="0.0.0.0.5" blush:value="Graph 1" blush:viewBox="71.56500000000005 52.89130434782612 957.8700000000002 705.2173913043478"><g id="UI Elements/Graph 1" blush:viewBox="71.56500000000005 52.89130434782612 957.8700000000002 705.2173913043478" blush:i="0.0.0.0.5.0"><g id="Interfae Box 2" blush:i="0.0.0.0.5.0.0"><rect id="Rectangle Copy 5" x="122" y="90" width="903" height="664" rx="64" fill="#090E2B" blush:i="0.0.0.0.5.0.0.0"/><rect id="Rectangle Copy" x="77" y="57" width="903" height="664" rx="64" fill="white" blush:i="0.0.0.0.5.0.0.1"/><path id="Rectangle Copy 2" fill-rule="evenodd" clip-rule="evenodd" d="M141 54H916C953.003 54 983 83.9969 983 121V657C983 694.003 953.003 724 916 724H141C103.997 724 74 694.003 74 657V121C74 83.9969 103.997 54 141 54ZM916 60H141C107.311 60 80 87.3106 80 121V657C80 690.689 107.311 718 141 718H916C949.689 718 977 690.689 977 657V121C977 87.3106 949.689 60 916 60Z" fill="#090E2B" blush:i="0.0.0.0.5.0.0.2"/><path id="Path 9" d="M747.653 250.062C799.008 237.451 846.649 294.932 892.393 419.938C893.531 423.05 891.932 426.496 888.82 427.635C885.708 428.773 882.262 427.174 881.123 424.062C837.367 304.486 793.225 251.227 750.515 261.716C727.031 267.483 707.546 282.317 689.503 306.517L688.258 308.2C675.507 325.58 666.039 342.909 647.75 380.317L641.519 393.08C622.885 431.093 613.19 448.511 599.294 466.958C579.416 493.348 557.312 509.718 530.238 515.729C510.923 520.017 495.179 512.232 481.893 494.305L481.491 493.759C471.833 480.53 464.903 465.491 452.695 434.143L448.913 424.412C437.261 394.542 430.423 379.666 421.33 366.632C409.855 350.183 397.481 342.462 382.327 343.379C326.588 346.748 266.548 409.572 203.338 532.62C201.824 535.568 198.207 536.73 195.26 535.216C192.312 533.701 191.15 530.085 192.664 527.137C257.66 400.612 320.261 335.109 381.603 331.4C401.298 330.21 417.197 339.995 430.762 359.182L431.172 359.767C440.789 373.553 447.79 388.631 459.348 418.146L464.578 431.584C475.839 460.397 482.401 474.547 490.916 486.316L491.183 486.683C501.978 501.47 513.339 507.188 527.637 504.014C551.608 498.692 571.418 484.021 589.709 459.738L590.971 458.049C603.763 440.786 613.266 423.501 631.38 386.501L637.598 373.761C656.204 335.753 665.842 318.271 679.447 299.93L679.883 299.344C699.461 273.085 721.154 256.569 747.653 250.062Z" fill="#FFB201" blush:i="0.0.0.0.5.0.0.3"/><path id="Path 9 Copy" d="M855.461 262.363C856.299 259.157 859.578 257.238 862.784 258.076C865.99 258.915 867.909 262.194 867.07 265.399C829.866 407.628 782.055 474.407 721.873 462.893C695.818 457.908 677.611 458.83 664.083 464.799C653.666 469.395 646.384 476.268 636.161 489.881L634.978 491.468L628.885 499.787C626.262 503.356 624.157 506.139 622 508.857C613.001 520.193 604.125 528.884 593.015 536.394C579.577 545.476 563.492 552.228 543.679 556.626C525.421 560.68 509.764 558.613 495.299 551.083C484.531 545.477 475.982 538.235 462.563 524.523L456.286 518.055C442.762 504.11 434.925 497.125 425.082 491.229C412.568 483.734 399.247 480.295 383.426 481.252C326.304 484.705 265.765 512.91 201.838 566.097C199.29 568.217 195.507 567.87 193.388 565.322C191.268 562.775 191.615 558.992 194.163 556.873C259.906 502.175 322.744 472.898 382.702 469.273C400.993 468.168 416.704 472.224 431.248 480.934L432.227 481.527C442.435 487.781 450.591 495.018 463.643 508.406L469.932 514.893L471.091 516.081C483.692 528.959 491.495 535.574 500.841 540.439C512.803 546.666 525.578 548.353 541.078 544.911C559.453 540.832 574.139 534.668 586.296 526.452C596.284 519.701 604.309 511.842 612.602 501.396L613.687 500.016C615.139 498.156 616.625 496.188 618.339 493.87L625.137 484.594L625.571 484.007C637.436 468.013 646.148 459.596 659.239 453.82C675.277 446.744 695.873 445.701 724.128 451.107C775.368 460.91 819.734 398.943 855.461 262.363Z" fill="#009BA0" blush:i="0.0.0.0.5.0.0.4"/><circle id="Oval" cx="763.5" cy="254.5" r="25.5" fill="#FF0057" blush:i="0.0.0.0.5.0.0.5"/><rect id="Rectangle" x="167" y="600" width="709" height="2" fill="#C7D2F2" blush:i="0.0.0.0.5.0.0.6"/></g></g></g><g id="UI Elements" blush:component="UI Elements" blush:defaultValue="Graph 1" blush:width="1101" blush:height="811" transform="translate(1367 581) scale(1 1)" blush:i="0.0.0.0.6" blush:value="Graph 1" blush:viewBox="71.56500000000005 52.89130434782612 957.8700000000002 705.2173913043478"><g id="UI Elements/Graph 1" blush:viewBox="71.56500000000005 52.89130434782612 957.8700000000002 705.2173913043478" blush:i="0.0.0.0.6.0"><g id="Interfae Box 2" blush:i="0.0.0.0.6.0.0"><rect id="Rectangle Copy 5" x="122" y="90" width="903" height="664" rx="64" fill="#090E2B" blush:i="0.0.0.0.6.0.0.0"/><rect id="Rectangle Copy" x="77" y="57" width="903" height="664" rx="64" fill="white" blush:i="0.0.0.0.6.0.0.1"/><path id="Rectangle Copy 2" fill-rule="evenodd" clip-rule="evenodd" d="M141 54H916C953.003 54 983 83.9969 983 121V657C983 694.003 953.003 724 916 724H141C103.997 724 74 694.003 74 657V121C74 83.9969 103.997 54 141 54ZM916 60H141C107.311 60 80 87.3106 80 121V657C80 690.689 107.311 718 141 718H916C949.689 718 977 690.689 977 657V121C977 87.3106 949.689 60 916 60Z" fill="#090E2B" blush:i="0.0.0.0.6.0.0.2"/><path id="Path 9" d="M747.653 250.062C799.008 237.451 846.649 294.932 892.393 419.938C893.531 423.05 891.932 426.496 888.82 427.635C885.708 428.773 882.262 427.174 881.123 424.062C837.367 304.486 793.225 251.227 750.515 261.716C727.031 267.483 707.546 282.317 689.503 306.517L688.258 308.2C675.507 325.58 666.039 342.909 647.75 380.317L641.519 393.08C622.885 431.093 613.19 448.511 599.294 466.958C579.416 493.348 557.312 509.718 530.238 515.729C510.923 520.017 495.179 512.232 481.893 494.305L481.491 493.759C471.833 480.53 464.903 465.491 452.695 434.143L448.913 424.412C437.261 394.542 430.423 379.666 421.33 366.632C409.855 350.183 397.481 342.462 382.327 343.379C326.588 346.748 266.548 409.572 203.338 532.62C201.824 535.568 198.207 536.73 195.26 535.216C192.312 533.701 191.15 530.085 192.664 527.137C257.66 400.612 320.261 335.109 381.603 331.4C401.298 330.21 417.197 339.995 430.762 359.182L431.172 359.767C440.789 373.553 447.79 388.631 459.348 418.146L464.578 431.584C475.839 460.397 482.401 474.547 490.916 486.316L491.183 486.683C501.978 501.47 513.339 507.188 527.637 504.014C551.608 498.692 571.418 484.021 589.709 459.738L590.971 458.049C603.763 440.786 613.266 423.501 631.38 386.501L637.598 373.761C656.204 335.753 665.842 318.271 679.447 299.93L679.883 299.344C699.461 273.085 721.154 256.569 747.653 250.062Z" fill="#FFB201" blush:i="0.0.0.0.6.0.0.3"/><path id="Path 9 Copy" d="M855.461 262.363C856.299 259.157 859.578 257.238 862.784 258.076C865.99 258.915 867.909 262.194 867.07 265.399C829.866 407.628 782.055 474.407 721.873 462.893C695.818 457.908 677.611 458.83 664.083 464.799C653.666 469.395 646.384 476.268 636.161 489.881L634.978 491.468L628.885 499.787C626.262 503.356 624.157 506.139 622 508.857C613.001 520.193 604.125 528.884 593.015 536.394C579.577 545.476 563.492 552.228 543.679 556.626C525.421 560.68 509.764 558.613 495.299 551.083C484.531 545.477 475.982 538.235 462.563 524.523L456.286 518.055C442.762 504.11 434.925 497.125 425.082 491.229C412.568 483.734 399.247 480.295 383.426 481.252C326.304 484.705 265.765 512.91 201.838 566.097C199.29 568.217 195.507 567.87 193.388 565.322C191.268 562.775 191.615 558.992 194.163 556.873C259.906 502.175 322.744 472.898 382.702 469.273C400.993 468.168 416.704 472.224 431.248 480.934L432.227 481.527C442.435 487.781 450.591 495.018 463.643 508.406L469.932 514.893L471.091 516.081C483.692 528.959 491.495 535.574 500.841 540.439C512.803 546.666 525.578 548.353 541.078 544.911C559.453 540.832 574.139 534.668 586.296 526.452C596.284 519.701 604.309 511.842 612.602 501.396L613.687 500.016C615.139 498.156 616.625 496.188 618.339 493.87L625.137 484.594L625.571 484.007C637.436 468.013 646.148 459.596 659.239 453.82C675.277 446.744 695.873 445.701 724.128 451.107C775.368 460.91 819.734 398.943 855.461 262.363Z" fill="#009BA0" blush:i="0.0.0.0.6.0.0.4"/><circle id="Oval" cx="763.5" cy="254.5" r="25.5" fill="#FF0057" blush:i="0.0.0.0.6.0.0.5"/><rect id="Rectangle" x="167" y="600" width="709" height="2" fill="#C7D2F2" blush:i="0.0.0.0.6.0.0.6"/></g></g></g></g><g id="Master/Character/Sitting [colors]" blush:has-customizable-colors="true" blush:component="Master/Character/Sitting [colors]" blush:width="1110" blush:height="1500" transform="translate(409 557) scale(1 1)" blush:i="0.0.0.1" blush:value="Sitting [colors]" blush:viewBox="172.5 165 765.0000000000002 1335"><g id="Master/Character/Sitting [colors]" blush:has-customizable-colors="true" blush:viewBox="172.5 165 765.0000000000002 1335" blush:i="0.0.0.1.0"><g id="Lower Body/Sitting" blush:component="Lower Body/Sitting" blush:defaultValue="On Chair 1" blush:width="752" blush:height="560" transform="translate(179 940) scale(1 1)" blush:i="0.0.0.1.0.0" blush:value="On Chair 1" blush:viewBox="176.72000000000003 -36.12903225806457 616.6399999999999 594.6236559139786"><g id="Lower Body/Sitting/On Chair 1" blush:viewBox="176.72000000000003 -36.12903225806457 616.6399999999999 594.6236559139786" blush:i="0.0.0.1.0.0.0"><path id="Fill 3" fill-rule="evenodd" clip-rule="evenodd" d="M410.615 399.5C410.615 399.5 400.358 471.95 396.172 502.906C391.95 534.126 467.049 503.737 467.049 503.737C467.049 503.737 453.51 484.443 453.305 479.158C453.101 473.871 476.219 412 476.219 412L410.615 399.5Z" fill="#b75858" blush:color="Skin-500" blush:i="0.0.0.1.0.0.0.0"/><path id="Fill 5" fill-rule="evenodd" clip-rule="evenodd" d="M561.036 0C597.898 16.8477 635.154 59.3885 602.589 139.129C570.025 218.869 493.394 411.872 481.35 420.555C469.306 429.239 405.785 412 405.785 412C405.785 412 412.733 330.944 426.535 251.243C436.642 192.88 457.953 150.326 457.953 150.326C457.953 150.326 286.541 174.784 243.983 146.076C188.125 108.397 229.481 6.86054 261.586 -5.71064C302.859 -21.8714 490.855 -32.0758 561.036 0Z" fill="#090E2B" blush:i="0.0.0.1.0.0.0.1"/><path id="Fill 17" fill-rule="evenodd" clip-rule="evenodd" d="M559.105 537.55C553.719 520.869 514.662 509.853 486.46 501.514C476.967 498.706 463.703 484.835 457.546 485.001C448.582 485.245 457.367 503.898 427.363 502.274C419.419 501.845 418.852 493.484 401.592 491.581C398.787 491.273 394.499 490.728 390.796 497.394C388.732 501.111 380.282 534.664 388.578 548.345C446.664 549.846 506.413 548.363 558.02 547.882C563.06 547.834 560.482 541.819 559.105 537.55" fill="#FF0057" blush:i="0.0.0.1.0.0.0.2"/><path id="Fill 1" fill-rule="evenodd" clip-rule="evenodd" d="M654.971 412C654.971 412 665.531 466.51 672.596 475.378C679.663 484.243 716.329 494.221 717.975 499.698C719.619 505.175 639.821 518 639.821 518L591 416.698L654.971 412Z" fill="#b75858" blush:color="Skin-500" blush:i="0.0.0.1.0.0.0.3"/><path id="Fill 10" fill-rule="evenodd" clip-rule="evenodd" d="M790.105 534.55C784.719 517.87 745.662 506.853 717.46 498.513C707.967 495.706 694.703 481.834 688.546 482.001C679.582 482.244 688.367 500.898 658.363 499.274C650.42 498.845 649.853 490.483 632.592 488.581C629.787 488.272 625.499 487.728 621.796 494.393C619.732 498.11 611.282 531.663 619.578 545.346C677.664 546.846 737.413 545.362 789.02 544.881C794.06 544.833 791.482 538.818 790.105 534.55" fill="#FF0057" blush:i="0.0.0.1.0.0.0.4"/><path id="Fill 15" fill-rule="evenodd" clip-rule="evenodd" d="M722.705 510.43C726.392 503.004 728.005 501.713 726.433 500.544C722.673 497.748 703.571 506.385 702.07 511.523C700.945 515.374 713.664 504.229 723.821 502.566C719.659 506.366 715.779 518.02 719.874 515.696C739.827 504.382 742.974 507.006 742.999 506.586C743.117 504.585 735.566 502.967 722.705 510.43" fill="#FFB201" blush:i="0.0.0.1.0.0.0.5"/><path id="Fill 7" fill-rule="evenodd" clip-rule="evenodd" d="M180.128 77C192.092 138.955 247.292 161.212 295.191 159.362C368.357 156.536 442.941 124.042 468.153 113.183C465.932 129.164 477.806 220.025 497.63 262.074C517.453 304.124 582.01 430.62 582.01 430.62C582.01 430.62 654.852 431.05 657.967 413.369C660.016 401.738 591.632 76.8495 569.01 20.5962C556.02 -11.7083 513.977 -25.6487 427.502 -33C340.648 -40.3834 214.032 -26.7716 214.032 -26.7716C214.032 -26.7716 168.163 15.0448 180.128 77Z" fill="#001386" blush:i="0.0.0.1.0.0.0.6"/><path id="Fill 22" fill-rule="evenodd" clip-rule="evenodd" d="M491.705 514.43C495.392 507.005 497.005 505.714 495.432 504.544C491.672 501.749 472.571 510.385 471.07 515.522C469.945 519.373 482.664 508.228 492.821 506.566C488.659 510.367 484.778 522.019 488.874 519.697C508.827 508.381 511.974 511.006 511.999 510.585C512.117 508.585 504.566 506.966 491.705 514.43" fill="#FFB201" blush:i="0.0.0.1.0.0.0.7"/><path id="Fill 19" fill-rule="evenodd" clip-rule="evenodd" d="M546.831 554.391L407.016 556.857C397.662 557.231 383.67 554.014 382.317 546.243C381.306 540.437 383.554 527.795 384.02 526.954C387.277 521.094 415.032 526.038 423.117 545.827C474.131 549.649 561.008 545.912 561.008 545.912C561.008 545.912 562.312 553.593 546.831 554.391" fill="#090E2B" blush:i="0.0.0.1.0.0.0.8"/><path id="Fill 12" fill-rule="evenodd" clip-rule="evenodd" d="M777.721 550.785L637.906 553.251C628.553 553.625 614.56 550.409 613.207 542.638C612.197 536.832 614.444 524.19 614.911 523.349C618.167 517.489 645.922 522.433 654.007 542.222C705.021 546.044 791.899 542.307 791.899 542.307C791.899 542.307 793.202 549.988 777.721 550.785" fill="#090E2B" blush:i="0.0.0.1.0.0.0.9"/></g></g><g id="Upper Body/Sitting" blush:component="Upper Body/Sitting" blush:defaultValue="Talking 1" blush:width="600" blush:height="951" transform="translate(243 170) scale(1 1.0010526315789474)" blush:i="0.0.0.1.0.1" blush:value="With Laptop 2" blush:viewBox="34.177215189873436 370.5 588.607594936709 441.7499999999999"><g id="Upper Body/Sitting/With Laptop 2" blush:viewBox="34.177215189873436 370.5 588.607594936709 441.7499999999999" blush:i="0.0.0.1.0.1.0"><path id="Fill 1" fill-rule="evenodd" clip-rule="evenodd" d="M286 448C299.898 455.921 321.105 472.381 333.718 510.851C344.32 543.182 368.57 589.863 369.354 594.557C381.886 599.248 432 624.25 432 624.25C432 624.25 397.463 680 394.618 680C391.772 680 374.926 679.132 358.612 677.849C305.347 673.659 302.615 637.159 299.973 622.271C291.424 574.088 289.989 453.179 286 448" fill="#3615F6" blush:i="0.0.0.1.0.1.0.0"/><path id="Fill 3" fill-rule="evenodd" clip-rule="evenodd" d="M203.679 373C203.679 373 215.229 430.304 207.464 436.256C203.587 439.228 187 443.605 187 443.605C187 443.605 227.845 476.13 252.813 476.967C277.781 477.805 294.466 462.609 291.701 457.101C287.564 448.858 258.313 441.498 257.221 434.162C255.975 425.794 256.521 389.174 256.521 389.174L203.679 373Z" fill="#b75858" blush:color="Skin-500" blush:i="0.0.0.1.0.1.0.1"/><path id="Fill 8" fill-rule="evenodd" clip-rule="evenodd" d="M126.185 468.342C125.002 478.894 113.436 610.159 129.055 629.825C147.759 653.375 120.262 728.83 108.36 748.037C87.6538 781.45 64.3167 841.503 140.314 792.468C209.312 747.949 301.723 743.109 319.79 737.775C325.933 735.961 321.714 730.278 321.315 726.364C316.68 680.826 327.91 585.791 327.999 553.732C328.056 533.119 305.18 458.994 287.181 448.378C283.594 446.262 265.901 438.729 265.901 441.674C265.901 456.144 264.743 476.667 257.864 476.667C240.342 476.667 195.014 444.859 187.991 441.674C171.889 444.931 127.536 456.296 126.185 468.342Z" fill="#3615F6" blush:i="0.0.0.1.0.1.0.2"/><path id="Fill 13" fill-rule="evenodd" clip-rule="evenodd" d="M306.705 490.535C316.375 509.147 326.774 528.76 327.724 549.894C328.925 576.556 325.874 607.021 324.942 633.743C324.667 640.722 324.411 647.704 324.397 654.681C324.409 655.088 323.712 655.123 323.717 654.687C323.052 622.182 327.108 582.533 325.629 549.984C324.683 529.179 314.437 509.034 306.02 490.085C305.875 489.817 306.555 490.243 306.705 490.535" fill="#090E2B" blush:i="0.0.0.1.0.1.0.3"/><g id="macbook" blush:i="0.0.0.1.0.1.0.4"><path id="Fill 15" fill-rule="evenodd" clip-rule="evenodd" d="M400.37 639.886L280.737 650.015C278.696 650.184 272.283 652.863 272.062 654.898C272.062 654.898 271.115 660.144 276.637 660.144H400.37V639.886Z" fill="white" blush:i="0.0.0.1.0.1.0.4.0"/><path id="Fill 17" fill-rule="evenodd" clip-rule="evenodd" d="M563.427 660.144H376.125L427.804 522.887C430.941 515.138 437.583 507.392 448.064 507.392L604.657 507.51C621.488 507.388 623.6 513.634 619.981 523.475C609.556 551.816 582.743 631.168 573.525 653.402C571.831 657.485 567.848 660.144 563.427 660.144" fill="white" blush:i="0.0.0.1.0.1.0.4.1"/><path id="Fill 19" fill-rule="evenodd" clip-rule="evenodd" d="M603.827 506.473C560.59 506.369 500.598 506.281 457.252 506.172C442.145 505.233 432.769 507.791 426.51 522.715C412.548 559.913 396.395 603.339 382.858 640.832L286.824 649.499C295.941 648.768 383.381 642.467 383.636 641.663C399.014 603.32 415.175 558.328 430.532 520.106C436.818 508.519 445.502 508.153 457.252 508.625L489.825 508.608C511.135 508.713 566.973 508.405 587.547 508.555C594.947 509.416 618.268 505.31 620.298 514.788C620.673 523.795 615.155 532.789 612.527 541.408C610.152 549.198 601.801 572.167 601.801 572.167C593.258 596.261 583.657 625.225 574.573 648.878C571.156 659.683 566.623 659.789 556.463 659.532C551.324 659.571 537.941 660.132 532.655 660.178C532.019 660.187 531.382 660.621 532.033 660.639C541.388 660.518 555.456 661.018 564.672 660.717C570.836 660.37 574.239 654.677 575.893 649.397C585.713 624.075 594.543 598.387 603.56 572.781C607.053 562.195 615.919 536.707 619.855 526.734C626.164 510.754 618.738 505.986 603.827 506.473" fill="#090E2B" blush:i="0.0.0.1.0.1.0.4.2"/></g><path id="Fill 21" fill-rule="evenodd" clip-rule="evenodd" d="M258.796 651.475C258.431 651.503 258.215 651.522 258.204 651.525L258.796 651.475Z" fill="black" blush:i="0.0.0.1.0.1.0.5"/><path id="Fill 23" fill-rule="evenodd" clip-rule="evenodd" d="M471 659.775H504.342C516.167 659.993 509.981 635.809 522.9 638.161C533.929 640.169 533.431 646.637 532.286 659.68C534.519 656.887 538.763 655.968 540.216 656.917C542.293 658.274 539.968 658.675 536.461 664.296C532.406 670.794 520.879 676.871 507.14 678.026C503.005 678.373 479.248 682 479.248 682L471 659.775Z" fill="#b75858" blush:color="Skin-500" blush:i="0.0.0.1.0.1.0.6"/><path id="Fill 25" fill-rule="evenodd" clip-rule="evenodd" d="M276.485 647.783C276.485 647.783 285.752 641.18 293.7 642.114C304.303 643.357 305.148 638.575 307.86 642.743C308.456 643.658 306.585 646.596 301.674 647.688C295.046 649.16 297.823 653.25 297.823 653.25C297.823 653.25 320.846 658.74 324.083 659.319C325.871 659.638 326.353 664.727 312.835 668.738C305.784 670.831 295.707 670.886 283.83 671.285C280.526 671.398 242.53 683 242.53 683L240.188 664.067L239 644.394L276.485 647.783Z" fill="#b75858" blush:color="Skin-500" blush:i="0.0.0.1.0.1.0.7"/><path id="Fill 27" fill-rule="evenodd" clip-rule="evenodd" d="M395 680.025C395 680.025 490.409 683.881 496.352 682.813C502.295 681.745 490.252 660 490.252 660H404.046L395 680.025Z" fill="#3615F6" blush:i="0.0.0.1.0.1.0.8"/><g id="blush" blush:i="0.0.0.1.0.1.0.9"><path id="Fill 29" fill-rule="evenodd" clip-rule="evenodd" d="M506.171 586.015H506.156C501.892 586.015 500.019 584.223 499.282 583.154C498.734 582.358 498.934 581.268 499.73 580.72C500.525 580.171 501.616 580.373 502.163 581.167C502.754 582.024 504.21 582.515 506.157 582.515H506.17C509.16 582.515 511.246 581.389 512.225 580.718C513.023 580.169 514.111 580.374 514.657 581.17C515.204 581.967 515.002 583.056 514.205 583.603C511.941 585.159 509.087 586.015 506.171 586.015" fill="#090E2B" blush:i="0.0.0.1.0.1.0.9.0"/><path id="Fill 31" fill-rule="evenodd" clip-rule="evenodd" d="M494.117 588.799C491.743 594.995 484.822 600.018 478.66 600.018C472.498 600.018 469.428 594.995 471.803 588.799C474.177 582.604 481.097 577.581 487.26 577.581C493.422 577.581 496.492 582.604 494.117 588.799" fill="#FF00A4" blush:i="0.0.0.1.0.1.0.9.1"/><path id="Fill 33" fill-rule="evenodd" clip-rule="evenodd" d="M537.985 588.799C535.61 594.995 528.689 600.018 522.527 600.018C516.365 600.018 513.295 594.995 515.67 588.799C518.045 582.604 524.964 577.581 531.127 577.581C537.29 577.581 540.36 582.604 537.985 588.799" fill="#FF00A4" blush:i="0.0.0.1.0.1.0.9.2"/><path id="Fill 35" fill-rule="evenodd" clip-rule="evenodd" d="M497.923 573.951C497.298 575.582 495.477 576.903 493.856 576.903C492.234 576.903 491.426 575.582 492.051 573.951C492.676 572.321 494.497 571 496.118 571C497.739 571 498.548 572.321 497.923 573.951" fill="#090E2B" blush:i="0.0.0.1.0.1.0.9.3"/><path id="Fill 37" fill-rule="evenodd" clip-rule="evenodd" d="M528.872 573.951C528.247 575.582 526.426 576.903 524.805 576.903C523.183 576.903 522.375 575.582 523 573.951C523.625 572.321 525.445 571 527.067 571C528.688 571 529.496 572.321 528.872 573.951" fill="#090E2B" blush:i="0.0.0.1.0.1.0.9.4"/></g><path id="Fill 39" fill-rule="evenodd" clip-rule="evenodd" d="M187.02 561.172C178.53 583.552 131.375 633.529 131.375 633.529C131.375 633.529 241.684 644.975 257.979 644.973C258.357 650.702 253.559 694.183 253.559 694.183C205.553 700.984 53.1528 720.653 41.0842 680.373C15.9392 596.452 114.605 481.936 127.273 466.451C145.018 444.759 198.374 531.239 187.02 561.172" fill="#3615F6" blush:i="0.0.0.1.0.1.0.10"/><path id="Fill 42" fill-rule="evenodd" clip-rule="evenodd" d="M257.714 644.434C215.359 642.423 176.769 635.397 134.316 631.665C149.27 615.655 163.802 599.173 176.277 581.151C180.554 574.793 184.438 568.478 186.983 561.201C187.061 560.969 187.671 559.084 187.438 559C177.527 579.201 161.244 598.575 145.832 615.386C140.656 620.974 135.381 626.497 130.006 631.865C129.117 632.701 127.894 634.197 130.974 634.403C163.524 636.573 196.118 640.633 228.598 643.662C239.483 644.455 245.187 644.96 256.136 645C257.896 645.007 258.379 644.419 257.714 644.434" fill="#090E2B" blush:i="0.0.0.1.0.1.0.11"/><path id="Fill 44" fill-rule="evenodd" clip-rule="evenodd" d="M254.944 679C254.426 679 250.565 694.199 249.377 694.362C209.234 699.899 166.001 705.665 125.324 704.408C124.561 704.331 125.277 705.06 126.114 705.142C155.99 708.395 220.894 701.486 230.656 699.596C248.855 696.071 250.414 696.345 251.194 695.113C251.194 695.113 255.462 679 254.944 679Z" fill="#090E2B" blush:i="0.0.0.1.0.1.0.12"/></g></g><g id="Head" blush:component="Head" blush:defaultValue="Long Hair Dark" blush:width="300" blush:height="300" transform="translate(341 346) scale(1 1)" blush:i="0.0.0.1.0.2" blush:value="Long Hair Hat" blush:viewBox="-136.5 16.5 439.5 372"><g id="Head/Long Hair Hat" blush:viewBox="-136.5 16.5 439.5 372" blush:i="0.0.0.1.0.2.0"><path id="Path 10" fill-rule="evenodd" clip-rule="evenodd" d="M70.2562 97.4989C70.2562 97.4989 48.6944 43.7932 97.6996 26.2653C146.705 8.73743 185.296 17.9742 190.236 59.3052C198.158 125.599 94.9178 158.925 70.2562 97.4989Z" fill="#FFB201" blush:i="0.0.0.1.0.2.0.0"/><path id="Fill 1" fill-rule="evenodd" clip-rule="evenodd" d="M146.176 222.265C53.2246 222.265 -22 206.483 -22 143.464C-22 80.4452 31.2017 46.2417 130.855 31.5907C230.508 16.9396 302 13.2005 302 96.4541C302 159.474 239.129 222.265 146.176 222.265Z" fill="#FFB201" blush:i="0.0.0.1.0.2.0.1"/><path id="Fill 3" fill-rule="evenodd" clip-rule="evenodd" d="M-106.282 235.5C-66.068 209.611 -17.1446 224.379 8.88736 215.123C51.1954 200.08 45.4882 152.69 85.35 135.013C96.1764 100.832 126.661 83.7612 171.659 83.7612C242.273 83.7612 244.239 140.447 245.971 150C252.336 185.102 239.116 253.488 252.47 276.992C274.888 316.454 264.527 342.215 252.837 351.627C240.235 361.774 203.569 352.484 195.614 345.892C180.433 333.313 165.115 328.377 165.115 286.672C157.189 274.503 156.722 270.9 158.512 256.127C160.666 238.353 162.691 222.274 124.435 215.123C127.545 245.856 132.654 267.017 118.354 282.576C104.054 298.134 89.6971 298.134 72.0618 304C35.0071 316.324 22.5879 420.655 -90.4692 376.973C-151.085 354.33 -146.495 261.389 -106.282 235.5Z" fill="#090E2B" blush:i="0.0.0.1.0.2.0.2"/><path id="Combined Shape" fill-rule="evenodd" clip-rule="evenodd" d="M232.575 234.655C240.592 218.767 243.748 193.622 234.766 156.81C232.702 148.348 231.768 140.973 230.975 134.711C228.319 113.731 227.245 105.249 190.535 110.271C163.009 114.037 120.164 131.23 112.624 161.39C112.624 161.39 112.49 163.053 112.357 165.813C101.569 153.837 85.3501 166.516 85.3501 176.746C85.3501 199.59 104.018 209.45 115.276 206.802C115.616 207.955 115.99 209.053 116.402 210.081C116.754 210.962 117.114 211.894 117.491 212.87C120.63 220.991 124.935 232.132 135.518 241.803C146.77 252.086 166.782 263.904 198.631 262.784C215.143 262.203 223.139 253.358 232.575 234.655Z" fill="#b75858" blush:color="Skin-500" blush:i="0.0.0.1.0.2.0.3"/><path id="Fill 8" fill-rule="evenodd" clip-rule="evenodd" d="M110.261 179.03C107.388 173.262 100.467 169.688 94.4889 173.724C93.1359 174.637 94.9599 175.262 95.5309 175.198C102.632 174.269 105.451 176.21 107.784 180.247C105.553 180.794 103.324 182.779 103.039 185.021C102.865 186.397 103.341 190.47 104.391 189.185C105.117 188.297 103.517 182.239 108.806 182.792C108.886 182.81 108.958 182.814 109.033 182.821C109.282 183.419 111.273 184.657 112.128 183.619C112.652 182.985 111.573 181.667 110.261 179.03" fill="#090E2B" blush:i="0.0.0.1.0.2.0.4"/><path id="Fill 9" fill-rule="evenodd" clip-rule="evenodd" d="M184.511 83.8578C156.443 85.8888 116.345 115.898 109.891 137.898C108.798 141.625 109.8 161.009 112.187 165.389C115.364 171.22 115.016 184.517 124.482 186.059C141.169 188.776 124.021 163.956 126.553 157.471C136.096 133.018 166.369 148.55 184.511 143.014C209.354 135.434 218.556 130.045 219.194 129.08C222.416 141.456 239.796 165.149 245.815 169.768C247.773 171.269 245.135 144.379 238.852 122.622C235.05 109.456 211.194 81.9268 184.511 83.8578Z" fill="#090E2B" blush:i="0.0.0.1.0.2.0.5"/><path id="Fill 11" fill-rule="evenodd" clip-rule="evenodd" d="M107.274 236.091C95.6422 236.091 86.1782 226.627 86.1782 214.995C86.1782 208.848 88.8402 202.929 93.5032 198.914C94.2692 199.697 95.1862 200.566 95.8692 201.149C91.8702 204.593 89.1782 209.722 89.1782 214.995C89.1782 224.973 97.2962 233.091 107.274 233.091C117.252 233.091 125.37 224.973 125.37 214.995C125.37 205.018 117.252 196.9 107.274 196.9C106.446 196.9 105.774 196.228 105.774 195.4C105.774 194.571 106.446 193.9 107.274 193.9C118.906 193.9 128.37 203.363 128.37 214.995C128.37 226.627 118.906 236.091 107.274 236.091" fill="white" blush:i="0.0.0.1.0.2.0.6"/><path id="Fill 4" fill-rule="evenodd" clip-rule="evenodd" d="M151.936 254.628C147.843 252.187 139.507 247.655 137.848 245.046C136.983 243.686 140.059 245.478 141.65 246.678C143.768 248.275 152.519 252.985 163.318 258.066C164.255 258.506 170.267 261.033 170.416 261.371C170.556 261.688 169.953 262.236 169.242 262.142C164.462 261.505 156.448 257.319 151.936 254.628Z" fill="#090E2B" blush:i="0.0.0.1.0.2.0.7"/></g></g><g id="Expressions" blush:component="Expressions" blush:defaultValue="Calm 1" blush:width="120" blush:height="120" transform="translate(462 479) scale(1 1)" blush:i="0.0.0.1.0.3" blush:value="Happy" blush:viewBox="21 10.200000000000003 89.4 91.80000000000001"><g id="Expressions/Happy" blush:viewBox="21 10.200000000000003 89.4 91.80000000000001" blush:i="0.0.0.1.0.3.0"><g id="eye1" blush:i="0.0.0.1.0.3.0.0"><path id="Fill 1" fill-rule="evenodd" clip-rule="evenodd" d="M21.0758 18.1794C22.852 10.1964 46.2248 7.39831 56.5098 13.5793C60.0658 15.6923 66.6698 21.4974 60.8228 24.6574C59.2788 25.3294 57.7788 24.6404 56.5098 23.8214C42.4918 14.0794 19.8377 23.7441 21.0758 18.1794Z" fill="#090E2B" blush:i="0.0.0.1.0.3.0.0.0"/><path id="Fill 6" fill-rule="evenodd" clip-rule="evenodd" d="M40.0385 32.611C34.7505 34.111 30.2175 38.361 29.7965 41.883C29.5415 44.011 37.8915 49.12 45.9445 49.517C56.5385 50.038 61.8785 44.299 61.8595 42.465C61.1465 36.915 54.7555 28.437 40.0385 32.611Z" fill="white" blush:i="0.0.0.1.0.3.0.0.1"/><path id="Fill 8" fill-rule="evenodd" clip-rule="evenodd" d="M56.4251 35.7687C48.2821 29.6147 35.6701 33.6247 29.7961 41.8827C29.4591 42.3107 29.5561 41.2337 29.7901 40.7427C32.6241 34.7957 37.7371 31.9887 43.6651 30.7647C47.2321 30.0277 50.5581 29.9677 54.0371 31.5257C55.3821 32.1267 57.7581 33.9587 59.5941 36.0307C61.0261 37.6457 62.2321 40.4147 60.5751 39.4357C59.2781 38.6687 57.5051 36.5857 56.4251 35.7687Z" fill="#090E2B" blush:i="0.0.0.1.0.3.0.0.2"/><path id="Fill 10" fill-rule="evenodd" clip-rule="evenodd" d="M45.8406 46.276C50.3676 46.276 54.0376 42.928 54.0376 38.797C54.0376 34.667 50.3676 31.318 45.8406 31.318C41.3136 31.318 37.6436 34.667 37.6436 38.797C37.6436 42.928 41.3136 46.276 45.8406 46.276Z" fill="#090E2B" blush:i="0.0.0.1.0.3.0.0.3"/></g><g id="eye2" blush:i="0.0.0.1.0.3.0.1"><path id="Fill 4" fill-rule="evenodd" clip-rule="evenodd" d="M104.459 16.8615C107.813 18.3492 112.278 23.2874 108.561 23.2874C104.844 23.2874 96.7934 22.233 91.3964 24.46C89.5114 24.942 88.0809 25.8644 86.1879 26.0894C81.8799 26.9284 79.5393 21.7686 82.5852 18.6493C86.0263 15.1253 97.6432 13.4545 104.459 16.8615Z" fill="#090E2B" blush:i="0.0.0.1.0.3.0.1.0"/><path id="Fill 12" fill-rule="evenodd" clip-rule="evenodd" d="M100.659 49.2345C106.03 47.9855 110.047 43.1155 109.593 39.4765C108.707 34.6545 99.4218 31.5755 94.2208 34.2085C89.0698 36.8155 85.8468 42.6405 86.2628 44.9405C86.8638 46.5325 95.1698 50.5115 100.659 49.2345Z" fill="white" blush:i="0.0.0.1.0.3.0.1.1"/><path id="Fill 14" fill-rule="evenodd" clip-rule="evenodd" d="M96.2146 46.6063C99.7526 46.6063 102.621 43.8523 102.621 40.4563C102.621 37.0593 100.6 33.8493 96.2146 34.3063C92.6956 34.6723 89.8076 37.0593 89.8076 40.4563C89.8076 43.8523 92.6766 46.6063 96.2146 46.6063Z" fill="#090E2B" blush:i="0.0.0.1.0.3.0.1.2"/><path id="Fill 22" fill-rule="evenodd" clip-rule="evenodd" d="M86.454 41.6378C88.483 34.0638 97.644 30.1689 104.889 33.7549C105.909 34.2869 107.565 35.4809 108.805 36.9229C109.946 38.2529 109.797 38.9499 109.331 38.8119C108.559 38.5819 106.926 37.1169 105.599 36.4869C98.889 33.3039 91.908 35.0899 86.797 42.5589C86.546 42.9459 86.308 42.0748 86.454 41.6378" fill="#090E2B" blush:i="0.0.0.1.0.3.0.1.3"/></g><path id="Fill 18" fill-rule="evenodd" clip-rule="evenodd" d="M89.7737 88.8586C81.2033 89.8586 88.1482 99.3834 83.7083 100.649C72.341 103.888 59.9999 99.9573 58.0066 89.8586C56.8302 83.8987 60.3418 84.6194 63.1467 84.8682C65.9516 85.1171 79.8038 85.6293 87.2446 85.6293C94.4592 85.6293 90.8333 88.735 89.7737 88.8586Z" fill="#090E2B" blush:i="0.0.0.1.0.3.0.2"/><path id="nose" fill-rule="evenodd" clip-rule="evenodd" d="M79.5164 56.0474C79.9047 56.0474 82.4879 60.4695 83.4357 62.0222C86.4544 66.9676 89.7813 72.5049 84.8702 75.6882C82.4912 77.2312 75.0122 74.8407 75.0122 73.0252C75.0122 70.2631 81.8382 75.1192 83.4442 72.3152C84.3858 70.8872 80.8591 63.644 79.5164 59.3488C78.7671 56.9517 79.1281 56.0474 79.5164 56.0474Z" fill="#090E2B" blush:i="0.0.0.1.0.3.0.3"/></g></g><g id="Facial Accesories" blush:component="Facial Accesories" blush:defaultValue="None" blush:width="120" blush:height="110" transform="translate(459 529) scale(120 110)" blush:i="0.0.0.1.0.4" blush:value="None" blush:viewBox="1.75 1.75 0 0"><g id="Facial Accesories/None" stroke="none" stroke-width="1" fill="none" fill-rule="evenodd" fill-opacity="0" blush:viewBox="1.75 1.75 0 0" blush:i="0.0.0.1.0.4.0"/></g><g id="Glass" blush:component="Glass" blush:defaultValue="None" blush:width="120" blush:height="75" transform="translate(462 484) scale(120 75)" blush:i="0.0.0.1.0.5" blush:value="None" blush:viewBox="1.75 1.75 0 0"><g id="Glass/None" stroke="none" stroke-width="1" fill="none" fill-rule="evenodd" fill-opacity="0" blush:viewBox="1.75 1.75 0 0" blush:i="0.0.0.1.0.5.0"/></g></g></g></g></g></g></svg>