<svg viewBox="80 360 3160 1719.9999999999998" fill="none" xmlns="http://www.w3.org/2000/svg" xmlns:xlink="http://www.w3.org/1999/xlink" xmlns:blush="http://design.blush" overflow="visible" width="3160px" height="1719.9999999999998px"><g id="Master/Scenes/Teamwork" blush:has-customizable-colors="true" blush:viewBox="-16 328 3231.999999999999 1743.9999999999998" blush:i="0"><g id="Background" blush:i="0.0"><g id="Floor" blush:i="0.0.0"><path id="Path 4 Copy 2" d="M3200.5 2051C3202.43 2051 3204 2052.57 3204 2054.5C3204 2056.37 3202.54 2057.9 3200.69 2057.99L3200.5 2058H2326.5C2324.57 2058 2323 2056.43 2323 2054.5C2323 2052.63 2324.46 2051.1 2326.31 2051.01L2326.5 2051H3200.5Z" fill="#090E2B" blush:i="0.0.0.0"/><path id="Path 4 Copy 3" d="M2173.5 2051C2175.43 2051 2177 2052.57 2177 2054.5C2177 2056.37 2175.54 2057.9 2173.69 2057.99L2173.5 2058H1684.5C1682.57 2058 1681 2056.43 1681 2054.5C1681 2052.63 1682.46 2051.1 1684.31 2051.01L1684.5 2051H2173.5Z" fill="#090E2B" blush:i="0.0.0.1"/><path id="Path 4 Copy" d="M1092.5 2051C1094.43 2051 1096 2052.57 1096 2054.5C1096 2056.37 1094.54 2057.9 1092.69 2057.99L1092.5 2058H210.5C208.567 2058 207 2056.43 207 2054.5C207 2052.63 208.464 2051.1 210.308 2051.01L210.5 2051H1092.5Z" fill="#090E2B" blush:i="0.0.0.2"/></g><g id="Medium Plants" blush:component="Medium Plants" blush:defaultValue="Plant 2" blush:width="845" blush:height="800" transform="translate(-1 1255) scale(1 1)" blush:i="0.0.1" blush:value="Plant 4" blush:viewBox="92.94999999999993 144.18604651162786 663.3250000000002 655.3911205073997"><g id="Medium Plants/Plant 4" blush:viewBox="92.94999999999993 144.18604651162786 663.3250000000002 655.3911205073997" blush:i="0.0.1.0"><g id="Group 16" blush:i="0.0.1.0.0"><path id="Fill 1" fill-rule="evenodd" clip-rule="evenodd" d="M756.51 242.475C756.51 242.475 748.896 301.099 635.282 372.111C604.264 391.427 589.95 411.763 579.268 430.623C569.044 433.917 553.706 438.121 544.388 437.439C544.388 437.439 558.364 441.417 573.474 441.417C558.818 469.253 544.17 492.431 489.522 501.747C489.522 501.747 431.88 467.167 476.902 367.567C488.718 377.791 504.056 397.105 504.056 397.105C502.238 382.223 488.604 365.181 481.788 357.453C481.9 357.341 481.9 357.227 482.014 357.113C515.078 295.081 578.702 292.921 639.94 289.173C639.258 297.465 637.214 309.851 631.874 319.393C631.874 319.393 648.12 307.123 653.12 288.263C663.23 287.581 673.23 286.673 683 285.309C711.176 281.445 741.172 265.881 756.51 242.475" fill="#009BA0" blush:i="0.0.1.0.0.0"/><path id="Fill 3" d="M104.391 257.375C119.961 255.077 138.365 254.708 158.723 257.49C186.781 261.325 215.021 270.762 242.555 287.024C242.887 287.22 243.073 287.587 243.043 287.964L243.025 288.09L235.939 321.971L251.743 293.968C252.008 293.499 252.589 293.33 253.058 293.563L253.164 293.624C262.811 299.972 272.331 307.262 281.817 315.593C317.398 346.763 339.34 378.773 350.182 410.377C357.612 432.035 359.047 450.791 357.048 465.395C356.965 466.005 356.878 466.577 356.79 467.109L356.657 467.878L356.522 468.587L356.387 469.234L356.27 469.734L356.231 469.848L356.192 469.931L356.135 470.028L356.067 470.117L355.991 470.196L355.937 470.243L355.839 470.314L355.734 470.371L355.723 470.375C355.685 470.394 355.651 470.407 355.616 470.418L355.51 470.446L355.399 470.463L355.286 470.467L355.157 470.456L355.04 470.431L354.926 470.392L354.842 470.353L354.746 470.296L354.71 470.27C350.526 467.159 346.28 464.451 341.848 462.036L340.822 461.483L339.861 460.978C339.701 460.895 339.541 460.812 339.382 460.73L338.423 460.242L337.463 459.763C337.303 459.684 337.143 459.606 336.982 459.528L336.016 459.063L335.042 458.605L334.06 458.154C333.895 458.079 333.73 458.005 333.565 457.931L332.564 457.488C332.397 457.414 332.228 457.341 332.059 457.268L331.036 456.83L329.995 456.396L328.933 455.962C328.754 455.89 328.575 455.818 328.394 455.746L327.298 455.313C327.113 455.241 326.928 455.169 326.741 455.097L325.605 454.662L324.441 454.225L323.245 453.784L322.016 453.34L320.104 452.662L318.781 452.201L317.417 451.733L315.289 451.014L313.812 450.521L300.81 446.227L296.409 444.749L293.321 443.692L290.319 442.634L288.165 441.849L286.409 441.187L284.967 440.627L283.089 439.871L282.094 439.46L281.031 439.013L279.945 438.548L278.825 438.063L277.662 437.552L275.811 436.731L275.161 436.441C259.668 429.514 244.417 420.555 227.881 408.188C227.381 407.814 227.349 407.089 227.784 406.67L227.884 406.585L248.071 391.581L222.318 403.14C222.025 403.271 221.69 403.253 221.416 403.098L221.302 403.023L220.2 402.173L218.74 401.019L217.435 399.968L215.948 398.756C208.317 392.489 200.44 385.063 192.559 376.879L190.808 375.047C187.889 371.975 184.973 368.803 182.07 365.551L180.33 363.59C180.041 363.262 179.751 362.933 179.462 362.603L177.728 360.616C177.44 360.283 177.152 359.95 176.863 359.616L175.137 357.604L173.417 355.576L171.704 353.535C171.418 353.193 171.134 352.851 170.849 352.509L169.146 350.448C168.863 350.103 168.58 349.758 168.297 349.412L166.606 347.334C166.325 346.987 166.044 346.639 165.764 346.291L164.086 344.197L162.418 342.094C162.141 341.743 161.864 341.392 161.587 341.04L159.935 338.926C159.386 338.22 158.838 337.513 158.293 336.805L156.663 334.679L155.045 332.549C154.777 332.193 154.509 331.838 154.241 331.482L152.643 329.347C152.378 328.99 152.113 328.634 151.849 328.278L150.272 326.14C149.749 325.427 149.228 324.714 148.709 324.001L147.162 321.862L145.63 319.725L144.115 317.591L142.757 315.686L141.409 313.813C141.185 313.504 140.962 313.195 140.739 312.888L139.408 311.061L138.087 309.264L136.778 307.497L135.479 305.761L134.192 304.055L132.915 302.378L131.65 300.732L130.395 299.115L129.152 297.527L127.92 295.969L126.698 294.44C126.496 294.188 126.294 293.937 126.092 293.687L124.888 292.201L123.694 290.745C123.496 290.504 123.299 290.265 123.102 290.027L121.925 288.613L120.76 287.228C120.567 287 120.374 286.772 120.182 286.546L119.033 285.204L117.896 283.889L116.77 282.602L115.655 281.344L114.552 280.113L113.46 278.909L112.379 277.733L111.31 276.584C111.133 276.395 110.956 276.207 110.78 276.02L109.727 274.912L108.687 273.83L107.657 272.776C107.487 272.602 107.316 272.43 107.147 272.258L106.111 271.221C105.77 270.882 105.434 270.55 105.102 270.226L104.121 269.273C103.798 268.963 103.48 268.659 103.166 268.363L102.239 267.494L101.338 266.666C101.191 266.532 101.044 266.399 100.898 266.268L100.039 265.501L99.2071 264.774L98.4025 264.087C98.2707 263.975 98.1401 263.866 98.0106 263.758L97.2829 263.158L96.6345 262.636C96.5306 262.554 96.4287 262.473 96.3288 262.395L95.7545 261.952C95.6629 261.883 95.5734 261.815 95.4859 261.75L94.9602 261.364L94.574 261.093L94.4576 261.015C93.729 260.544 93.9045 259.433 94.7427 259.209L95.3946 259.047L96.2565 258.848L96.9103 258.705L97.2606 258.631C97.7707 258.523 98.3022 258.416 98.8549 258.31L99.9882 258.097L101.177 257.887L102.422 257.679L103.721 257.475C103.942 257.441 104.165 257.408 104.391 257.375Z" fill="#017C7F" blush:i="0.0.1.0.0.1"/><path id="Fill 5" fill-rule="evenodd" clip-rule="evenodd" d="M425.476 500.758C425.476 500.758 371.894 484.878 334.03 416.386C346.928 412.642 355.25 403.988 355.25 403.988C346.096 406.568 329.452 407.65 329.452 407.65C250.686 308.722 290.412 144 290.412 144C299.15 165.72 342.584 196.79 377.784 242.474C372.958 246.72 355.988 263.918 351.744 270.658C351.744 270.658 370.814 256.03 380.966 251.118C413.256 293.392 437.626 345.97 446.946 387.414C467.252 478.29 425.476 500.758 425.476 500.758" fill="#009BA0" blush:i="0.0.1.0.0.2"/><path id="Fill 7" fill-rule="evenodd" clip-rule="evenodd" d="M307.222 204.438C320.284 240.12 334.03 275.57 349.004 310.488C356.54 327.92 364.332 345.262 373.168 362.048C374.292 364.136 375.348 366.262 376.526 368.314L380.104 374.45C382.468 378.544 384.994 382.608 387.43 386.688C392.162 394.948 396.818 403.266 400.884 411.89C409.214 429.026 415.73 447.09 420.016 465.68C422.192 474.966 423.852 484.356 425.376 493.74C426.162 498.422 426.874 503.132 427.52 507.866C428.092 512.594 428.66 517.322 429.122 522.058C431.054 540.988 432.418 559.954 433.742 578.92C435.032 597.89 436.176 616.864 437.192 635.852C437.23 636.542 436.7 637.13 436.012 637.166C435.322 637.204 434.734 636.674 434.696 635.984V635.978C433.746 617.004 432.666 598.032 431.444 579.072C430.186 560.118 428.888 541.158 427.024 522.268C426.58 517.544 426.032 512.834 425.478 508.126C424.854 503.442 424.164 498.754 423.392 494.06C421.904 484.684 420.284 475.34 418.154 466.112C413.964 447.64 407.562 429.704 399.338 412.63C395.326 404.042 390.718 395.744 386.034 387.502C383.612 383.416 381.134 379.398 378.76 375.256L375.178 369.064C373.998 366.994 372.946 364.858 371.826 362.758C363.014 345.874 355.272 328.486 347.79 311.008C332.92 276.004 319.294 240.5 306.348 204.75C306.26 204.51 306.386 204.244 306.626 204.156C306.868 204.068 307.136 204.196 307.222 204.438" fill="black" blush:i="0.0.1.0.0.3"/><path id="Fill 9" fill-rule="evenodd" clip-rule="evenodd" d="M152.687 283.442L247.419 349.072C263.221 360.03 278.265 372.102 292.363 385.192C295.941 388.408 299.315 391.842 302.785 395.174C306.111 398.65 309.567 402.004 312.767 405.602C319.359 412.618 325.473 420.07 331.367 427.684C337.193 435.358 342.543 443.392 347.429 451.712C352.135 460.134 356.355 468.846 359.415 478.054C360.189 480.342 360.775 482.682 361.465 484.994C362.093 487.32 362.879 489.614 363.371 491.97C364.421 496.668 365.679 501.328 366.555 506.06C368.493 515.488 370.123 524.972 371.599 534.474C377.361 572.512 380.867 610.814 383.359 649.188C383.403 649.876 382.881 650.472 382.193 650.516C381.503 650.56 380.909 650.038 380.863 649.348V649.344V649.324C378.525 611.036 375.165 572.734 369.565 534.782C368.131 525.302 366.541 515.842 364.647 506.45C363.793 501.734 362.561 497.106 361.535 492.428C361.055 490.078 360.285 487.816 359.673 485.504C358.999 483.214 358.425 480.886 357.671 478.626C354.701 469.568 350.559 460.924 345.929 452.566C341.119 444.304 335.841 436.308 330.079 428.658C324.247 421.068 318.195 413.63 311.657 406.62C308.489 403.026 305.059 399.672 301.759 396.198C298.315 392.866 294.967 389.432 291.415 386.214C277.413 373.112 262.469 361.024 246.745 350.032L152.271 284.042C152.105 283.928 152.063 283.7 152.179 283.534C152.293 283.368 152.521 283.326 152.687 283.442" fill="black" blush:i="0.0.1.0.0.4"/><path id="Fill 11" fill-rule="evenodd" clip-rule="evenodd" d="M707.017 298.895C674.843 319.235 642.481 339.275 610.191 359.435L586.009 374.555C578.109 379.679 570.695 385.627 563.543 391.821C556.349 397.985 549.651 404.705 543.091 411.533C539.943 415.073 536.629 418.465 533.661 422.159L529.105 427.605L524.785 433.241C518.985 440.729 513.863 448.697 509.009 456.811C507.849 458.867 506.775 460.973 505.653 463.053C504.587 465.159 503.337 467.179 502.419 469.355L499.519 475.817L498.075 479.049L496.871 482.375L494.463 489.027C493.623 491.235 493.171 493.559 492.505 495.819C491.903 498.099 491.247 500.353 490.685 502.655L489.151 509.619L483.163 537.517C475.401 574.763 467.969 612.091 460.941 649.483C460.815 650.161 460.165 650.611 459.485 650.487C458.807 650.361 458.357 649.707 458.481 649.027C465.441 611.595 472.649 574.215 480.521 536.961L486.541 509.043L488.087 502.073C488.653 499.753 489.327 497.437 489.941 495.117C490.621 492.817 491.091 490.445 491.943 488.203L494.399 481.437L495.629 478.055L497.097 474.773L500.051 468.217C500.985 466.007 502.251 463.963 503.335 461.829C504.475 459.721 505.565 457.587 506.743 455.505C511.665 447.293 516.859 439.237 522.723 431.677L527.095 425.991L531.699 420.495C534.701 416.771 538.047 413.349 541.225 409.781C547.851 402.899 554.613 396.127 561.881 389.911C569.115 383.665 576.585 377.675 584.663 372.445C592.765 367.347 600.883 362.467 608.993 357.467C641.455 337.603 673.847 317.621 706.423 297.939C706.689 297.777 707.035 297.861 707.197 298.127C707.357 298.389 707.275 298.731 707.017 298.895" fill="black" blush:i="0.0.1.0.0.5"/><g id="Group 15" blush:i="0.0.1.0.0.6"><path id="Fill 13" fill-rule="evenodd" clip-rule="evenodd" d="M383.759 799.09H462.125C490.029 799.09 513.367 795.884 516.033 768.108L535.001 570.494H310.883L329.849 768.108C332.515 795.884 355.853 799.09 383.759 799.09" fill="#F0F1FF" blush:i="0.0.1.0.0.6.0"/></g></g></g></g><g id="UI Elements" blush:component="UI Elements" blush:defaultValue="UI Card 1" blush:width="1101" blush:height="811" transform="translate(1050 341) scale(1 1)" blush:i="0.0.2" blush:value="UI Card 2" blush:viewBox="143.13 107.98641304347825 814.7400000000001 595.0271739130434"><g id="UI Elements/UI Card 2" blush:viewBox="143.13 107.98641304347825 814.7400000000001 595.0271739130434" blush:i="0.0.2.0"><g id="interface" blush:i="0.0.2.0.0"><path id="Stroke 1 Copy 3" fill-rule="evenodd" clip-rule="evenodd" d="M939.095 700H204.905C195.568 700 188 692.434 188 683.101V164.901C188 155.568 195.568 148 204.905 148H939.095C948.432 148 956 155.568 956 164.901V683.101C956 692.434 948.432 700 939.095 700Z" fill="#090E2B" blush:i="0.0.2.0.0.0"/><path id="Stroke 1 Copy 2" fill-rule="evenodd" clip-rule="evenodd" d="M897.095 663H162.905C153.568 663 146 655.434 146 646.101V127.901C146 118.568 153.568 111 162.905 111H897.095C906.432 111 914 118.568 914 127.901V646.101C914 655.434 906.432 663 897.095 663Z" fill="#FFB201" blush:i="0.0.2.0.0.1"/><path id="Stroke 1 Copy 4" fill-rule="evenodd" clip-rule="evenodd" d="M162.905 108H897.095C908.088 108 917 116.91 917 127.901V646.101C917 657.091 908.089 666 897.095 666H162.905C151.911 666 143 657.091 143 646.101V127.901C143 116.91 151.912 108 162.905 108ZM897.095 114H162.905C155.225 114 149 120.224 149 127.901V646.101C149 653.777 155.225 660 162.905 660H897.095C904.775 660 911 653.777 911 646.101V127.901C911 120.224 904.775 114 897.095 114Z" fill="#090E2B" blush:i="0.0.2.0.0.2"/><rect id="Rectangle Copy 2" x="227" y="449" width="536" height="25" rx="12.5" fill="white" blush:i="0.0.2.0.0.3"/><rect id="Rectangle Copy 3" x="228" y="532" width="396" height="25" rx="12.5" fill="white" fill-opacity="0.60047" blush:i="0.0.2.0.0.4"/><path id="Path 7" fill-rule="evenodd" clip-rule="evenodd" d="M666.829 325.528L648.843 340.426L648.483 340.722L647.227 341.738C636.745 350.04 629.098 350.746 622.488 345.726C616.859 341.453 612.155 333.677 606.375 320.336L605.803 319.006C605.813 319.031 600.285 305.749 598.734 302.325L598.261 301.291C594.108 292.309 590.612 287.302 585.973 285.21C579.441 282.265 573.083 286.084 566.61 295.795L566.267 296.307C557.292 309.672 551.183 314.819 544.689 316.082L544.485 316.121C542.586 316.474 540.915 316.55 537.265 316.495L535.32 316.461C526.543 316.319 521.37 316.858 513.778 319.399C503.409 322.869 491.765 329.738 477.8 341.123C450.43 363.44 414.966 369.809 383.526 359.275L382.565 358.948C371.384 355.069 361.291 349.242 352.631 341.727L352.178 341.33L353.264 340.617C391.445 315.223 408.472 286.64 404.029 254.706C401.307 235.15 393.916 220.698 383.008 212.44C372.825 204.731 360.195 203.004 348.132 207.29C336.253 211.511 325.919 221.198 319.453 234.492C312.43 248.935 310.258 266.829 313.742 286.565L313.957 287.747C317.775 308.185 326.546 325.787 339.019 339.571L339.359 339.943L338.399 340.515C312.548 355.807 278.056 370.041 234.838 383.173C232.724 383.815 231.532 386.049 232.174 388.163C232.816 390.276 235.05 391.469 237.164 390.827L240.696 389.745C284.03 376.371 318.846 361.745 345.063 345.825L345.155 345.769L345.821 346.379C355.844 355.464 367.728 362.419 380.984 366.861C415.019 378.264 453.353 371.379 482.856 347.324L484.219 346.22C496.867 336.071 507.272 330.012 516.317 326.985C522.704 324.848 527.02 324.356 534.573 324.451L537.263 324.496C541.239 324.554 543.264 324.467 545.674 324.037L546.217 323.935C555.082 322.21 562.664 315.895 572.54 301.314L573.501 299.883C577.933 293.322 580.782 291.645 582.685 292.503C585.049 293.569 587.899 297.792 591.447 305.626L591.67 306.125C593.089 309.329 596.654 317.854 597.958 320.979L598.748 322.854C605.191 337.836 610.47 346.646 617.65 352.098C627.633 359.678 639.513 358.371 653.049 347.322C653.468 346.98 653.963 346.574 654.516 346.12L671.852 331.755C676.772 327.716 680.227 325.021 683.406 322.779L683.93 322.412C691.574 317.095 697.362 314.757 703.946 314.427C711 314.073 719.567 316.011 732.752 320.919L735.717 322.028C741.405 324.172 745.627 325.896 759.307 331.808L786.406 343.573C788.432 344.454 790.788 343.526 791.669 341.5C792.55 339.475 791.622 337.118 789.596 336.237C752.697 320.191 747.221 317.82 738.846 314.658L734.817 313.152C721.098 308.093 711.777 306.024 703.545 306.437C695.105 306.861 687.838 309.863 678.795 316.241C675.437 318.61 671.862 321.397 666.829 325.528ZM350.81 214.829C360.383 211.427 370.187 212.768 378.179 218.818C387.249 225.685 393.657 238.214 396.105 255.809L396.294 257.298C399.55 285.548 383.265 311.53 347.138 335.092L346.282 335.643L345.696 335.017C333.575 321.95 325.122 305.012 321.62 285.174C318.421 267.052 320.386 250.868 326.648 237.991C332.223 226.527 340.975 218.323 350.81 214.829Z" fill="white" blush:i="0.0.2.0.0.5"/></g></g></g></g><g id="Master/Character/Standing [colors]" blush:has-customizable-colors="true" blush:component="Master/Character/Standing [colors]" blush:width="1110" blush:height="1500" transform="translate(249 562) scale(1 1)" blush:i="0.1" blush:value="Standing [colors]" blush:viewBox="-67.5 -172.5 1117.4999999999998 1672.4999999999998"><g id="Master/Character/Standing [colors]" blush:has-customizable-colors="true" blush:viewBox="-67.5 -172.5 1117.4999999999998 1672.4999999999998" blush:i="0.1.0"><g id="Lower Body/Standing" blush:component="Lower Body/Standing" blush:defaultValue="Blob Pant 1" blush:width="1110" blush:height="871" transform="translate(-64 629) scale(1 1)" blush:i="0.1.0.0" blush:value="Skirt 1" blush:viewBox="416.25 -3.3329081632653015 316.3499999999997 877.6658163265307"><g id="Lower Body/Standing/Skirt 1" blush:viewBox="416.25 -3.3329081632653015 316.3499999999997 877.6658163265307" blush:i="0.1.0.0.0"><g id="Group" blush:i="0.1.0.0.0.0"><path id="leg-2" fill-rule="evenodd" clip-rule="evenodd" d="M517 224.87C517 224.87 550.918 340.17 544.314 386.113C537.525 433.336 530.635 485.839 531.892 534.993C533.017 579.041 543.741 677.538 535.657 755.763C534.72 764.832 531.151 784.893 529.663 793.302C521.551 818.371 566.085 847.894 598.162 860.064C617.406 867.366 632.443 851.657 632.443 851.657C632.443 851.657 581.159 799.25 582.635 781.197C586.225 737.266 641.735 506.514 657.026 422.211C663.361 387.276 685 215.318 685 215.318C685 215.318 573.544 173.39 551.687 175.048C534.078 176.383 517 224.87 517 224.87" fill="#ff8282" blush:color="Skin-500" blush:i="0.1.0.0.0.0.0"/><path id="shoe-2" fill-rule="evenodd" clip-rule="evenodd" d="M626.293 845.442C626.293 845.442 629.974 852.688 618.518 852.985C610.35 853.198 596.407 852.919 586.838 846.132C577.268 839.343 528.945 798.54 528.945 793.625C528.945 790.663 524.699 798.869 522.946 804.939C515.089 832.139 533.546 864.68 533.78 871H549.649C549.649 871 553.273 846.779 554.207 844.672C555.141 842.566 583.576 871 599.023 871H654.312C662.155 871 652.84 857.346 626.293 845.442" fill="#090E2B" blush:i="0.1.0.0.0.0.1"/><path id="leg-1" fill-rule="evenodd" clip-rule="evenodd" d="M484 211.538C490.264 284.894 516.6 348.947 514.095 395.269C511.509 443.147 493.388 481.521 495.004 558.34C496.164 613.479 513.689 733.445 505.691 774.225C503.936 783.168 494.492 785.424 492.847 798.256C489.5 824.384 530.887 847.902 563.032 860.065C582.32 867.363 597.389 851.664 597.389 851.664C597.389 851.664 543.47 801.594 546.062 781.667C551.417 740.483 591.769 541.538 603.07 431.236C610.063 362.982 620 213.176 620 213.176C620 213.176 505.61 182.402 484 211.538" fill="#ff8282" blush:color="Skin-500" blush:i="0.1.0.0.0.0.2"/><path id="Fill 8" fill-rule="evenodd" clip-rule="evenodd" d="M593.121 846.845C577.181 833.577 544.358 803.444 544 781.962C546.987 755.742 551.607 729.727 555.844 703.694C568.249 630.365 592.984 503.834 601.388 431.45C609.276 363.501 606.744 294.429 610.673 226.105C610.7 225.467 611.245 224.973 611.888 225.001C612.528 225.031 613.025 225.569 612.999 226.205C609.555 290.229 611.946 368.04 604.46 431.907C596.047 503.67 571.354 631.432 559.106 704.232C554.915 730.556 550.046 756.842 547.304 783.357C549.439 800.593 568.152 819.124 579.565 831.881C584.17 836.727 588.968 841.403 593.955 845.854C594.591 846.339 593.739 847.395 593.121 846.845" fill="#090E2B" blush:i="0.1.0.0.0.0.3"/><path id="shoe-1" fill-rule="evenodd" clip-rule="evenodd" d="M593.411 845.722C593.411 845.722 595.626 852.637 584.102 852.935C575.886 853.149 561.859 852.869 552.231 846.064C542.605 839.258 493.65 797.511 493.65 792.582C493.65 789.612 489.721 798.673 487.958 804.761C480.054 832.034 498.621 864.662 498.855 871H514.82C514.82 871 518.467 846.713 519.406 844.6C520.345 842.488 548.951 871 564.49 871H620.111C628 871 619.937 856.63 593.411 845.722" fill="#090E2B" blush:i="0.1.0.0.0.0.4"/><path id="skirt" fill-rule="evenodd" clip-rule="evenodd" d="M685.55 0C685.55 0 731.015 105.944 732 222.988C649.599 283.926 549.092 255.267 549.092 255.267C549.092 255.267 545.374 218.532 540.303 208.638C534.517 215.576 522.438 251.938 522.438 251.938C522.438 251.938 427.477 241.656 420.389 231.62C413.3 221.583 505.549 0 505.549 0H685.55Z" fill="#001386" blush:i="0.1.0.0.0.0.5"/></g></g></g><g id="Upper Body/Standing" blush:component="Upper Body/Standing" blush:defaultValue="Talking 1" blush:width="906" blush:height="1041" transform="translate(69 -172) scale(1 1)" blush:i="0.1.0.1" blush:value="Mobile Chat 1" blush:viewBox="315.01724137931035 411.19499999999994 380.10344827586215 567.3449999999999"><g id="Upper Body/Standing/Mobile Chat 1" blush:viewBox="315.01724137931035 411.19499999999994 380.10344827586215 567.3449999999999" blush:i="0.1.0.1.0"><path id="Fill 1" fill-rule="evenodd" clip-rule="evenodd" d="M652.278 935.742C652.46 939.213 650.088 951.435 654.997 956.297C663.559 964.774 663.474 972.706 665.9 968.022C666.736 966.407 666.648 964.634 666.433 962.476C665.887 957.014 663.331 954.157 663.063 953.203C666.311 953.098 669.865 955.334 671.39 960.74C672.773 965.642 678.084 974.618 685.124 977.382C692.36 980.22 692.426 977.346 690.404 969.36C688.149 960.451 689.569 952.58 686.586 945.067C684.043 938.662 670.269 924.239 668.398 918.335C662.25 898.948 655.928 875.549 655.928 875.549C655.928 875.549 604.321 868.166 614.609 888.892C625.528 910.886 652.098 932.272 652.278 935.742" fill="#ff8282" blush:color="Skin-500" blush:i="0.1.0.1.0.0"/><path id="Fill 4" fill-rule="evenodd" clip-rule="evenodd" d="M432.656 477.84C426.6 481.727 417.795 483.936 410.054 488.543C402.314 493.151 439.091 510.117 459.21 523.743C487.213 542.708 503.578 543.671 512.973 533.863C522.367 524.055 532 511.226 532 503.025C532 494.824 506.499 492.637 497.133 481.6C491.83 475.351 497.133 429.415 491.83 430.987C486.528 432.559 435.815 401.882 439.633 415.491C447.588 443.84 445.312 469.718 432.656 477.84Z" fill="#ff8282" blush:color="Skin-500" blush:i="0.1.0.1.0.1"/><path id="Fill 7" fill-rule="evenodd" clip-rule="evenodd" d="M589.352 557.57C576.253 536.01 570.503 528.936 559.716 518.628C543.099 502.745 515.462 491.415 515.462 491.415C513.302 505.594 501.995 520.577 491.796 520.667C467.383 520.883 413.261 486 413.261 486C413.261 486 377.69 499.102 354.492 528.562C331.083 558.29 319.967 639.447 351.158 721.745C366.093 761.149 315.86 836.31 342.712 831.662C385.365 824.279 385.387 804.394 476.181 823.049C522.533 832.573 549.576 827.925 563.903 819.504C576.357 863.843 595.983 901.667 601.181 899.943C629.744 890.473 647.864 893.66 660 882.249C635.169 811.958 615.701 754.5 613.122 732.945C603.702 654.227 610.432 592.264 589.352 557.57Z" fill="#FF0057" blush:i="0.1.0.1.0.2"/><g id="Mobile" blush:i="0.1.0.1.0.3"><path id="Fill 9" fill-rule="evenodd" clip-rule="evenodd" d="M545.981 589.891C544.337 562.948 544.835 539.866 546.905 512.275C547.221 508.056 548.947 505.471 552.398 505.304C563.9 504.747 575.082 505.12 586.182 505.144C590.861 505.154 593.035 508.606 593.313 512.828C595.023 538.709 594.913 564.806 592.389 590.443C591.975 594.654 588.533 597.995 585.078 597.954C574.422 597.828 563.768 597.701 553.113 597.574C549.658 597.533 546.416 594.099 545.981 589.891" fill="#090E2B" blush:i="0.1.0.1.0.3.0"/><path id="Fill 11" fill-rule="evenodd" clip-rule="evenodd" d="M572.249 518.228C570.245 518.495 568.404 517.086 568.138 515.082C567.87 513.079 569.278 511.238 571.282 510.97C573.287 510.704 575.128 512.112 575.395 514.116C575.662 516.12 574.254 517.96 572.249 518.228" fill="#FFB201" blush:i="0.1.0.1.0.3.1"/></g><path id="Fill 13" fill-rule="evenodd" clip-rule="evenodd" d="M492 592.046C492 592.046 529.912 569.674 533.927 562.261C535.322 559.684 536.495 551.223 537.423 548.985C543.533 534.236 537.941 530.803 542.564 531.009C551.322 531.397 544.002 545.736 548.731 546.526C553.175 547.267 573.497 542.996 581.855 536.337C589.768 530.033 593.335 562.466 580.635 571.528C564.238 583.226 560.175 580.611 556.708 583.84C548.906 591.111 523.829 633 523.829 633L492 592.046Z" fill="#ff8282" blush:color="Skin-500" blush:i="0.1.0.1.0.4"/><path id="Fill 15" fill-rule="evenodd" clip-rule="evenodd" d="M375.714 752.934C434.685 750.168 538 635.591 538 635.591L502.758 582.821L405.553 641.927C405.553 641.927 426.417 589.065 426.84 578.484C427.105 571.868 382.566 516.477 357.124 526.125C347.367 529.825 331.305 577.686 325.995 605.296C313.34 671.115 316.742 755.698 375.714 752.934Z" fill="#FF0057" blush:i="0.1.0.1.0.5"/><path id="Fill 1" fill-rule="evenodd" clip-rule="evenodd" d="M536.878 631.322C526.105 614.7 514.677 598.509 503.397 582.239C503.002 581.664 502.215 581.493 501.616 581.863C472.009 599.521 438.694 619.711 408.878 637.9C419.129 614.234 428.535 589.42 429.216 563.444C429.24 562.89 428.4 562.846 428.323 563.362C427.187 570.121 425.931 576.858 424.344 583.46C411.192 642.495 382.809 658.427 430.431 628.654C452.667 615.124 479.651 598.589 501.933 584.789C513.459 601.452 526.168 619.316 536.45 635.692C528.366 645.812 516.593 658.892 506.361 669.182C480.776 694.955 453.245 719.358 421.902 737.908C401.173 751.239 377.162 757.296 353.331 748.565C351.231 749.187 359.73 751.92 361.721 752.34C376.578 756.687 393.069 755.827 407.009 748.867C458.019 724.166 499.426 683.091 535.965 640.528C539.345 636.081 540.253 636.267 536.878 631.322" fill="#090E2B" blush:i="0.1.0.1.0.6"/><path id="Fill 19" fill-rule="evenodd" clip-rule="evenodd" d="M560.181 718.018C563.031 740.371 569.464 762.852 574.853 784.852C576.659 793.786 581.569 804.258 573.551 811.909C570.133 815.173 567.081 817.209 563.082 819.761C562.82 819.933 562.079 820.112 562.321 819.91C566.152 816.689 569.221 814.15 571.965 810.596C574.772 807.156 576.369 803.289 574.827 798.932C573.173 791.321 569.153 777.007 567.143 769.313C562.464 751.508 558.909 736.741 556.668 718.423C554.509 699.905 558.095 681.666 560.181 663.464C562.494 645.399 562.317 625.658 556.696 608.224C556.466 607.599 557.493 608.353 558.045 609.601C572.861 645.882 556.965 681.377 560.181 718.018Z" fill="#090E2B" blush:i="0.1.0.1.0.7"/></g></g><g id="Head" blush:component="Head" blush:defaultValue="Long Hair Dark" blush:width="300" blush:height="300" transform="translate(399 26) scale(1 1)" blush:i="0.1.0.2" blush:value="Bald" blush:viewBox="81 76.5 157.49999999999997 189"><g id="Head/Bald" blush:viewBox="81 76.5 157.49999999999997 189" blush:i="0.1.0.2.0"><path id="Fill 1" fill-rule="evenodd" clip-rule="evenodd" d="M231.731 145.493C231.731 171.898 237.188 185.001 237.188 208.838C237.188 248.804 221.518 272.018 166.345 262.272C154.072 260.104 124.584 247.487 115.395 233.501C100.589 210.962 107.043 203.39 101.512 202.639C94.4342 186.916 90.1252 139.689 97.4902 119.222C106.225 94.9499 123.052 79.4789 145.033 77.3539C159.108 75.9937 187.1 74.4834 210.134 97.2388C222.934 109.883 231.731 127.541 231.731 145.493Z" fill="#ff8282" blush:color="Skin-500" blush:i="0.1.0.2.0.0"/><path id="Fill 4" fill-rule="evenodd" clip-rule="evenodd" d="M144.92 256.919C140.63 254.843 132.555 250.431 130.674 247.976C129.694 246.697 132.914 248.214 134.604 249.271C136.853 250.677 145.982 254.607 157.183 258.727C158.154 259.084 164.364 261.077 164.542 261.401C164.709 261.704 164.156 262.303 163.439 262.271C158.622 262.053 149.649 259.206 144.92 256.919Z" fill="#090E2B" blush:i="0.1.0.2.0.1"/><path id="Fill 6" fill-rule="evenodd" clip-rule="evenodd" d="M113.165 205.046C91.6429 212.682 69.4719 175.876 87.8149 165.852C95.6079 161.593 99.6479 164.513 107.62 173.306C114.489 180.883 121.936 201.934 113.165 205.046" fill="#ff8282" blush:color="Skin-500" blush:i="0.1.0.2.0.2"/><path id="Fill 8" fill-rule="evenodd" clip-rule="evenodd" d="M104.076 183.789C101.203 178.021 94.2823 174.447 88.3043 178.483C86.9513 179.396 88.7753 180.021 89.3463 179.957C96.4473 179.028 99.2663 180.969 101.599 185.006C99.3683 185.553 97.1393 187.538 96.8543 189.78C96.6803 191.156 97.1563 195.229 98.2063 193.944C98.9323 193.056 97.3323 186.998 102.621 187.551C102.701 187.569 102.773 187.573 102.848 187.58C103.097 188.178 105.088 189.416 105.943 188.378C106.467 187.744 105.388 186.426 104.076 183.789" fill="#090E2B" blush:i="0.1.0.2.0.3"/></g></g><g id="Expressions" blush:component="Expressions" blush:defaultValue="Calm 1" blush:width="120" blush:height="120" transform="translate(520 159) scale(1 1)" blush:i="0.1.0.3" blush:value="Relaxed" blush:viewBox="22.799999999999997 15.599999999999994 85.80000000000001 91.80000000000001"><g id="Expressions/Relaxed" blush:viewBox="22.799999999999997 15.599999999999994 85.80000000000001 91.80000000000001" blush:i="0.1.0.3.0"><path id="Fill 1" fill-rule="evenodd" clip-rule="evenodd" d="M93.917 85.9778C78.288 85.3498 67.34 84.9098 56.819 84.4878C53.549 84.3558 50.673 90.0738 56.294 97.5688C64.259 108.189 84.891 111.876 93.281 99.0538C97.555 92.5238 97.31 86.1148 93.917 85.9778" fill="white" blush:i="0.1.0.3.0.0"/><path id="nose" fill-rule="evenodd" clip-rule="evenodd" d="M82.7871 55.7084C86.8281 59.4834 96.9611 74.6464 87.8281 76.8394C85.9421 77.2914 77.3211 77.5114 78.5921 75.6374C79.6051 74.1434 85.9771 75.0244 86.8981 72.1854C88.1081 68.4554 83.7121 61.1524 80.9721 56.1434C80.5011 55.2804 82.1521 54.9674 82.7871 55.7084" fill="#090E2B" blush:i="0.1.0.3.0.1"/><path id="eye" fill-rule="evenodd" clip-rule="evenodd" d="M101.14 49.4726C102.716 48.4496 104.002 46.9449 104.812 43.8791C105.442 41.4928 104.117 41.182 103.446 41.8768C103.179 42.1534 102.89 42.5185 102.567 42.9254C101.4 44.4003 99.7974 46.4242 97.2379 46.7697C95.5386 47 93.0129 46.5252 90.427 44.7174C88.7963 43.5795 87.3545 43.558 88.271 45.8261C89.496 48.8593 96.5465 52.4533 101.14 49.4726ZM45.7528 54.7979C53.7067 59.04 63.5732 54.6834 63.3552 47.0155C63.2851 44.5515 61.754 44.5133 60.8831 46.19C58.6542 50.4862 51.8747 54.579 43.8676 49.2316C43.8604 49.2268 43.853 49.2219 43.8454 49.2169C43.2217 48.8006 41.4469 47.6162 40.7587 48.3637C39.6704 49.5454 41.6555 52.6145 45.7528 54.7979Z" fill="#090E2B" blush:i="0.1.0.3.0.2"/><path id="eybrow" fill-rule="evenodd" clip-rule="evenodd" d="M106.892 19.0603C97.9002 11.4322 82.9075 17.8364 81.4786 26.4153C80.9228 29.7588 84.7289 30.4299 86.5262 28.5224C93.1586 21.4848 101.912 23.1875 105.337 23.8539C106.047 23.9919 106.528 24.0854 106.714 24.0478C109.751 23.4369 108.668 20.5673 106.892 19.0603ZM27.9799 30.9433C38.6859 22.6052 49.269 24.8492 60.7363 31.6406C64.9372 32.9563 65.9182 27.4971 62.7947 24.082C55.9812 16.6332 41.7869 15.2534 31.6092 20.0844C28.5028 21.5578 24.6711 25.6739 23.7097 27.9688C22.3602 31.1906 24.1328 33.9401 27.9799 30.9433Z" fill="#090E2B" blush:i="0.1.0.3.0.3"/></g></g><g id="Facial Accesories" blush:component="Facial Accesories" blush:defaultValue="None" blush:width="120" blush:height="110" transform="translate(517 209) scale(120 110)" blush:i="0.1.0.4" blush:value="None" blush:viewBox="1.75 1.75 0 0"><g id="Facial Accesories/None" stroke="none" stroke-width="1" fill="none" fill-rule="evenodd" fill-opacity="0" blush:viewBox="1.75 1.75 0 0" blush:i="0.1.0.4.0"/></g><g id="Glass" blush:component="Glass" blush:defaultValue="None" blush:width="120" blush:height="75" transform="translate(520 164) scale(120 75)" blush:i="0.1.0.5" blush:value="None" blush:viewBox="1.75 1.75 0 0"><g id="Glass/None" stroke="none" stroke-width="1" fill="none" fill-rule="evenodd" fill-opacity="0" blush:viewBox="1.75 1.75 0 0" blush:i="0.1.0.5.0"/></g></g></g><g id="Master/Character/Standing [colors]" blush:has-customizable-colors="true" blush:component="Master/Character/Standing [colors]" blush:width="1110" blush:height="1500" transform="matrix(-1 0 0 1 2970 562) scale(1 1)" blush:i="0.2" blush:value="Standing [colors]" blush:viewBox="-67.5 -172.5 1117.4999999999998 1672.4999999999998"><g id="Master/Character/Standing [colors]" blush:has-customizable-colors="true" blush:viewBox="-67.5 -172.5 1117.4999999999998 1672.4999999999998" blush:i="0.2.0"><g id="Lower Body/Standing" blush:component="Lower Body/Standing" blush:defaultValue="Blob Pant 1" blush:width="1110" blush:height="871" transform="translate(-64 629) scale(1 1)" blush:i="0.2.0.0" blush:value="Blob Pant 2" blush:viewBox="388.5 -3.3329081632653015 505.04999999999984 877.6658163265307"><g id="Lower Body/Standing/Blob Pant 2" blush:viewBox="388.5 -3.3329081632653015 505.04999999999984 877.6658163265307" blush:i="0.2.0.0.0"><g id="leg-1" blush:i="0.2.0.0.0.0"><path id="Fill 1" fill-rule="evenodd" clip-rule="evenodd" d="M561.105 671.039C561.105 671.039 558.461 756.883 564.458 778.62C570.455 800.356 584.25 818.84 595.532 831.69C599.154 835.815 608.668 842.995 609.682 846.402C610.696 849.81 585.869 859.557 568.851 852.264C558.357 847.767 540.163 830.279 526.286 815.868C516.674 805.888 511.66 805.733 511.305 799.351C510.951 792.968 523.983 787.614 522.484 768.876C520.985 750.138 497 681.18 497 671.436C497 661.692 561.105 671.039 561.105 671.039" fill="#b75858" blush:color="Skin-500" blush:i="0.2.0.0.0.0.0"/><path id="Fill 10" fill-rule="evenodd" clip-rule="evenodd" d="M565.232 776.601C562.609 782.693 541.656 778.646 533.017 776.381C529.449 775.325 525.943 774.133 522.496 772.671C521.223 772.168 521.851 769.914 523.14 770.375C535.456 774.789 563.004 776.751 563.004 772.346C563.004 770.398 566.118 774.544 565.232 776.601" fill="#090E2B" blush:i="0.2.0.0.0.0.1"/><path id="shoe-1" fill-rule="evenodd" clip-rule="evenodd" d="M603.459 839.128C603.459 839.128 608.678 849.812 590.91 849.336C574.522 848.897 553.185 836.002 542.902 826.427C519.542 804.673 513.523 800.323 512.362 795.594C506.963 798.059 494.964 821.623 518.157 869.907H535.442L538.786 844.821C538.786 844.821 564.84 869.907 576.141 869.907H624.278C629.714 869.907 632.583 862.078 622.298 851.785C618.251 847.735 612.281 843.936 603.459 839.128" fill="#090E2B" blush:i="0.2.0.0.0.0.2"/></g><path id="Fill 3" fill-rule="evenodd" clip-rule="evenodd" d="M796.474 654.497C796.474 654.497 808.582 743.759 814.362 768.526C820.141 793.295 835.975 824.424 854.098 840.417C862.961 848.238 871.354 854.607 863.923 854.607C856.493 854.607 839.238 856.929 827.679 852.801C816.12 848.673 808.01 842.667 789.022 823.678C770.033 804.689 767.632 806.876 770.934 794.492C774.237 782.107 778.206 782.417 771.871 760.432C767.474 745.171 715.199 660.12 715.199 648.561C715.199 637.004 796.474 654.497 796.474 654.497" fill="#b75858" blush:color="Skin-500" blush:i="0.2.0.0.0.1"/><path id="Fill 14" fill-rule="evenodd" clip-rule="evenodd" d="M685.282 0C685.282 0 724.088 63.4997 772.436 162.529C796.412 211.641 939.627 485.992 816.976 647.042C800.191 669.084 728.705 661.872 728.705 661.872C728.705 661.872 669.437 666.734 621.261 550.02C573.084 433.306 551 0 551 0H685.282Z" fill="#001386" blush:i="0.2.0.0.0.2"/><g id="leg-2" blush:i="0.2.0.0.0.3"><path id="shoe-2" fill-rule="evenodd" clip-rule="evenodd" d="M861.546 846.727C861.546 846.727 863.585 853.094 852.98 853.369C845.419 853.565 832.511 853.308 823.65 847.041C814.791 840.775 770.056 803.106 770.056 798.568C770.056 795.833 766.125 803.41 764.501 809.014C757.229 834.124 774.315 864.166 774.53 870H789.222C789.222 870 792.578 847.64 793.442 845.695C794.307 843.75 820.631 870 834.932 870H886.117C893.378 870 886.439 852.843 861.546 846.727" fill="#090E2B" blush:i="0.2.0.0.0.3.0"/><path id="Fill 8" fill-rule="evenodd" clip-rule="evenodd" d="M815.919 769.636C808.827 780.114 792.901 776.042 783.224 774.037C780.89 773.555 770.623 769.96 773.549 767.452C773.771 767.262 774.889 768.583 776.468 768.88C791.783 771.757 811.962 770.803 813.425 764.709C813.799 763.151 817.022 767.315 815.919 769.636" fill="#090E2B" blush:i="0.2.0.0.0.3.1"/></g><path id="Fill 11" fill-rule="evenodd" clip-rule="evenodd" d="M644.45 431.203C645.771 471.851 649.107 593.431 592.898 656.43C568.559 683.709 538.358 693.498 482.645 679.95C347.794 647.158 400.2 361.43 404.993 340.092C448.58 146.067 489.055 69.799 508.624 0C568.868 0 622.179 0 622.179 0C622.179 0 639.803 288.339 644.45 431.203Z" fill="#001386" blush:i="0.2.0.0.0.4"/><path id="Fill 17" fill-rule="evenodd" clip-rule="evenodd" d="M662.017 356.733C665.701 284.039 663.128 212.506 657.488 139.985C656.494 130.339 654.971 117.158 653.656 107.539C653.523 106.82 654.035 106.285 654.908 109.615C656.751 116.647 658.442 130.086 659.568 139.765C672.95 265.525 674.752 390.18 647.262 514.283C643.406 533.107 639.436 552.988 635.118 571.752C634.34 575.132 632.809 575.448 633.02 574.606C648.284 503.461 658.452 429.45 662.017 356.733Z" fill="#090E2B" blush:i="0.2.0.0.0.5"/></g></g><g id="Upper Body/Standing" blush:component="Upper Body/Standing" blush:defaultValue="Talking 1" blush:width="906" blush:height="1041" transform="translate(69 -172) scale(1 1)" blush:i="0.2.0.1" blush:value="Hands Up 2" blush:viewBox="236.91379310344826 20.819999999999936 484.24137931034477 827.5950000000001"><g id="Upper Body/Standing/Hands Up 2" blush:viewBox="236.91379310344826 20.819999999999936 484.24137931034477 827.5950000000001" blush:i="0.2.0.1.0"><path id="hand-2" fill-rule="evenodd" clip-rule="evenodd" d="M618.806 189.843C618.806 189.843 651.925 118.822 655.081 111.742C667.568 83.7317 658.33 85.8039 661.609 69.8883C665.302 51.9733 659.673 42.8265 661.609 41.6944C672.61 35.2649 674.989 60.7834 676.438 56.0713C681.297 40.2826 690.094 35.1489 695.279 29.3678C702.16 21.6963 713.969 34.8152 717.004 38.3553C723.906 46.4045 720.49 62.3627 717.004 75.5216C709.531 103.731 695.826 99.6121 684.204 122.553C679.929 130.992 670.017 181.426 655.081 231.763C629.412 318.272 593.897 420.032 582.695 420.032C570.244 420.032 532.809 422.211 529.567 420.032C521.865 414.856 618.806 189.843 618.806 189.843Z" fill="#b75858" blush:color="Skin-500" blush:i="0.2.0.1.0.0"/><path id="t-4" fill-rule="evenodd" clip-rule="evenodd" d="M499.588 502.133C495.343 493.907 477.913 476.395 484.451 464.212C490.989 452.031 512.584 460.59 515.793 466.037C534.005 496.959 507.078 516.648 499.588 502.133" fill="#3615F6" blush:i="0.2.0.1.0.1"/><path id="hand-1" fill-rule="evenodd" clip-rule="evenodd" d="M293.859 248.851C293.859 248.851 285.958 123.19 280.436 105.73C274.913 88.2709 272.961 90.3837 257.713 77.6678C240.061 62.946 240.842 54.9801 243.576 53.943C251.386 57.1211 224.267 27.2689 244.955 22.2322C272.243 15.5883 275.214 37.7951 288.625 41.653C290.932 42.3156 284.891 31.6106 290.061 26.3375C295.49 20.7986 295.827 29.6507 298.052 33.2007C304.731 43.8487 309.652 62.7531 309.652 74.4696C309.652 90.0928 348.454 215.337 348.454 215.337C348.454 215.337 389.149 407.118 383.254 413.98C367.549 432.265 340.967 437.514 333.76 440.966C328.344 443.56 293.859 248.851 293.859 248.851Z" fill="#b75858" blush:color="Skin-500" blush:i="0.2.0.1.0.2"/><path id="neck" fill-rule="evenodd" clip-rule="evenodd" d="M446.713 420C446.713 420 445.882 449.599 440.194 465.473C437.002 474.381 421.322 468.288 429.178 486.198C443.521 518.894 502.541 560.914 513.693 550.335C524.842 539.759 542.629 534.779 529.172 502.008C527.435 497.778 497.863 482.511 496.491 477.918C487.92 449.239 498.612 420 498.612 420H446.713Z" fill="#b75858" blush:color="Skin-500" blush:i="0.2.0.1.0.3"/><g id="tshirt" blush:i="0.2.0.1.0.4"><path id="t-3" fill-rule="evenodd" clip-rule="evenodd" d="M564.213 278.529C579.457 240.623 612.287 198.972 609.304 187.518C606.321 176.063 611.306 172.96 615.532 174C623.916 176.063 654.72 190.096 665.007 195.239C675.294 200.383 670.151 206.384 670.151 206.384C670.151 206.384 639.205 293.227 630.479 320.883C609.304 387.992 591.488 437.097 579.155 465.312C564.837 498.067 564.213 537.018 564.213 537.018C564.213 537.018 518.592 535.269 521.299 509C524.435 478.559 493.246 474.069 493.246 457.294C493.246 438.701 548.97 316.434 564.213 278.529Z" fill="#3615F6" blush:i="0.2.0.1.0.4.0"/><path id="t-2" fill-rule="evenodd" clip-rule="evenodd" d="M502.059 529.726C520.352 527.647 513.146 489.112 513.146 489.112C513.146 489.112 537.734 503.204 553.712 506.758C553.712 529.445 589.315 557.127 586.377 604.57C583.44 652.012 564.424 755.157 581.14 781.425C597.857 807.695 593.542 814.147 586.377 823.699C579.213 833.252 531.263 849.01 488.759 842.491C467.515 839.233 408.297 819.529 385.61 824.304C374.824 826.576 359.523 839.253 359.523 827.979C359.523 806.486 384.56 796.974 390.368 657.706C392.709 601.584 361.212 554.493 360.018 538.97C358.824 523.448 362.406 520.462 380.316 500.164C398.228 479.865 406.898 419.885 417.7 440.139C428.502 460.392 445.45 462.996 451.959 501.358C451.959 501.358 493.511 530.698 502.059 529.726Z" fill="#3615F6" blush:i="0.2.0.1.0.4.1"/><path id="t-1" fill-rule="evenodd" clip-rule="evenodd" d="M284 225.693C284 225.693 309.846 200.888 335.775 196.999C361.706 193.109 353.85 201.789 353.85 201.789C353.85 201.789 379.402 375.824 400.146 409.534C420.891 443.243 427.151 456.341 427.151 456.341L363.775 550.17C363.775 550.17 317.77 473.303 315.176 422.739C312.583 372.174 309.315 354.546 304.129 336.394C298.943 318.244 286.593 251.624 284 225.693" fill="#3615F6" blush:i="0.2.0.1.0.4.2"/></g></g></g><g id="Head" blush:component="Head" blush:defaultValue="Long Hair Dark" blush:width="300" blush:height="300" transform="translate(399 26) scale(1 1)" blush:i="0.2.0.2" blush:value="Long Hair Hat Gray" blush:viewBox="-136.5 16.5 439.5 372"><g id="Head/Long Hair Hat Gray" blush:viewBox="-136.5 16.5 439.5 372" blush:i="0.2.0.2.0"><path id="Path 10" fill-rule="evenodd" clip-rule="evenodd" d="M70.2562 97.4989C70.2562 97.4989 48.6944 43.7932 97.6996 26.2653C146.705 8.73743 185.296 17.9742 190.236 59.3052C198.158 125.599 94.9178 158.925 70.2562 97.4989Z" fill="#090E2B" blush:i="0.2.0.2.0.0"/><path id="Fill 1" fill-rule="evenodd" clip-rule="evenodd" d="M146.176 222.265C53.2246 222.265 -22 206.483 -22 143.464C-22 80.4452 31.2017 46.2417 130.855 31.5907C230.508 16.9396 302 13.2005 302 96.4541C302 159.474 239.129 222.265 146.176 222.265Z" fill="#090E2B" blush:i="0.2.0.2.0.1"/><path id="Fill 3" fill-rule="evenodd" clip-rule="evenodd" d="M-106.282 235.5C-66.068 209.611 -17.1446 224.379 8.88736 215.123C51.1954 200.08 45.4882 152.69 85.35 135.013C96.1764 100.832 126.661 83.7612 171.659 83.7612C242.273 83.7612 244.239 140.447 245.971 150C252.336 185.102 239.116 253.488 252.47 276.992C274.888 316.454 264.527 342.215 252.837 351.627C240.235 361.774 203.569 352.484 195.614 345.892C180.433 333.313 165.115 328.377 165.115 286.672C157.189 274.503 156.722 270.9 158.512 256.127C160.666 238.353 162.691 222.274 124.435 215.123C127.545 245.856 132.654 267.017 118.354 282.576C104.054 298.134 89.6971 298.134 72.0618 304C35.0071 316.324 22.5879 420.655 -90.4692 376.973C-151.085 354.33 -146.495 261.389 -106.282 235.5Z" fill="#E3E4E6" blush:i="0.2.0.2.0.2"/><path id="Combined Shape" fill-rule="evenodd" clip-rule="evenodd" d="M232.575 234.655C240.592 218.766 243.748 193.622 234.766 156.81C232.702 148.348 231.768 140.973 230.975 134.711C228.319 113.731 227.245 105.249 190.535 110.271C163.009 114.037 120.164 131.23 112.624 161.39C112.624 161.39 112.49 163.053 112.357 165.813C101.569 153.837 85.3501 166.516 85.3501 176.745C85.3501 199.59 104.018 209.45 115.276 206.801C115.616 207.955 115.99 209.052 116.402 210.081C116.754 210.962 117.114 211.894 117.491 212.87C120.63 220.991 124.935 232.132 135.518 241.803C146.77 252.086 166.782 263.904 198.631 262.784C215.143 262.203 223.139 253.357 232.575 234.655Z" fill="#b75858" blush:color="Skin-500" blush:i="0.2.0.2.0.3"/><path id="Fill 8" fill-rule="evenodd" clip-rule="evenodd" d="M110.261 179.03C107.388 173.262 100.467 169.688 94.4889 173.724C93.1359 174.637 94.9599 175.262 95.5309 175.198C102.632 174.269 105.451 176.21 107.784 180.247C105.553 180.794 103.324 182.779 103.039 185.021C102.865 186.397 103.341 190.47 104.391 189.185C105.117 188.297 103.517 182.239 108.806 182.792C108.886 182.81 108.958 182.814 109.033 182.821C109.282 183.419 111.273 184.657 112.128 183.619C112.652 182.985 111.573 181.667 110.261 179.03" fill="#090E2B" blush:i="0.2.0.2.0.4"/><path id="Fill 9" fill-rule="evenodd" clip-rule="evenodd" d="M184.511 83.8578C156.443 85.8888 116.345 115.898 109.891 137.898C108.798 141.625 109.8 161.009 112.187 165.389C115.364 171.22 115.016 184.517 124.482 186.059C141.169 188.776 124.021 163.956 126.553 157.471C136.096 133.018 166.369 148.55 184.511 143.014C209.354 135.434 218.556 130.045 219.194 129.08C222.416 141.456 239.796 165.149 245.815 169.768C247.773 171.269 245.135 144.379 238.852 122.622C235.05 109.456 211.194 81.9268 184.511 83.8578Z" fill="#E3E4E6" blush:i="0.2.0.2.0.5"/><path id="Fill 11" fill-rule="evenodd" clip-rule="evenodd" d="M107.274 236.091C95.6422 236.091 86.1782 226.627 86.1782 214.995C86.1782 208.848 88.8402 202.929 93.5032 198.914C94.2692 199.697 95.1862 200.566 95.8692 201.149C91.8702 204.593 89.1782 209.722 89.1782 214.995C89.1782 224.973 97.2962 233.091 107.274 233.091C117.252 233.091 125.37 224.973 125.37 214.995C125.37 205.018 117.252 196.9 107.274 196.9C106.446 196.9 105.774 196.228 105.774 195.4C105.774 194.571 106.446 193.9 107.274 193.9C118.906 193.9 128.37 203.363 128.37 214.995C128.37 226.627 118.906 236.091 107.274 236.091" fill="white" blush:i="0.2.0.2.0.6"/><path id="Fill 4" fill-rule="evenodd" clip-rule="evenodd" d="M151.936 254.628C147.843 252.187 139.507 247.655 137.848 245.046C136.983 243.686 140.059 245.478 141.65 246.678C143.768 248.275 152.519 252.985 163.318 258.066C164.255 258.506 170.267 261.033 170.416 261.371C170.556 261.688 169.953 262.236 169.242 262.142C164.462 261.505 156.448 257.319 151.936 254.628Z" fill="#090E2B" blush:i="0.2.0.2.0.7"/></g></g><g id="Expressions" blush:component="Expressions" blush:defaultValue="Calm 1" blush:width="120" blush:height="120" transform="translate(520 159) scale(1 1)" blush:i="0.2.0.3" blush:value="Relaxed" blush:viewBox="22.799999999999997 15.599999999999994 85.80000000000001 91.80000000000001"><g id="Expressions/Relaxed" blush:viewBox="22.799999999999997 15.599999999999994 85.80000000000001 91.80000000000001" blush:i="0.2.0.3.0"><path id="Fill 1" fill-rule="evenodd" clip-rule="evenodd" d="M93.917 85.9778C78.288 85.3498 67.34 84.9098 56.819 84.4878C53.549 84.3558 50.673 90.0738 56.294 97.5688C64.259 108.189 84.891 111.876 93.281 99.0538C97.555 92.5238 97.31 86.1148 93.917 85.9778" fill="white" blush:i="0.2.0.3.0.0"/><path id="nose" fill-rule="evenodd" clip-rule="evenodd" d="M82.7871 55.7084C86.8281 59.4834 96.9611 74.6464 87.8281 76.8394C85.9421 77.2914 77.3211 77.5114 78.5921 75.6374C79.6051 74.1434 85.9771 75.0244 86.8981 72.1854C88.1081 68.4554 83.7121 61.1524 80.9721 56.1434C80.5011 55.2804 82.1521 54.9674 82.7871 55.7084" fill="#090E2B" blush:i="0.2.0.3.0.1"/><path id="eye" fill-rule="evenodd" clip-rule="evenodd" d="M101.14 49.4726C102.716 48.4496 104.002 46.9449 104.812 43.8791C105.442 41.4928 104.117 41.182 103.446 41.8768C103.179 42.1534 102.89 42.5185 102.567 42.9254C101.4 44.4003 99.7974 46.4242 97.2379 46.7697C95.5386 47 93.0129 46.5252 90.427 44.7174C88.7963 43.5795 87.3545 43.558 88.271 45.8261C89.496 48.8593 96.5465 52.4533 101.14 49.4726ZM45.7528 54.7979C53.7067 59.04 63.5732 54.6834 63.3552 47.0155C63.2851 44.5515 61.754 44.5133 60.8831 46.19C58.6542 50.4862 51.8747 54.579 43.8676 49.2316C43.8604 49.2268 43.853 49.2219 43.8454 49.2169C43.2217 48.8006 41.4469 47.6162 40.7587 48.3637C39.6704 49.5454 41.6555 52.6145 45.7528 54.7979Z" fill="#090E2B" blush:i="0.2.0.3.0.2"/><path id="eybrow" fill-rule="evenodd" clip-rule="evenodd" d="M106.892 19.0603C97.9002 11.4322 82.9075 17.8364 81.4786 26.4153C80.9228 29.7588 84.7289 30.4299 86.5262 28.5224C93.1586 21.4848 101.912 23.1875 105.337 23.8539C106.047 23.9919 106.528 24.0854 106.714 24.0478C109.751 23.4369 108.668 20.5673 106.892 19.0603ZM27.9799 30.9433C38.6859 22.6052 49.269 24.8492 60.7363 31.6406C64.9372 32.9563 65.9182 27.4971 62.7947 24.082C55.9812 16.6332 41.7869 15.2534 31.6092 20.0844C28.5028 21.5578 24.6711 25.6739 23.7097 27.9688C22.3602 31.1906 24.1328 33.9401 27.9799 30.9433Z" fill="#090E2B" blush:i="0.2.0.3.0.3"/></g></g><g id="Facial Accesories" blush:component="Facial Accesories" blush:defaultValue="None" blush:width="120" blush:height="110" transform="translate(517 209) scale(120 110)" blush:i="0.2.0.4" blush:value="None" blush:viewBox="1.75 1.75 0 0"><g id="Facial Accesories/None" stroke="none" stroke-width="1" fill="none" fill-rule="evenodd" fill-opacity="0" blush:viewBox="1.75 1.75 0 0" blush:i="0.2.0.4.0"/></g><g id="Glass" blush:component="Glass" blush:defaultValue="None" blush:width="120" blush:height="75" transform="translate(520 164) scale(120 75)" blush:i="0.2.0.5" blush:value="None" blush:viewBox="1.75 1.75 0 0"><g id="Glass/None" stroke="none" stroke-width="1" fill="none" fill-rule="evenodd" fill-opacity="0" blush:viewBox="1.75 1.75 0 0" blush:i="0.2.0.5.0"/></g></g></g></g></svg>