<svg viewBox="0 -40 3000 2119.9999999999995" fill="none" xmlns="http://www.w3.org/2000/svg" xmlns:xlink="http://www.w3.org/1999/xlink" xmlns:blush="http://design.blush" overflow="visible" width="3000px" height="2119.9999999999995px"><g id="Master/Scenes/Online Meeting" blush:has-customizable-colors="true" blush:viewBox="0 -7.999999999999773 3199.999999999999 2416.0000000000005" blush:i="0"><g id="Master/Scenes/Keeping in Touch" blush:has-customizable-colors="true" blush:component="Master/Scenes/Keeping in Touch" blush:width="3200" blush:height="2400" transform="matrix(-1 0 0 1 3200 0) scale(1 1)" blush:i="0.0" blush:value="Keeping in Touch" blush:viewBox="208 -7.999999999999773 2975.999999999999 2080"><g id="Master/Scenes/Keeping in Touch" blush:has-customizable-colors="true" blush:viewBox="208 -7.999999999999773 2975.999999999999 2080" blush:i="0.0.0"><g id="Background" blush:i="0.0.0.0"><path id="Bricks" fill-rule="evenodd" clip-rule="evenodd" d="M1016.48 1609C1016.48 1607.34 1015.14 1606 1013.48 1606L868.53 1606L868.354 1606.01C866.779 1606.1 865.53 1607.4 865.53 1609L865.535 1609.18C865.626 1610.75 866.932 1612 868.53 1612H927.202V1671.46L842.84 1671.46L842.664 1671.47C841.089 1671.56 839.84 1672.86 839.84 1674.46C839.84 1675.04 840.001 1675.57 840.28 1676.03V1738.36C840.001 1738.82 839.84 1739.35 839.84 1739.93L839.845 1740.1C839.936 1741.68 841.242 1742.93 842.84 1742.93L927.202 1742.93V1802.38L842.84 1802.39L842.664 1802.39C841.089 1802.48 839.84 1803.79 839.84 1805.39C839.84 1807.04 841.183 1808.39 842.84 1808.39L1031.16 1808.39L1031.34 1808.38C1032.91 1808.29 1034.16 1806.98 1034.16 1805.39L1034.15 1805.21C1034.06 1803.64 1032.76 1802.39 1031.16 1802.39L933.202 1802.39V1742.93L1100.4 1742.93L1100.58 1742.92C1102.16 1742.83 1103.4 1741.52 1103.4 1739.93C1103.4 1738.27 1102.06 1736.93 1100.4 1736.93L1016.48 1736.93V1677.46L1060.65 1677.46L1060.83 1677.46C1062.4 1677.37 1063.65 1676.06 1063.65 1674.46L1063.65 1674.29C1063.55 1672.71 1062.25 1671.46 1060.65 1671.46L933.202 1671.46V1612L1013.48 1612L1013.66 1612C1015.24 1611.9 1016.48 1610.6 1016.48 1609ZM846.281 1677.46H1010.48V1736.93H846.281V1677.46Z" fill="black" fill-opacity="0.08" blush:i="0.0.0.0.0"/><path id="Window" opacity="0.5" fill-rule="evenodd" clip-rule="evenodd" d="M2465 210.152H2099.32V727.528H2465V210.152ZM2099.32 770.244V1244.07H2465V770.244H2099.32ZM2507.16 1244.07H2872.84V770.244H2507.16V1244.07ZM2872.84 727.528V210.152H2507.16V727.528H2872.84Z" fill="#F0F1FF" blush:i="0.0.0.0.1"/><path id="Fill 17" fill-rule="evenodd" clip-rule="evenodd" d="M2313.48 387.003H2117C2117 387.003 2131.4 327.991 2182.22 327.991C2219.87 327.991 2239.4 351.803 2247.01 364.143C2261.86 358.335 2293.84 351.283 2313.48 387.003" fill="white" blush:i="0.0.0.0.2"/><path id="Fill 18" fill-rule="evenodd" clip-rule="evenodd" d="M2608.31 1000.52C2613.35 1000.52 2618.07 1001.89 2622.17 1004.26C2630.01 990.591 2644.46 981.395 2661.05 981.395C2676.53 981.395 2690.19 989.399 2698.31 1001.58C2702.59 986.903 2715.86 976.199 2731.58 976.199C2749.42 976.199 2764.11 989.987 2766.08 1007.73C2767.52 1007.5 2768.98 1007.34 2770.48 1007.34C2781.36 1007.34 2790.79 1013.64 2795.53 1022.87H2580.78C2583.72 1010.07 2594.91 1000.52 2608.31 1000.52" fill="white" blush:i="0.0.0.0.3"/><path id="Window Frame" fill-rule="evenodd" clip-rule="evenodd" d="M2044.34 165.572H2927.34V1295.57H2044.34V165.572ZM2920.34 1288.57V172.571H2051.34V1288.57H2920.34Z" fill="black" fill-opacity="0.08" blush:i="0.0.0.0.4"/><path id="Bricks_2" fill-rule="evenodd" clip-rule="evenodd" d="M1962.48 806.001C1962.48 804.344 1961.14 803.001 1959.48 803.001L1814.53 803L1814.35 803.005C1812.78 803.096 1811.53 804.402 1811.53 806L1811.54 806.176C1811.63 807.751 1812.93 809 1814.53 809H1873.2V868.461L1706 868.462L1705.82 868.467C1704.25 868.558 1703 869.864 1703 871.462C1703 873.119 1704.34 874.462 1706 874.462L1786.28 874.461V933.925L1739.96 933.926L1739.78 933.931C1738.21 934.022 1736.96 935.328 1736.96 936.926L1736.96 937.102C1737.05 938.677 1738.36 939.926 1739.96 939.926L1873.2 939.925V999.385L1739.96 999.386L1739.78 999.391C1738.21 999.482 1736.96 1000.79 1736.96 1002.39C1736.96 1004.04 1738.3 1005.39 1739.96 1005.39L1786.28 1005.38L1786.28 1067.85L1786.29 1068.03C1786.38 1069.6 1787.69 1070.85 1789.28 1070.85H1876.2L1876.38 1070.84C1877.95 1070.75 1879.2 1069.45 1879.2 1067.85L1879.2 1067.67C1879.11 1066.1 1877.8 1064.85 1876.2 1064.85L1792.28 1064.85V1005.39L2046.4 1005.39L2046.58 1005.38C2048.16 1005.29 2049.4 1003.98 2049.4 1002.39L2049.4 1002.21C2049.31 1000.64 2048 999.387 2046.4 999.387L1879.2 999.386V939.926L2046.4 939.927L2046.58 939.922C2048.16 939.83 2049.4 938.524 2049.4 936.927C2049.4 935.27 2048.06 933.927 2046.4 933.927L1962.48 933.926V874.462L2046.4 874.463L2046.58 874.458C2048.16 874.366 2049.4 873.06 2049.4 871.463L2049.4 871.287C2049.31 869.712 2048 868.463 2046.4 868.463L1879.2 868.462V809L1959.48 809.001L1959.66 808.996C1961.24 808.904 1962.48 807.598 1962.48 806.001ZM1792.28 874.463H1956.48V933.925H1792.28V874.463Z" fill="black" fill-opacity="0.08" blush:i="0.0.0.0.5"/><path id="Bricks_3" fill-rule="evenodd" clip-rule="evenodd" d="M3097.48 205.001C3097.48 203.344 3096.14 202.001 3094.48 202.001L2949.53 202L2949.35 202.005C2947.78 202.096 2946.53 203.402 2946.53 205L2946.53 205.176C2946.63 206.751 2947.93 208 2949.53 208H3008.2V267.461L2923.84 267.462L2923.66 267.467C2922.09 267.558 2920.84 268.864 2920.84 270.462C2920.84 271.036 2921 271.572 2921.28 272.028V334.36C2921 334.816 2920.84 335.352 2920.84 335.926L2920.84 336.102C2920.94 337.677 2922.24 338.926 2923.84 338.926L3008.2 338.925L3008.2 398.385L2923.84 398.386L2923.66 398.391C2922.09 398.482 2920.84 399.788 2920.84 401.386C2920.84 403.042 2922.18 404.386 2923.84 404.386L3112.16 404.387L3112.34 404.382C3113.91 404.29 3115.16 402.984 3115.16 401.387L3115.15 401.21C3115.06 399.636 3113.76 398.387 3112.16 398.387L3014.2 398.386V338.926L3181.4 338.927L3181.58 338.922C3183.16 338.83 3184.4 337.524 3184.4 335.927C3184.4 334.27 3183.06 332.927 3181.4 332.927L3097.48 332.926V273.462L3141.65 273.463L3141.83 273.458C3143.4 273.366 3144.65 272.06 3144.65 270.463L3144.65 270.287C3144.55 268.712 3143.25 267.463 3141.65 267.463L3014.2 267.462V208L3094.48 208.001L3094.66 207.996C3096.24 207.904 3097.48 206.598 3097.48 205.001ZM2927.28 273.463H3091.48V332.925H2927.28V273.463Z" fill="black" fill-opacity="0.08" blush:i="0.0.0.0.6"/><g id="Lamp" blush:i="0.0.0.0.7"><path id="Fill 5" fill-rule="evenodd" clip-rule="evenodd" d="M1043 621.003C1043 640.88 1026.88 657 1007 657C987.115 657 971 640.88 971 621.003C971 601.12 987.115 585 1007 585C1026.88 585 1043 601.12 1043 621.003" fill="white" blush:i="0.0.0.0.7.0"/><path id="Fill 3" fill-rule="evenodd" clip-rule="evenodd" d="M1005 490H1010V0H1005V490Z" fill="#090E2B" blush:i="0.0.0.0.7.1"/><path id="Fill 1" fill-rule="evenodd" clip-rule="evenodd" d="M998.508 462.266C980.684 497.568 930.939 573.424 814.342 627.373C810.46 629.172 811.684 635 815.957 635H1198.04C1202.32 635 1203.54 629.172 1199.65 627.373C1083.06 573.424 1033.32 497.568 1015.49 462.266C1011.94 455.245 1002.06 455.245 998.508 462.266" fill="#0084FF" blush:i="0.0.0.0.7.2"/></g><g id="Medium Plants" blush:component="Medium Plants" blush:defaultValue="Plant 2" blush:width="845" blush:height="800" transform="translate(2111 1253) scale(1 1)" blush:i="0.0.0.0.8" blush:value="Plant 4" blush:viewBox="92.94999999999993 144.18604651162786 663.3250000000002 655.3911205073997"><g id="Medium Plants/Plant 4" blush:viewBox="92.94999999999993 144.18604651162786 663.3250000000002 655.3911205073997" blush:i="0.0.0.0.8.0"><g id="Group 16" blush:i="0.0.0.0.8.0.0"><path id="Fill 1" fill-rule="evenodd" clip-rule="evenodd" d="M756.51 242.475C756.51 242.475 748.896 301.099 635.282 372.111C604.264 391.427 589.95 411.763 579.268 430.623C569.044 433.917 553.706 438.121 544.388 437.439C544.388 437.439 558.364 441.417 573.474 441.417C558.818 469.253 544.17 492.431 489.522 501.747C489.522 501.747 431.88 467.167 476.902 367.567C488.718 377.791 504.056 397.105 504.056 397.105C502.238 382.223 488.604 365.181 481.788 357.453C481.9 357.341 481.9 357.227 482.014 357.113C515.078 295.081 578.702 292.921 639.94 289.173C639.258 297.465 637.214 309.851 631.874 319.393C631.874 319.393 648.12 307.123 653.12 288.263C663.23 287.581 673.23 286.673 683 285.309C711.176 281.445 741.172 265.881 756.51 242.475" fill="#009BA0" blush:i="0.0.0.0.8.0.0.0"/><path id="Fill 3" d="M104.391 257.375C119.961 255.077 138.365 254.708 158.723 257.49C186.781 261.325 215.021 270.762 242.555 287.024C242.887 287.22 243.073 287.587 243.043 287.964L243.025 288.09L235.939 321.971L251.743 293.968C252.008 293.499 252.589 293.33 253.058 293.563L253.164 293.624C262.811 299.972 272.331 307.262 281.817 315.593C317.398 346.763 339.34 378.773 350.182 410.377C357.612 432.035 359.047 450.791 357.048 465.395C356.965 466.005 356.878 466.577 356.79 467.109L356.657 467.878L356.522 468.587L356.387 469.234L356.27 469.734L356.231 469.848L356.192 469.931L356.135 470.028L356.067 470.117L355.991 470.196L355.937 470.243L355.839 470.314L355.734 470.371L355.723 470.375C355.685 470.394 355.651 470.407 355.616 470.418L355.51 470.446L355.399 470.463L355.286 470.467L355.157 470.456L355.04 470.431L354.926 470.392L354.842 470.353L354.746 470.296L354.71 470.27C350.526 467.159 346.28 464.451 341.848 462.036L340.822 461.483L339.861 460.978C339.701 460.895 339.541 460.812 339.382 460.73L338.423 460.242L337.463 459.763C337.303 459.684 337.143 459.606 336.982 459.528L336.016 459.063L335.042 458.605L334.06 458.154C333.895 458.079 333.73 458.005 333.565 457.931L332.564 457.488C332.397 457.414 332.228 457.341 332.059 457.268L331.036 456.83L329.995 456.396L328.933 455.962C328.754 455.89 328.575 455.818 328.394 455.746L327.298 455.313C327.113 455.241 326.928 455.169 326.741 455.097L325.605 454.662L324.441 454.225L323.245 453.784L322.016 453.34L320.104 452.662L318.781 452.201L317.417 451.733L315.289 451.014L313.812 450.521L300.81 446.227L296.409 444.749L293.321 443.692L290.319 442.634L288.165 441.849L286.409 441.187L284.967 440.627L283.089 439.871L282.094 439.46L281.031 439.013L279.945 438.548L278.825 438.063L277.662 437.552L275.811 436.731L275.161 436.441C259.668 429.514 244.417 420.555 227.881 408.188C227.381 407.814 227.349 407.089 227.784 406.67L227.884 406.585L248.071 391.581L222.318 403.14C222.025 403.271 221.69 403.253 221.416 403.098L221.302 403.023L220.2 402.173L218.74 401.019L217.435 399.968L215.948 398.756C208.317 392.489 200.44 385.063 192.559 376.879L190.808 375.047C187.889 371.975 184.973 368.803 182.07 365.551L180.33 363.59C180.041 363.262 179.751 362.933 179.462 362.603L177.728 360.616C177.44 360.283 177.152 359.95 176.863 359.616L175.137 357.604L173.417 355.576L171.704 353.535C171.418 353.193 171.134 352.851 170.849 352.509L169.146 350.448C168.863 350.103 168.58 349.758 168.297 349.412L166.606 347.334C166.325 346.987 166.044 346.639 165.764 346.291L164.086 344.197L162.418 342.094C162.141 341.743 161.864 341.392 161.587 341.04L159.935 338.926C159.386 338.22 158.838 337.513 158.293 336.805L156.663 334.679L155.045 332.549C154.777 332.193 154.509 331.838 154.241 331.482L152.643 329.347C152.378 328.99 152.113 328.634 151.849 328.278L150.272 326.14C149.749 325.427 149.228 324.714 148.709 324.001L147.162 321.862L145.63 319.725L144.115 317.591L142.757 315.686L141.409 313.813C141.185 313.504 140.962 313.195 140.739 312.888L139.408 311.061L138.087 309.264L136.778 307.497L135.479 305.761L134.192 304.055L132.915 302.378L131.65 300.732L130.395 299.115L129.152 297.527L127.92 295.969L126.698 294.44C126.496 294.188 126.294 293.937 126.092 293.687L124.888 292.201L123.694 290.745C123.496 290.504 123.299 290.265 123.102 290.027L121.925 288.613L120.76 287.228C120.567 287 120.374 286.772 120.182 286.546L119.033 285.204L117.896 283.889L116.77 282.602L115.655 281.344L114.552 280.113L113.46 278.909L112.379 277.733L111.31 276.584C111.133 276.395 110.956 276.207 110.78 276.02L109.727 274.912L108.687 273.83L107.657 272.776C107.487 272.602 107.316 272.43 107.147 272.258L106.111 271.221C105.77 270.882 105.434 270.55 105.102 270.226L104.121 269.273C103.798 268.963 103.48 268.659 103.166 268.363L102.239 267.494L101.338 266.666C101.191 266.532 101.044 266.399 100.898 266.268L100.039 265.501L99.2071 264.774L98.4025 264.087C98.2707 263.975 98.1401 263.866 98.0106 263.758L97.2829 263.158L96.6345 262.636C96.5306 262.554 96.4287 262.473 96.3288 262.395L95.7545 261.952C95.6629 261.883 95.5734 261.815 95.4859 261.75L94.9602 261.364L94.574 261.093L94.4576 261.015C93.729 260.544 93.9045 259.433 94.7427 259.209L95.3946 259.047L96.2565 258.848L96.9103 258.705L97.2606 258.631C97.7707 258.523 98.3022 258.416 98.8549 258.31L99.9882 258.097L101.177 257.887L102.422 257.679L103.721 257.475C103.942 257.441 104.165 257.408 104.391 257.375Z" fill="#017C7F" blush:i="0.0.0.0.8.0.0.1"/><path id="Fill 5" fill-rule="evenodd" clip-rule="evenodd" d="M425.476 500.758C425.476 500.758 371.894 484.878 334.03 416.386C346.928 412.642 355.25 403.988 355.25 403.988C346.096 406.568 329.452 407.65 329.452 407.65C250.686 308.722 290.412 144 290.412 144C299.15 165.72 342.584 196.79 377.784 242.474C372.958 246.72 355.988 263.918 351.744 270.658C351.744 270.658 370.814 256.03 380.966 251.118C413.256 293.392 437.626 345.97 446.946 387.414C467.252 478.29 425.476 500.758 425.476 500.758" fill="#009BA0" blush:i="0.0.0.0.8.0.0.2"/><path id="Fill 7" fill-rule="evenodd" clip-rule="evenodd" d="M307.222 204.438C320.284 240.12 334.03 275.57 349.004 310.488C356.54 327.92 364.332 345.262 373.168 362.048C374.292 364.136 375.348 366.262 376.526 368.314L380.104 374.45C382.468 378.544 384.994 382.608 387.43 386.688C392.162 394.948 396.818 403.266 400.884 411.89C409.214 429.026 415.73 447.09 420.016 465.68C422.192 474.966 423.852 484.356 425.376 493.74C426.162 498.422 426.874 503.132 427.52 507.866C428.092 512.594 428.66 517.322 429.122 522.058C431.054 540.988 432.418 559.954 433.742 578.92C435.032 597.89 436.176 616.864 437.192 635.852C437.23 636.542 436.7 637.13 436.012 637.166C435.322 637.204 434.734 636.674 434.696 635.984V635.978C433.746 617.004 432.666 598.032 431.444 579.072C430.186 560.118 428.888 541.158 427.024 522.268C426.58 517.544 426.032 512.834 425.478 508.126C424.854 503.442 424.164 498.754 423.392 494.06C421.904 484.684 420.284 475.34 418.154 466.112C413.964 447.64 407.562 429.704 399.338 412.63C395.326 404.042 390.718 395.744 386.034 387.502C383.612 383.416 381.134 379.398 378.76 375.256L375.178 369.064C373.998 366.994 372.946 364.858 371.826 362.758C363.014 345.874 355.272 328.486 347.79 311.008C332.92 276.004 319.294 240.5 306.348 204.75C306.26 204.51 306.386 204.244 306.626 204.156C306.868 204.068 307.136 204.196 307.222 204.438" fill="black" blush:i="0.0.0.0.8.0.0.3"/><path id="Fill 9" fill-rule="evenodd" clip-rule="evenodd" d="M152.687 283.442L247.419 349.072C263.221 360.03 278.265 372.102 292.363 385.192C295.941 388.408 299.315 391.842 302.785 395.174C306.111 398.65 309.567 402.004 312.767 405.602C319.359 412.618 325.473 420.07 331.367 427.684C337.193 435.358 342.543 443.392 347.429 451.712C352.135 460.134 356.355 468.846 359.415 478.054C360.189 480.342 360.775 482.682 361.465 484.994C362.093 487.32 362.879 489.614 363.371 491.97C364.421 496.668 365.679 501.328 366.555 506.06C368.493 515.488 370.123 524.972 371.599 534.474C377.361 572.512 380.867 610.814 383.359 649.188C383.403 649.876 382.881 650.472 382.193 650.516C381.503 650.56 380.909 650.038 380.863 649.348V649.344V649.324C378.525 611.036 375.165 572.734 369.565 534.782C368.131 525.302 366.541 515.842 364.647 506.45C363.793 501.734 362.561 497.106 361.535 492.428C361.055 490.078 360.285 487.816 359.673 485.504C358.999 483.214 358.425 480.886 357.671 478.626C354.701 469.568 350.559 460.924 345.929 452.566C341.119 444.304 335.841 436.308 330.079 428.658C324.247 421.068 318.195 413.63 311.657 406.62C308.489 403.026 305.059 399.672 301.759 396.198C298.315 392.866 294.967 389.432 291.415 386.214C277.413 373.112 262.469 361.024 246.745 350.032L152.271 284.042C152.105 283.928 152.063 283.7 152.179 283.534C152.293 283.368 152.521 283.326 152.687 283.442" fill="black" blush:i="0.0.0.0.8.0.0.4"/><path id="Fill 11" fill-rule="evenodd" clip-rule="evenodd" d="M707.017 298.895C674.843 319.235 642.481 339.275 610.191 359.435L586.009 374.555C578.109 379.679 570.695 385.627 563.543 391.821C556.349 397.985 549.651 404.705 543.091 411.533C539.943 415.073 536.629 418.465 533.661 422.159L529.105 427.605L524.785 433.241C518.985 440.729 513.863 448.697 509.009 456.811C507.849 458.867 506.775 460.973 505.653 463.053C504.587 465.159 503.337 467.179 502.419 469.355L499.519 475.817L498.075 479.049L496.871 482.375L494.463 489.027C493.623 491.235 493.171 493.559 492.505 495.819C491.903 498.099 491.247 500.353 490.685 502.655L489.151 509.619L483.163 537.517C475.401 574.763 467.969 612.091 460.941 649.483C460.815 650.161 460.165 650.611 459.485 650.487C458.807 650.361 458.357 649.707 458.481 649.027C465.441 611.595 472.649 574.215 480.521 536.961L486.541 509.043L488.087 502.073C488.653 499.753 489.327 497.437 489.941 495.117C490.621 492.817 491.091 490.445 491.943 488.203L494.399 481.437L495.629 478.055L497.097 474.773L500.051 468.217C500.985 466.007 502.251 463.963 503.335 461.829C504.475 459.721 505.565 457.587 506.743 455.505C511.665 447.293 516.859 439.237 522.723 431.677L527.095 425.991L531.699 420.495C534.701 416.771 538.047 413.349 541.225 409.781C547.851 402.899 554.613 396.127 561.881 389.911C569.115 383.665 576.585 377.675 584.663 372.445C592.765 367.347 600.883 362.467 608.993 357.467C641.455 337.603 673.847 317.621 706.423 297.939C706.689 297.777 707.035 297.861 707.197 298.127C707.357 298.389 707.275 298.731 707.017 298.895" fill="black" blush:i="0.0.0.0.8.0.0.5"/><g id="Group 15" blush:i="0.0.0.0.8.0.0.6"><path id="Fill 13" fill-rule="evenodd" clip-rule="evenodd" d="M383.759 799.09H462.125C490.029 799.09 513.367 795.884 516.033 768.108L535.001 570.494H310.883L329.849 768.108C332.515 795.884 355.853 799.09 383.759 799.09" fill="#F0F1FF" blush:i="0.0.0.0.8.0.0.6.0"/></g></g></g></g><g id="Table" blush:i="0.0.0.0.9"><rect id="Rectangle" x="545" y="1458.05" width="1057" height="40" rx="13" fill="#F0F1FF" blush:i="0.0.0.0.9.0"/><rect id="Rectangle Copy 3" x="545" y="1458.05" width="369" height="40" rx="13" fill="#BACCFF" blush:i="0.0.0.0.9.1"/><rect id="Rectangle_2" x="1273" y="1498.05" width="239" height="552" fill="#C7D2F2" blush:i="0.0.0.0.9.2"/><rect id="Rectangle Copy 2" x="631" y="1498.05" width="239" height="552" fill="#C7D2F2" blush:i="0.0.0.0.9.3"/></g><g id="Monitor" blush:i="0.0.0.0.10"><rect id="Rectangle_3" x="791" y="936.053" width="619" height="441" rx="20" fill="#FFB201" blush:i="0.0.0.0.10.0"/><rect id="Rectangle Copy 5" x="817" y="960.053" width="569" height="356" fill="white" blush:i="0.0.0.0.10.1"/><g id="Character" blush:i="0.0.0.0.10.2"><rect id="Mask" x="817" y="960.053" width="569" height="356" fill="#FBFDFF" blush:i="0.0.0.0.10.2.0"/><mask id="mask0_705_12402ea0d1343-c7ea-424d-9755-1ced17c76534" style="mask-type:luminance" maskUnits="userSpaceOnUse" x="817" y="960" width="569" height="357" blush:i="0.0.0.0.10.2.1" fill="#ffffff"><rect id="Mask_2" x="817" y="960.053" width="569" height="356" fill="#ffffff" blush:i="0.0.0.0.10.2.1.0"/></mask><g mask="url(#mask0_705_12402ea0d1343-c7ea-424d-9755-1ced17c76534)" blush:i="0.0.0.0.10.2.2"><g id="Character 1" blush:i="0.0.0.0.10.2.2.0"><path id="neck" fill-rule="evenodd" clip-rule="evenodd" d="M1129.87 1173.72C1129.87 1173.72 1123.15 1215.89 1129.66 1228.46C1134.84 1238.47 1165.42 1252.16 1165.42 1252.16L1170.9 1281.54L1057.37 1293.2C1044.23 1290.28 996.674 1278.1 1011.85 1259.05C1027.03 1240 1059.19 1234.75 1064.41 1226.31C1074.45 1210.1 1076.28 1177.15 1076.01 1164.7C1076.01 1161.61 1129.87 1173.72 1129.87 1173.72" fill="#09B9C6" blush:i="0.0.0.0.10.2.2.0.0"/><g id="t-shirt" blush:i="0.0.0.0.10.2.2.0.1"><path id="T-Shirt" fill-rule="evenodd" clip-rule="evenodd" d="M1150.73 1243.91C1148.41 1248.2 1137.57 1268.37 1124.58 1269.78C1105.44 1271.85 1078.2 1258.05 1058.33 1247.99C1048.66 1243.09 1040.74 1239.08 1036.34 1238.21C1034.11 1237.77 1000.97 1248.02 980.031 1265.35C973.762 1270.54 955.754 1287.98 959.073 1313.08C959.506 1316.36 957.328 1327.58 954.746 1340.88C950.692 1361.75 945.644 1387.75 948.146 1396.2C955.628 1421.46 985.101 1422.96 1019.56 1424.46C1088.31 1427.44 1151.44 1425.46 1175.38 1424.71C1180.22 1424.56 1183.47 1424.46 1184.82 1424.46C1221.49 1424.46 1234.87 1424.46 1247.03 1405.8C1231.98 1367 1214.93 1319.04 1212.29 1306.23C1205.9 1275.14 1187.1 1263.6 1180.15 1259.34C1180.04 1259.27 1179.94 1259.2 1179.83 1259.14C1179.3 1258.79 1178.75 1258.44 1178.21 1258.09C1178.11 1258.03 1178.03 1257.96 1177.95 1257.9C1177.95 1257.91 1177.95 1257.92 1177.95 1257.93C1165.74 1250.18 1151.47 1242.74 1151.17 1243.11C1151.12 1243.17 1150.97 1243.45 1150.73 1243.91Z" fill="#FF0057" blush:i="0.0.0.0.10.2.2.0.1.0"/><path id="Fill 15" fill-rule="evenodd" clip-rule="evenodd" d="M1202.54 1340.81C1204.93 1350.34 1204.96 1358.37 1204.5 1368.15C1203.35 1385.46 1200.77 1384.16 1196.68 1404.93C1194.59 1415.51 1193.43 1421.94 1192.76 1423.6C1191.86 1425.86 1192.13 1419.52 1194.65 1404.57C1197.16 1387.57 1199.79 1389.47 1201.41 1372.49C1203.03 1355.51 1202.46 1353.14 1199.72 1340.58C1197.24 1329.52 1193.36 1319.69 1190.04 1308.82C1189.85 1307.3 1186 1297.81 1187.95 1299.22C1192.48 1313.09 1198.89 1326.65 1202.54 1340.81Z" fill="#090E2B" blush:i="0.0.0.0.10.2.2.0.1.1"/><path id="Fill 17_2" fill-rule="evenodd" clip-rule="evenodd" d="M1043.74 1312.48C1040.65 1339.81 1036.06 1366.96 1030.06 1393.8C1029.16 1395.96 1022.32 1425.46 1022.01 1420.26C1021.97 1419.58 1022.11 1418.23 1022.25 1417.56C1027.56 1392.34 1033.05 1364.68 1037.6 1339.33C1037.6 1339.33 1042.31 1312.29 1042.31 1312.29C1042.43 1311.42 1043.85 1311.56 1043.74 1312.48" fill="#090E2B" blush:i="0.0.0.0.10.2.2.0.1.2"/></g><g id="Head" blush:component="Head" blush:defaultValue="Ponytail Dark" blush:width="300" blush:height="300" transform="translate(958.896 951.199) scale(1 1)" blush:i="0.0.0.0.10.2.2.0.2" blush:value="Short Hair Gray" blush:viewBox="66 34.5 180 240.00000000000006"><g id="Head/Short Hair Gray" blush:viewBox="66 34.5 180 240.00000000000006" blush:i="0.0.0.0.10.2.2.0.2.0"><path id="Combined Shape" fill-rule="evenodd" clip-rule="evenodd" d="M239.359 191.451C237.648 181.995 235.915 172.411 237.967 158.042C245.325 106.525 203.304 80.378 203.304 80.378C197.959 73.2443 167.431 78.1704 137.507 82.9989C125.715 84.9018 114.016 86.7895 103.989 87.918C77.8634 90.8576 81.1517 101.738 84.6975 113.47C85.9657 117.667 87.2669 121.972 87.2669 126.062C87.2669 127.439 87.2531 128.79 87.2393 130.148C87.1406 139.814 87.0386 149.807 91.884 171.634C88.2986 171.113 84.9121 172.023 81.5498 174.49C67.2047 185.016 86.3455 211.077 102.84 212.467C108.696 231.12 115.741 244.275 130.16 253.66C155.484 270.142 190.529 276.701 204.91 273.872C223.942 270.129 233.309 253.66 237.967 236.391C243.666 215.261 241.531 203.459 239.359 191.451Z" fill="#b75858" blush:color="Skin-500" blush:i="0.0.0.0.10.2.2.0.2.0.0"/><path id="Fill 3" fill-rule="evenodd" clip-rule="evenodd" d="M123.991 197.975C127.208 191.059 123.657 175.918 118.356 164.003C115.786 158.227 110.409 116.249 130.752 118.061C151.631 119.922 160.508 123.006 180.403 122.608C193.001 122.356 215.366 111.997 215.705 108.448C220.759 111.359 234.025 113.974 238.404 137.719C246.855 128.547 246.004 115.779 243.877 103.746C240.683 85.691 220.051 84.21 217.684 83.914C220.388 77.109 214.231 61.509 206.78 54.325C201.526 49.26 186.476 32.645 163.706 35.281C151.163 36.733 147.037 50.776 147.037 50.776C141.967 47.522 122.723 46.064 110.024 50.788C88.7997 58.683 104.446 72.079 106.812 74.742C101.065 76.222 80.2402 86.8514 71.6921 103.746C60.6048 125.659 68.0309 147.086 78.4466 160.848C88.8623 174.61 94.4316 169.725 105.882 179.679C112.513 189.08 121.005 204.396 123.991 197.975Z" fill="#E3E4E6" blush:i="0.0.0.0.10.2.2.0.2.0.1"/><path id="Fill 8" fill-rule="evenodd" clip-rule="evenodd" d="M86.5911 186.861C91.2361 181.015 99.3111 184.223 102.922 189.559C104.573 191.999 105.198 196.547 104.324 197.549C104.115 197.79 103.558 195.969 103.179 195.24C99.7341 188.602 96.3561 185.408 87.2561 187.857C86.6991 187.996 86.2371 187.317 86.5911 186.861" fill="#090E2B" blush:i="0.0.0.0.10.2.2.0.2.0.2"/><path id="Fill 10" fill-rule="evenodd" clip-rule="evenodd" d="M101.978 193.481C96.6631 193.633 98.9161 202.727 97.0001 200.238C96.0241 196.423 97.4291 191.439 101.879 190.748C103.901 190.396 104.023 193.685 101.978 193.481" fill="#090E2B" blush:i="0.0.0.0.10.2.2.0.2.0.3"/><path id="Fill 12" fill-rule="evenodd" clip-rule="evenodd" d="M164.021 271.37C154.645 269.47 148.435 265.601 140.05 261.363C139.551 261.083 130.571 255.209 130.269 254.381C129.883 253.325 130.73 253.956 131.365 254.381C138.755 259.339 158.11 266.666 169.854 269.96C170.357 270.041 173.553 271.358 171.904 271.676C171.278 271.796 167.744 272.124 164.021 271.37Z" fill="#090E2B" blush:i="0.0.0.0.10.2.2.0.2.0.4"/></g></g><g id="Expressions" blush:component="Expressions" blush:defaultValue="Calm 1" blush:width="120" blush:height="120" transform="translate(1079.9 1084.2) scale(1 1)" blush:i="0.0.0.0.10.2.2.0.3" blush:value="Smile" blush:viewBox="21 10.200000000000003 89.4 88.80000000000001"><g id="Expressions/Smile" blush:viewBox="21 10.200000000000003 89.4 88.80000000000001" blush:i="0.0.0.0.10.2.2.0.3.0"><g id="eye1" blush:i="0.0.0.0.10.2.2.0.3.0.0"><path id="Fill 1" fill-rule="evenodd" clip-rule="evenodd" d="M21.0758 18.1794C22.852 10.1965 46.2248 7.39836 56.5098 13.5794C60.0658 15.6924 66.6698 21.4974 60.8228 24.6574C59.2788 25.3294 57.7788 24.6404 56.5098 23.8214C42.4918 14.0794 19.8377 23.7442 21.0758 18.1794Z" fill="#090E2B" blush:i="0.0.0.0.10.2.2.0.3.0.0.0"/><path id="Fill 6" fill-rule="evenodd" clip-rule="evenodd" d="M40.0382 32.611C34.7502 34.111 30.2172 38.361 29.7962 41.883C29.5412 44.011 37.8912 49.12 45.9442 49.517C56.5382 50.038 61.8782 44.299 61.8592 42.465C61.1462 36.915 54.7552 28.437 40.0382 32.611Z" fill="white" blush:i="0.0.0.0.10.2.2.0.3.0.0.1"/><path id="Fill 8" fill-rule="evenodd" clip-rule="evenodd" d="M56.4251 35.7687C48.2821 29.6147 35.6701 33.6247 29.7961 41.8827C29.4591 42.3107 29.5561 41.2337 29.7901 40.7427C32.6241 34.7957 37.7371 31.9887 43.6651 30.7647C47.2321 30.0277 50.5581 29.9677 54.0371 31.5257C55.3821 32.1267 57.7581 33.9587 59.5941 36.0307C61.0261 37.6457 62.2321 40.4147 60.5751 39.4357C59.2781 38.6687 57.5051 36.5857 56.4251 35.7687Z" fill="#090E2B" blush:i="0.0.0.0.10.2.2.0.3.0.0.2"/><path id="Fill 10" fill-rule="evenodd" clip-rule="evenodd" d="M45.8406 46.276C50.3676 46.276 54.0376 42.928 54.0376 38.797C54.0376 34.667 50.3676 31.318 45.8406 31.318C41.3136 31.318 37.6436 34.667 37.6436 38.797C37.6436 42.928 41.3136 46.276 45.8406 46.276Z" fill="#090E2B" blush:i="0.0.0.0.10.2.2.0.3.0.0.3"/></g><g id="eye2" blush:i="0.0.0.0.10.2.2.0.3.0.1"><path id="Fill 4" fill-rule="evenodd" clip-rule="evenodd" d="M104.459 16.8614C107.813 18.3492 112.278 23.2873 108.561 23.2873C104.844 23.2873 96.7936 22.2329 91.3966 24.4599C89.5116 24.9419 88.0811 25.8643 86.1881 26.0893C81.8801 26.9283 79.5395 21.7686 82.5855 18.6492C86.0265 15.1253 97.6434 13.4544 104.459 16.8614Z" fill="#090E2B" blush:i="0.0.0.0.10.2.2.0.3.0.1.0"/><path id="Fill 12" fill-rule="evenodd" clip-rule="evenodd" d="M100.659 49.2345C106.03 47.9855 110.047 43.1155 109.593 39.4765C108.707 34.6545 99.422 31.5755 94.221 34.2085C89.07 36.8155 85.847 42.6405 86.263 44.9405C86.864 46.5325 95.17 50.5115 100.659 49.2345Z" fill="white" blush:i="0.0.0.0.10.2.2.0.3.0.1.1"/><path id="Fill 14" fill-rule="evenodd" clip-rule="evenodd" d="M96.2146 46.6062C99.7526 46.6062 102.621 43.8522 102.621 40.4562C102.621 37.0592 100.6 33.8492 96.2146 34.3062C92.6956 34.6722 89.8076 37.0592 89.8076 40.4562C89.8076 43.8522 92.6766 46.6062 96.2146 46.6062Z" fill="#090E2B" blush:i="0.0.0.0.10.2.2.0.3.0.1.2"/><path id="Fill 22" fill-rule="evenodd" clip-rule="evenodd" d="M86.4543 41.6378C88.4833 34.0638 97.6443 30.1688 104.889 33.7548C105.909 34.2868 107.565 35.4808 108.805 36.9228C109.946 38.2528 109.797 38.9498 109.331 38.8118C108.559 38.5818 106.926 37.1168 105.599 36.4868C98.8893 33.3038 91.9083 35.0898 86.7973 42.5588C86.5463 42.9458 86.3083 42.0748 86.4543 41.6378" fill="#090E2B" blush:i="0.0.0.0.10.2.2.0.3.0.1.3"/></g><path id="nose" fill-rule="evenodd" clip-rule="evenodd" d="M86.9878 70.3387C86.013 75.2575 79.9688 75.736 76.0322 74.6213C72.8324 73.7153 72.0033 71.8513 73.0852 71.2538C74.8484 70.2799 80.4996 72.989 82.5857 70.4028C86.3055 65.7913 74.8913 48.8346 78.5176 51.5592C83.3101 55.16 87.6385 67.0559 86.9878 70.3387Z" fill="#090E2B" blush:i="0.0.0.0.10.2.2.0.3.0.2"/><path id="Fill 18" fill-rule="evenodd" clip-rule="evenodd" d="M89.6386 90.5818C88.8706 91.1602 87.0676 93.5464 85.2445 95.0617C81.1443 98.4697 74.4744 99.2531 70.5442 98.4697C63.1557 96.9971 59.9594 92.1782 58.0065 90.8586C56.0537 89.539 59.7198 87.8443 62.5247 88.0931C65.3297 88.342 67.2122 89.1562 72.5652 91.4593C76.0197 92.9455 83.8309 90.8586 86.038 89.539C90.2482 87.0217 91.5111 89.1717 89.6386 90.5818Z" fill="#090E2B" blush:i="0.0.0.0.10.2.2.0.3.0.3"/></g></g><g id="Facial Accesories" blush:component="Facial Accesories" blush:defaultValue="None" blush:width="120" blush:height="110" transform="translate(1076.9 1134.2) scale(120 110)" blush:i="0.0.0.0.10.2.2.0.4" blush:value="None" blush:viewBox="1.75 1.75 0 0"><g id="Facial Accesories/None" stroke="none" stroke-width="1" fill="none" fill-rule="evenodd" fill-opacity="0" blush:viewBox="1.75 1.75 0 0" blush:i="0.0.0.0.10.2.2.0.4.0"/></g><g id="Glass" blush:component="Glass" blush:defaultValue="None" blush:width="120" blush:height="75" transform="translate(1079.9 1089.2) scale(120 75)" blush:i="0.0.0.0.10.2.2.0.5" blush:value="None" blush:viewBox="1.75 1.75 0 0"><g id="Glass/None" stroke="none" stroke-width="1" fill="none" fill-rule="evenodd" fill-opacity="0" blush:viewBox="1.75 1.75 0 0" blush:i="0.0.0.0.10.2.2.0.5.0"/></g></g><path id="zo0om" fill-rule="evenodd" clip-rule="evenodd" d="M902.653 999.433C902.653 1006.26 899.431 1010.52 894.113 1010.52C888.796 1010.52 885.559 1006.29 885.559 999.447C885.559 992.621 888.825 988.432 894.113 988.432C899.401 988.432 902.653 992.606 902.653 999.433ZM883.537 1002.19C883.537 1007.36 880.505 1010.39 875.759 1010.39C871.013 1010.39 867.98 1007.34 867.98 1002.19C867.98 997.104 871.057 994.013 875.759 994.013C880.461 994.013 883.537 997.089 883.537 1002.19ZM866.062 1006.77V1010.05H853.098V1007.62L860.92 997.704V997.616H853.215V994.35H865.886V997.06L858.532 1006.7V1006.77H866.062ZM875.759 1007.12C873.649 1007.12 872.316 1005.35 872.316 1002.2C872.316 999.081 873.679 997.279 875.759 997.279C877.839 997.279 879.187 999.081 879.187 1002.2C879.187 1005.35 877.854 1007.12 875.759 1007.12ZM894.113 1006.98C891.594 1006.98 890.056 1004.25 890.056 999.447C890.056 994.687 891.623 991.977 894.113 991.977C896.618 991.977 898.156 994.672 898.156 999.447C898.156 1004.27 896.633 1006.98 894.113 1006.98ZM920.246 1002.19C920.246 1007.36 917.214 1010.39 912.468 1010.39C907.722 1010.39 904.689 1007.34 904.689 1002.19C904.689 997.104 907.766 994.013 912.468 994.013C917.17 994.013 920.246 997.089 920.246 1002.19ZM912.468 1007.12C910.358 1007.12 909.025 1005.35 909.025 1002.2C909.025 999.081 910.388 997.279 912.468 997.279C914.548 997.279 915.896 999.081 915.896 1002.2C915.896 1005.35 914.562 1007.12 912.468 1007.12ZM926.721 1000.58V1010.05H922.443V994.35H926.574V997.191H926.662C927.321 995.302 929.006 994.057 931.145 994.057C933.415 994.057 934.997 995.229 935.524 997.279H935.612C936.315 995.302 938.19 994.057 940.49 994.057C943.566 994.057 945.632 996.166 945.632 999.33V1010.05H941.354V1000.4C941.354 998.583 940.446 997.587 938.791 997.587C937.165 997.587 936.096 998.773 936.096 1000.52V1010.05H931.979V1000.27C931.979 998.583 931.027 997.587 929.445 997.587C927.819 997.587 926.721 998.817 926.721 1000.58Z" fill="black" blush:i="0.0.0.0.10.2.2.1"/></g></g><rect id="Rectangle_4" x="1045" y="1377.05" width="119" height="57" fill="#F67A49" blush:i="0.0.0.0.10.3"/><path id="Rectangle Copy 4" d="M974 1449.05C974 1440.77 980.716 1434.05 989 1434.05H1219C1227.28 1434.05 1234 1440.77 1234 1449.05V1460.05H974V1449.05Z" fill="#FFB201" blush:i="0.0.0.0.10.4"/></g><g id="Chair" blush:component="Chair" blush:defaultValue="Tall Chair 2" blush:width="600" blush:height="800" transform="matrix(-1 0 0 1 2076 1254) scale(0.8571428571428571 1)" blush:i="0.0.0.0.11" blush:value="Stool" blush:viewBox="214.15525114155253 396 271.6894977168952 403.9999999999999"><g id="Chair/Stool" blush:viewBox="214.15525114155253 396 271.6894977168952 403.9999999999999" blush:i="0.0.0.0.11.0"><g id="Group" blush:i="0.0.0.0.11.0.0"><path id="Combined Shape" fill-rule="evenodd" clip-rule="evenodd" d="M263 425.639H281L270.361 598.639H430.639L420 425.639H438L444.476 598.639H445V611.639H444.963L452 799.639H443L431.439 611.639H269.561L258 799.639H249L263 425.639Z" fill="#8E2420" blush:i="0.0.0.0.11.0.0.0"/></g><path id="Rectangle" fill-rule="evenodd" clip-rule="evenodd" d="M216 420.465C216 410.995 223.306 403.159 232.762 402.634C257.309 401.269 305.348 399 353.332 399C398.553 399 443.722 401.219 467.282 402.588C476.712 403.135 484 410.96 484 420.406V430.639C484 440.581 475.941 448.639 466 448.639H234C224.059 448.639 216 440.581 216 430.639V420.465Z" fill="#FF0057" blush:i="0.0.0.0.11.0.1"/></g></g><g id="Clock" blush:i="0.0.0.0.12"><path id="Fill 1_2" fill-rule="evenodd" clip-rule="evenodd" d="M1766.46 504.596C1766.46 588.32 1699.42 656.192 1616.72 656.192C1534.04 656.192 1467 588.32 1467 504.596C1467 420.872 1534.04 353 1616.72 353C1699.42 353 1766.46 420.872 1766.46 504.596" fill="#C7D2F2" blush:i="0.0.0.0.12.0"/><path id="Fill 3_2" fill-rule="evenodd" clip-rule="evenodd" d="M1750.22 504.596C1750.22 579.24 1690.45 639.752 1616.73 639.752C1543 639.752 1483.24 579.24 1483.24 504.596C1483.24 429.952 1543 369.44 1616.73 369.44C1690.45 369.44 1750.22 429.952 1750.22 504.596" fill="#F9FAFA" blush:i="0.0.0.0.12.1"/><path id="Fill 5_2" fill-rule="evenodd" clip-rule="evenodd" d="M1627.9 504.596C1627.9 510.844 1622.9 515.912 1616.72 515.912C1610.55 515.912 1605.55 510.844 1605.55 504.596C1605.55 498.344 1610.55 493.276 1616.72 493.276C1622.9 493.276 1627.9 498.344 1627.9 504.596" fill="#C7D2F2" blush:i="0.0.0.0.12.2"/><path id="Fill 7" fill-rule="evenodd" clip-rule="evenodd" d="M1614.19 399.102H1619.57V374.378H1614.19V399.102Z" fill="#C7D2F2" blush:i="0.0.0.0.12.3"/><path id="Fill 9" fill-rule="evenodd" clip-rule="evenodd" d="M1614.19 634.957H1619.57V610.233H1614.19V634.957Z" fill="#C7D2F2" blush:i="0.0.0.0.12.4"/><path id="Fill 10" fill-rule="evenodd" clip-rule="evenodd" d="M1721.15 507.385H1745.56V501.945H1721.15V507.385Z" fill="#C7D2F2" blush:i="0.0.0.0.12.5"/><path id="Fill 11" fill-rule="evenodd" clip-rule="evenodd" d="M1488.19 507.385H1512.61V501.945H1488.19V507.385Z" fill="#C7D2F2" blush:i="0.0.0.0.12.6"/><path id="Fill 12" fill-rule="evenodd" clip-rule="evenodd" d="M1613.93 500.68L1616.93 414.968L1619.94 500.68H1613.93Z" fill="#C7D2F2" blush:i="0.0.0.0.12.7"/><path id="Fill 13" fill-rule="evenodd" clip-rule="evenodd" d="M1613.45 506.125L1555.77 443.317L1617.7 501.825L1613.45 506.125Z" fill="#C7D2F2" blush:i="0.0.0.0.12.8"/></g><g id="Floor" blush:i="0.0.0.0.13"><path id="Path 4" d="M465.212 2049.5L1104.5 2050C1106.44 2050 1108 2051.57 1108 2053.5C1108 2055.37 1106.53 2056.9 1104.69 2056.99L1104.5 2057L465.206 2056.5C463.273 2056.5 461.707 2054.93 461.709 2053C461.71 2051.13 463.176 2049.6 465.02 2049.51L465.212 2049.5Z" fill="#090E2B" blush:i="0.0.0.0.13.0"/><path id="Path 4 Copy 2" d="M1205.21 2049.5L2036.5 2050C2038.43 2050 2040 2051.57 2040 2053.5C2040 2055.37 2038.53 2056.9 2036.69 2056.99L2036.5 2057L1205.21 2056.5C1203.27 2056.5 1201.71 2054.93 1201.71 2053C1201.71 2051.13 1203.18 2049.6 1205.02 2049.51L1205.21 2049.5Z" fill="#090E2B" blush:i="0.0.0.0.13.1"/><path id="Path 4 Copy 3" d="M2626.5 2050C2628.43 2050 2630 2051.57 2630 2053.5C2630 2055.37 2628.54 2056.9 2626.69 2056.99L2626.5 2057H2340.5C2338.57 2057 2337 2055.43 2337 2053.5C2337 2051.63 2338.46 2050.1 2340.31 2050.01L2340.5 2050H2626.5Z" fill="#090E2B" blush:i="0.0.0.0.13.2"/><path id="Path 4 Copy" d="M465.212 2049.5L1104.5 2050C1106.44 2050 1108 2051.57 1108 2053.5C1108 2055.37 1106.53 2056.9 1104.69 2056.99L1104.5 2057L465.206 2056.5C463.273 2056.5 461.707 2054.93 461.709 2053C461.71 2051.13 463.176 2049.6 465.02 2049.51L465.212 2049.5Z" fill="#090E2B" blush:i="0.0.0.0.13.3"/></g><g id="Medium Plants" blush:component="Medium Plants" blush:defaultValue="Plant 1" blush:width="845" blush:height="800" transform="translate(213 1254) scale(1 1)" blush:i="0.0.0.0.14" blush:value="Plant 4" blush:viewBox="92.94999999999993 144.18604651162786 663.3250000000002 655.3911205073997"><g id="Medium Plants/Plant 4" blush:viewBox="92.94999999999993 144.18604651162786 663.3250000000002 655.3911205073997" blush:i="0.0.0.0.14.0"><g id="Group 16" blush:i="0.0.0.0.14.0.0"><path id="Fill 1" fill-rule="evenodd" clip-rule="evenodd" d="M756.51 242.475C756.51 242.475 748.896 301.099 635.282 372.111C604.264 391.427 589.95 411.763 579.268 430.623C569.044 433.917 553.706 438.121 544.388 437.439C544.388 437.439 558.364 441.417 573.474 441.417C558.818 469.253 544.17 492.431 489.522 501.747C489.522 501.747 431.88 467.167 476.902 367.567C488.718 377.791 504.056 397.105 504.056 397.105C502.238 382.223 488.604 365.181 481.788 357.453C481.9 357.341 481.9 357.227 482.014 357.113C515.078 295.081 578.702 292.921 639.94 289.173C639.258 297.465 637.214 309.851 631.874 319.393C631.874 319.393 648.12 307.123 653.12 288.263C663.23 287.581 673.23 286.673 683 285.309C711.176 281.445 741.172 265.881 756.51 242.475" fill="#009BA0" blush:i="0.0.0.0.14.0.0.0"/><path id="Fill 3" d="M104.391 257.375C119.961 255.077 138.365 254.708 158.723 257.49C186.781 261.325 215.021 270.762 242.555 287.024C242.887 287.22 243.073 287.587 243.043 287.964L243.025 288.09L235.939 321.971L251.743 293.968C252.008 293.499 252.589 293.33 253.058 293.563L253.164 293.624C262.811 299.972 272.331 307.262 281.817 315.593C317.398 346.763 339.34 378.773 350.182 410.377C357.612 432.035 359.047 450.791 357.048 465.395C356.965 466.005 356.878 466.577 356.79 467.109L356.657 467.878L356.522 468.587L356.387 469.234L356.27 469.734L356.231 469.848L356.192 469.931L356.135 470.028L356.067 470.117L355.991 470.196L355.937 470.243L355.839 470.314L355.734 470.371L355.723 470.375C355.685 470.394 355.651 470.407 355.616 470.418L355.51 470.446L355.399 470.463L355.286 470.467L355.157 470.456L355.04 470.431L354.926 470.392L354.842 470.353L354.746 470.296L354.71 470.27C350.526 467.159 346.28 464.451 341.848 462.036L340.822 461.483L339.861 460.978C339.701 460.895 339.541 460.812 339.382 460.73L338.423 460.242L337.463 459.763C337.303 459.684 337.143 459.606 336.982 459.528L336.016 459.063L335.042 458.605L334.06 458.154C333.895 458.079 333.73 458.005 333.565 457.931L332.564 457.488C332.397 457.414 332.228 457.341 332.059 457.268L331.036 456.83L329.995 456.396L328.933 455.962C328.754 455.89 328.575 455.818 328.394 455.746L327.298 455.313C327.113 455.241 326.928 455.169 326.741 455.097L325.605 454.662L324.441 454.225L323.245 453.784L322.016 453.34L320.104 452.662L318.781 452.201L317.417 451.733L315.289 451.014L313.812 450.521L300.81 446.227L296.409 444.749L293.321 443.692L290.319 442.634L288.165 441.849L286.409 441.187L284.967 440.627L283.089 439.871L282.094 439.46L281.031 439.013L279.945 438.548L278.825 438.063L277.662 437.552L275.811 436.731L275.161 436.441C259.668 429.514 244.417 420.555 227.881 408.188C227.381 407.814 227.349 407.089 227.784 406.67L227.884 406.585L248.071 391.581L222.318 403.14C222.025 403.271 221.69 403.253 221.416 403.098L221.302 403.023L220.2 402.173L218.74 401.019L217.435 399.968L215.948 398.756C208.317 392.489 200.44 385.063 192.559 376.879L190.808 375.047C187.889 371.975 184.973 368.803 182.07 365.551L180.33 363.59C180.041 363.262 179.751 362.933 179.462 362.603L177.728 360.616C177.44 360.283 177.152 359.95 176.863 359.616L175.137 357.604L173.417 355.576L171.704 353.535C171.418 353.193 171.134 352.851 170.849 352.509L169.146 350.448C168.863 350.103 168.58 349.758 168.297 349.412L166.606 347.334C166.325 346.987 166.044 346.639 165.764 346.291L164.086 344.197L162.418 342.094C162.141 341.743 161.864 341.392 161.587 341.04L159.935 338.926C159.386 338.22 158.838 337.513 158.293 336.805L156.663 334.679L155.045 332.549C154.777 332.193 154.509 331.838 154.241 331.482L152.643 329.347C152.378 328.99 152.113 328.634 151.849 328.278L150.272 326.14C149.749 325.427 149.228 324.714 148.709 324.001L147.162 321.862L145.63 319.725L144.115 317.591L142.757 315.686L141.409 313.813C141.185 313.504 140.962 313.195 140.739 312.888L139.408 311.061L138.087 309.264L136.778 307.497L135.479 305.761L134.192 304.055L132.915 302.378L131.65 300.732L130.395 299.115L129.152 297.527L127.92 295.969L126.698 294.44C126.496 294.188 126.294 293.937 126.092 293.687L124.888 292.201L123.694 290.745C123.496 290.504 123.299 290.265 123.102 290.027L121.925 288.613L120.76 287.228C120.567 287 120.374 286.772 120.182 286.546L119.033 285.204L117.896 283.889L116.77 282.602L115.655 281.344L114.552 280.113L113.46 278.909L112.379 277.733L111.31 276.584C111.133 276.395 110.956 276.207 110.78 276.02L109.727 274.912L108.687 273.83L107.657 272.776C107.487 272.602 107.316 272.43 107.147 272.258L106.111 271.221C105.77 270.882 105.434 270.55 105.102 270.226L104.121 269.273C103.798 268.963 103.48 268.659 103.166 268.363L102.239 267.494L101.338 266.666C101.191 266.532 101.044 266.399 100.898 266.268L100.039 265.501L99.2071 264.774L98.4025 264.087C98.2707 263.975 98.1401 263.866 98.0106 263.758L97.2829 263.158L96.6345 262.636C96.5306 262.554 96.4287 262.473 96.3288 262.395L95.7545 261.952C95.6629 261.883 95.5734 261.815 95.4859 261.75L94.9602 261.364L94.574 261.093L94.4576 261.015C93.729 260.544 93.9045 259.433 94.7427 259.209L95.3946 259.047L96.2565 258.848L96.9103 258.705L97.2606 258.631C97.7707 258.523 98.3022 258.416 98.8549 258.31L99.9882 258.097L101.177 257.887L102.422 257.679L103.721 257.475C103.942 257.441 104.165 257.408 104.391 257.375Z" fill="#017C7F" blush:i="0.0.0.0.14.0.0.1"/><path id="Fill 5" fill-rule="evenodd" clip-rule="evenodd" d="M425.476 500.758C425.476 500.758 371.894 484.878 334.03 416.386C346.928 412.642 355.25 403.988 355.25 403.988C346.096 406.568 329.452 407.65 329.452 407.65C250.686 308.722 290.412 144 290.412 144C299.15 165.72 342.584 196.79 377.784 242.474C372.958 246.72 355.988 263.918 351.744 270.658C351.744 270.658 370.814 256.03 380.966 251.118C413.256 293.392 437.626 345.97 446.946 387.414C467.252 478.29 425.476 500.758 425.476 500.758" fill="#009BA0" blush:i="0.0.0.0.14.0.0.2"/><path id="Fill 7" fill-rule="evenodd" clip-rule="evenodd" d="M307.222 204.438C320.284 240.12 334.03 275.57 349.004 310.488C356.54 327.92 364.332 345.262 373.168 362.048C374.292 364.136 375.348 366.262 376.526 368.314L380.104 374.45C382.468 378.544 384.994 382.608 387.43 386.688C392.162 394.948 396.818 403.266 400.884 411.89C409.214 429.026 415.73 447.09 420.016 465.68C422.192 474.966 423.852 484.356 425.376 493.74C426.162 498.422 426.874 503.132 427.52 507.866C428.092 512.594 428.66 517.322 429.122 522.058C431.054 540.988 432.418 559.954 433.742 578.92C435.032 597.89 436.176 616.864 437.192 635.852C437.23 636.542 436.7 637.13 436.012 637.166C435.322 637.204 434.734 636.674 434.696 635.984V635.978C433.746 617.004 432.666 598.032 431.444 579.072C430.186 560.118 428.888 541.158 427.024 522.268C426.58 517.544 426.032 512.834 425.478 508.126C424.854 503.442 424.164 498.754 423.392 494.06C421.904 484.684 420.284 475.34 418.154 466.112C413.964 447.64 407.562 429.704 399.338 412.63C395.326 404.042 390.718 395.744 386.034 387.502C383.612 383.416 381.134 379.398 378.76 375.256L375.178 369.064C373.998 366.994 372.946 364.858 371.826 362.758C363.014 345.874 355.272 328.486 347.79 311.008C332.92 276.004 319.294 240.5 306.348 204.75C306.26 204.51 306.386 204.244 306.626 204.156C306.868 204.068 307.136 204.196 307.222 204.438" fill="black" blush:i="0.0.0.0.14.0.0.3"/><path id="Fill 9" fill-rule="evenodd" clip-rule="evenodd" d="M152.687 283.442L247.419 349.072C263.221 360.03 278.265 372.102 292.363 385.192C295.941 388.408 299.315 391.842 302.785 395.174C306.111 398.65 309.567 402.004 312.767 405.602C319.359 412.618 325.473 420.07 331.367 427.684C337.193 435.358 342.543 443.392 347.429 451.712C352.135 460.134 356.355 468.846 359.415 478.054C360.189 480.342 360.775 482.682 361.465 484.994C362.093 487.32 362.879 489.614 363.371 491.97C364.421 496.668 365.679 501.328 366.555 506.06C368.493 515.488 370.123 524.972 371.599 534.474C377.361 572.512 380.867 610.814 383.359 649.188C383.403 649.876 382.881 650.472 382.193 650.516C381.503 650.56 380.909 650.038 380.863 649.348V649.344V649.324C378.525 611.036 375.165 572.734 369.565 534.782C368.131 525.302 366.541 515.842 364.647 506.45C363.793 501.734 362.561 497.106 361.535 492.428C361.055 490.078 360.285 487.816 359.673 485.504C358.999 483.214 358.425 480.886 357.671 478.626C354.701 469.568 350.559 460.924 345.929 452.566C341.119 444.304 335.841 436.308 330.079 428.658C324.247 421.068 318.195 413.63 311.657 406.62C308.489 403.026 305.059 399.672 301.759 396.198C298.315 392.866 294.967 389.432 291.415 386.214C277.413 373.112 262.469 361.024 246.745 350.032L152.271 284.042C152.105 283.928 152.063 283.7 152.179 283.534C152.293 283.368 152.521 283.326 152.687 283.442" fill="black" blush:i="0.0.0.0.14.0.0.4"/><path id="Fill 11" fill-rule="evenodd" clip-rule="evenodd" d="M707.017 298.895C674.843 319.235 642.481 339.275 610.191 359.435L586.009 374.555C578.109 379.679 570.695 385.627 563.543 391.821C556.349 397.985 549.651 404.705 543.091 411.533C539.943 415.073 536.629 418.465 533.661 422.159L529.105 427.605L524.785 433.241C518.985 440.729 513.863 448.697 509.009 456.811C507.849 458.867 506.775 460.973 505.653 463.053C504.587 465.159 503.337 467.179 502.419 469.355L499.519 475.817L498.075 479.049L496.871 482.375L494.463 489.027C493.623 491.235 493.171 493.559 492.505 495.819C491.903 498.099 491.247 500.353 490.685 502.655L489.151 509.619L483.163 537.517C475.401 574.763 467.969 612.091 460.941 649.483C460.815 650.161 460.165 650.611 459.485 650.487C458.807 650.361 458.357 649.707 458.481 649.027C465.441 611.595 472.649 574.215 480.521 536.961L486.541 509.043L488.087 502.073C488.653 499.753 489.327 497.437 489.941 495.117C490.621 492.817 491.091 490.445 491.943 488.203L494.399 481.437L495.629 478.055L497.097 474.773L500.051 468.217C500.985 466.007 502.251 463.963 503.335 461.829C504.475 459.721 505.565 457.587 506.743 455.505C511.665 447.293 516.859 439.237 522.723 431.677L527.095 425.991L531.699 420.495C534.701 416.771 538.047 413.349 541.225 409.781C547.851 402.899 554.613 396.127 561.881 389.911C569.115 383.665 576.585 377.675 584.663 372.445C592.765 367.347 600.883 362.467 608.993 357.467C641.455 337.603 673.847 317.621 706.423 297.939C706.689 297.777 707.035 297.861 707.197 298.127C707.357 298.389 707.275 298.731 707.017 298.895" fill="black" blush:i="0.0.0.0.14.0.0.5"/><g id="Group 15" blush:i="0.0.0.0.14.0.0.6"><path id="Fill 13" fill-rule="evenodd" clip-rule="evenodd" d="M383.759 799.09H462.125C490.029 799.09 513.367 795.884 516.033 768.108L535.001 570.494H310.883L329.849 768.108C332.515 795.884 355.853 799.09 383.759 799.09" fill="#F0F1FF" blush:i="0.0.0.0.14.0.0.6.0"/></g></g></g></g></g><g id="Master/Character/Sitting [colors]" blush:has-customizable-colors="true" blush:component="Master/Character/Sitting [colors]" blush:width="1110" blush:height="1500" transform="matrix(-1 0 0 1 2244 557) scale(1 1)" blush:i="0.0.0.1" blush:value="Sitting [colors]" blush:viewBox="172.5 165 765.0000000000002 1335"><g id="Master/Character/Sitting [colors]" blush:has-customizable-colors="true" blush:viewBox="172.5 165 765.0000000000002 1335" blush:i="0.0.0.1.0"><g id="Lower Body/Sitting" blush:component="Lower Body/Sitting" blush:defaultValue="On Chair 1" blush:width="752" blush:height="560" transform="translate(179 940) scale(1 1)" blush:i="0.0.0.1.0.0" blush:value="On Chair 1" blush:viewBox="176.72000000000003 -36.12903225806457 616.6399999999999 594.6236559139786"><g id="Lower Body/Sitting/On Chair 1" blush:viewBox="176.72000000000003 -36.12903225806457 616.6399999999999 594.6236559139786" blush:i="0.0.0.1.0.0.0"><path id="Fill 3" fill-rule="evenodd" clip-rule="evenodd" d="M410.615 399.5C410.615 399.5 400.358 471.95 396.172 502.906C391.95 534.126 467.049 503.737 467.049 503.737C467.049 503.737 453.51 484.443 453.305 479.158C453.101 473.871 476.219 412 476.219 412L410.615 399.5Z" fill="#09b9c6" blush:color="Skin-500" blush:i="0.0.0.1.0.0.0.0"/><path id="Fill 5" fill-rule="evenodd" clip-rule="evenodd" d="M561.036 0C597.898 16.8477 635.154 59.3885 602.589 139.129C570.025 218.869 493.394 411.872 481.35 420.555C469.306 429.239 405.785 412 405.785 412C405.785 412 412.733 330.944 426.535 251.243C436.642 192.88 457.953 150.326 457.953 150.326C457.953 150.326 286.541 174.784 243.983 146.076C188.125 108.397 229.481 6.86054 261.586 -5.71064C302.859 -21.8714 490.855 -32.0758 561.036 0Z" fill="#090E2B" blush:i="0.0.0.1.0.0.0.1"/><path id="Fill 17" fill-rule="evenodd" clip-rule="evenodd" d="M559.105 537.55C553.719 520.869 514.662 509.853 486.46 501.514C476.967 498.706 463.703 484.835 457.546 485.001C448.582 485.245 457.367 503.898 427.363 502.274C419.419 501.845 418.852 493.484 401.592 491.581C398.787 491.273 394.499 490.728 390.796 497.394C388.732 501.111 380.282 534.664 388.578 548.345C446.664 549.846 506.413 548.363 558.02 547.882C563.06 547.834 560.482 541.819 559.105 537.55" fill="#FF0057" blush:i="0.0.0.1.0.0.0.2"/><path id="Fill 1" fill-rule="evenodd" clip-rule="evenodd" d="M654.971 412C654.971 412 665.531 466.51 672.596 475.378C679.663 484.243 716.329 494.221 717.975 499.698C719.619 505.175 639.821 518 639.821 518L591 416.698L654.971 412Z" fill="#09b9c6" blush:color="Skin-500" blush:i="0.0.0.1.0.0.0.3"/><path id="Fill 10" fill-rule="evenodd" clip-rule="evenodd" d="M790.105 534.55C784.719 517.87 745.662 506.853 717.46 498.513C707.967 495.706 694.703 481.834 688.546 482.001C679.582 482.244 688.367 500.898 658.363 499.274C650.42 498.845 649.853 490.483 632.592 488.581C629.787 488.272 625.499 487.728 621.796 494.393C619.732 498.11 611.282 531.663 619.578 545.346C677.664 546.846 737.413 545.362 789.02 544.881C794.06 544.833 791.482 538.818 790.105 534.55" fill="#FF0057" blush:i="0.0.0.1.0.0.0.4"/><path id="Fill 15" fill-rule="evenodd" clip-rule="evenodd" d="M722.705 510.43C726.392 503.004 728.005 501.713 726.433 500.544C722.673 497.748 703.571 506.385 702.07 511.523C700.945 515.374 713.664 504.229 723.821 502.566C719.659 506.366 715.779 518.02 719.874 515.696C739.827 504.382 742.974 507.006 742.999 506.586C743.117 504.585 735.566 502.967 722.705 510.43" fill="#FFB201" blush:i="0.0.0.1.0.0.0.5"/><path id="Fill 7" fill-rule="evenodd" clip-rule="evenodd" d="M180.128 77C192.092 138.955 247.292 161.212 295.191 159.362C368.357 156.536 442.941 124.042 468.153 113.183C465.932 129.164 477.806 220.025 497.63 262.074C517.453 304.124 582.01 430.62 582.01 430.62C582.01 430.62 654.852 431.05 657.967 413.369C660.016 401.738 591.632 76.8495 569.01 20.5962C556.02 -11.7083 513.977 -25.6487 427.502 -33C340.648 -40.3834 214.032 -26.7716 214.032 -26.7716C214.032 -26.7716 168.163 15.0448 180.128 77Z" fill="#001386" blush:i="0.0.0.1.0.0.0.6"/><path id="Fill 22" fill-rule="evenodd" clip-rule="evenodd" d="M491.705 514.43C495.392 507.005 497.005 505.714 495.432 504.544C491.672 501.749 472.571 510.385 471.07 515.522C469.945 519.373 482.664 508.228 492.821 506.566C488.659 510.367 484.778 522.019 488.874 519.697C508.827 508.381 511.974 511.006 511.999 510.585C512.117 508.585 504.566 506.966 491.705 514.43" fill="#FFB201" blush:i="0.0.0.1.0.0.0.7"/><path id="Fill 19" fill-rule="evenodd" clip-rule="evenodd" d="M546.831 554.391L407.016 556.857C397.662 557.231 383.67 554.014 382.317 546.243C381.306 540.437 383.554 527.795 384.02 526.954C387.277 521.094 415.032 526.038 423.117 545.827C474.131 549.649 561.008 545.912 561.008 545.912C561.008 545.912 562.312 553.593 546.831 554.391" fill="#090E2B" blush:i="0.0.0.1.0.0.0.8"/><path id="Fill 12" fill-rule="evenodd" clip-rule="evenodd" d="M777.721 550.785L637.906 553.251C628.553 553.625 614.56 550.409 613.207 542.638C612.197 536.832 614.444 524.19 614.911 523.349C618.167 517.489 645.922 522.433 654.007 542.222C705.021 546.044 791.899 542.307 791.899 542.307C791.899 542.307 793.202 549.988 777.721 550.785" fill="#090E2B" blush:i="0.0.0.1.0.0.0.9"/></g></g><g id="Upper Body/Sitting" blush:component="Upper Body/Sitting" blush:defaultValue="Talking 1" blush:width="600" blush:height="951" transform="translate(243 170) scale(1 1.0010526315789474)" blush:i="0.0.0.1.0.1" blush:value="Hands Up 2" blush:viewBox="0.9493670886075734 -4.75 488.92405063291136 821.7500000000002"><g id="Upper Body/Sitting/Hands Up 2" blush:viewBox="0.9493670886075734 -4.75 488.92405063291136 821.7500000000002" blush:i="0.0.0.1.0.1.0"><path id="hand-2" fill-rule="evenodd" clip-rule="evenodd" d="M386.806 167.843C386.806 167.843 419.925 96.8221 423.081 89.7425C435.568 61.7317 426.33 63.8039 429.609 47.8883C433.302 29.9733 427.673 20.8265 429.609 19.6944C440.61 13.2649 442.989 38.7834 444.438 34.0713C449.297 18.2826 458.094 13.1489 463.279 7.36781C470.16 -0.30373 481.969 12.8152 485.004 16.3553C491.906 24.4045 488.49 40.3627 485.004 53.5216C477.531 81.7309 463.826 77.6121 452.204 100.553C447.929 108.992 438.017 159.426 423.081 209.763C397.412 296.272 361.897 398.032 350.695 398.032C338.244 398.032 300.809 400.211 297.567 398.032C289.865 392.856 386.806 167.843 386.806 167.843Z" fill="#09b9c6" blush:color="Skin-500" blush:i="0.0.0.1.0.1.0.0"/><path id="t-4" fill-rule="evenodd" clip-rule="evenodd" d="M267.588 480.133C263.343 471.907 245.913 454.395 252.451 442.212C258.989 430.031 280.584 438.59 283.793 444.037C302.005 474.959 275.078 494.648 267.588 480.133" fill="#FF0057" blush:i="0.0.0.1.0.1.0.1"/><path id="hand-1" fill-rule="evenodd" clip-rule="evenodd" d="M61.8589 226.851C61.8589 226.851 53.9575 101.19 48.4358 83.7301C42.913 66.2709 40.9615 68.3837 25.7126 55.6678C8.0612 40.946 8.84177 32.9801 11.5763 31.943C19.3864 35.1211 -7.73304 5.26889 12.9546 0.232185C40.2433 -6.41165 43.2143 15.7951 56.6253 19.653C58.9317 20.3156 52.8914 9.61059 58.0608 4.33754C63.4905 -1.20136 63.8268 7.65068 66.0521 11.2007C72.7311 21.8487 77.6522 40.7531 77.6522 52.4696C77.6522 68.0928 116.454 193.337 116.454 193.337C116.454 193.337 157.149 385.118 151.254 391.98C135.549 410.265 108.967 415.514 101.76 418.966C96.3444 421.56 61.8589 226.851 61.8589 226.851Z" fill="#09b9c6" blush:color="Skin-500" blush:i="0.0.0.1.0.1.0.2"/><path id="neck" fill-rule="evenodd" clip-rule="evenodd" d="M214.713 398C214.713 398 213.882 427.599 208.194 443.473C205.002 452.381 189.322 446.288 197.178 464.198C211.521 496.894 270.541 538.914 281.693 528.335C292.842 517.759 310.629 512.779 297.172 480.008C295.435 475.778 265.863 460.511 264.491 455.918C255.92 427.239 266.612 398 266.612 398H214.713Z" fill="#09b9c6" blush:color="Skin-500" blush:i="0.0.0.1.0.1.0.3"/><g id="tshirt" blush:i="0.0.0.1.0.1.0.4"><path id="t-3" fill-rule="evenodd" clip-rule="evenodd" d="M332.213 256.529C347.457 218.623 380.287 176.972 377.304 165.518C374.321 154.063 379.306 150.96 383.532 152C391.916 154.063 422.72 168.096 433.007 173.239C443.294 178.383 438.151 184.384 438.151 184.384C438.151 184.384 407.205 271.227 398.479 298.883C377.304 365.992 359.488 415.097 347.155 443.312C332.837 476.067 332.213 515.018 332.213 515.018C332.213 515.018 286.592 513.269 289.299 487C292.435 456.559 261.246 452.069 261.246 435.294C261.246 416.701 316.97 294.434 332.213 256.529Z" fill="#3615F6" blush:i="0.0.0.1.0.1.0.4.0"/><path id="t-2" fill-rule="evenodd" clip-rule="evenodd" d="M270.058 507.726C288.351 505.647 281.144 467.112 281.144 467.112C281.144 467.112 305.733 481.203 321.711 484.757C321.711 507.444 357.314 535.127 354.376 582.57C351.438 630.012 322.783 684.588 342.142 716.37C346.239 723.096 347.902 732.45 342.142 735.393C321.711 745.832 241.683 754.988 168.803 789.237C158.338 794.154 112.875 822.161 109.105 813C96.3461 781.995 152.559 774.973 158.367 635.705C160.708 579.583 129.211 532.492 128.017 516.969C126.823 501.447 130.405 498.461 148.315 478.163C166.227 457.864 174.897 397.884 185.699 418.138C196.501 438.391 213.449 440.995 219.958 479.357C219.958 479.357 261.509 508.698 270.058 507.726Z" fill="#3615F6" blush:i="0.0.0.1.0.1.0.4.1"/><path id="t-1" fill-rule="evenodd" clip-rule="evenodd" d="M52 203.693C52 203.693 77.846 178.888 103.775 174.999C129.706 171.109 121.85 179.789 121.85 179.789C121.85 179.789 147.402 353.824 168.146 387.534C188.891 421.243 195.151 434.341 195.151 434.341L131.775 528.17C131.775 528.17 85.77 451.303 83.176 400.739C80.583 350.174 77.315 332.546 72.129 314.394C66.943 296.244 54.593 229.624 52 203.693" fill="#3615F6" blush:i="0.0.0.1.0.1.0.4.2"/></g></g></g><g id="Head" blush:component="Head" blush:defaultValue="Long Hair Dark" blush:width="300" blush:height="300" transform="translate(341 346) scale(1 1)" blush:i="0.0.0.1.0.2" blush:value="Short Hair Gray" blush:viewBox="66 34.5 180 240.00000000000006"><g id="Head/Short Hair Gray" blush:viewBox="66 34.5 180 240.00000000000006" blush:i="0.0.0.1.0.2.0"><path id="Combined Shape" fill-rule="evenodd" clip-rule="evenodd" d="M239.359 191.451C237.648 181.995 235.915 172.411 237.967 158.042C245.325 106.525 203.304 80.378 203.304 80.378C197.959 73.2443 167.431 78.1704 137.507 82.9989C125.715 84.9018 114.016 86.7895 103.989 87.918C77.8634 90.8576 81.1517 101.738 84.6975 113.47C85.9657 117.667 87.2669 121.972 87.2669 126.062C87.2669 127.439 87.2531 128.79 87.2393 130.148C87.1406 139.814 87.0386 149.807 91.884 171.634C88.2986 171.113 84.9121 172.023 81.5498 174.49C67.2047 185.016 86.3455 211.077 102.84 212.467C108.696 231.12 115.741 244.275 130.16 253.66C155.484 270.142 190.529 276.701 204.91 273.872C223.942 270.129 233.309 253.66 237.967 236.391C243.666 215.261 241.531 203.459 239.359 191.451Z" fill="#09b9c6" blush:color="Skin-500" blush:i="0.0.0.1.0.2.0.0"/><path id="Fill 3" fill-rule="evenodd" clip-rule="evenodd" d="M123.991 197.975C127.208 191.059 123.657 175.918 118.356 164.003C115.786 158.227 110.409 116.249 130.752 118.061C151.631 119.922 160.508 123.006 180.403 122.608C193.001 122.356 215.366 111.997 215.705 108.448C220.759 111.359 234.025 113.974 238.404 137.719C246.855 128.547 246.004 115.779 243.877 103.746C240.683 85.691 220.051 84.21 217.684 83.914C220.388 77.109 214.231 61.509 206.78 54.325C201.526 49.26 186.476 32.645 163.706 35.281C151.163 36.733 147.037 50.776 147.037 50.776C141.967 47.522 122.723 46.064 110.024 50.788C88.7997 58.683 104.446 72.079 106.812 74.742C101.065 76.222 80.2402 86.8514 71.6921 103.746C60.6048 125.659 68.0309 147.086 78.4466 160.848C88.8623 174.61 94.4316 169.725 105.882 179.679C112.513 189.08 121.005 204.396 123.991 197.975Z" fill="#E3E4E6" blush:i="0.0.0.1.0.2.0.1"/><path id="Fill 8" fill-rule="evenodd" clip-rule="evenodd" d="M86.5911 186.861C91.2361 181.015 99.3111 184.223 102.922 189.559C104.573 191.999 105.198 196.547 104.324 197.549C104.115 197.79 103.558 195.969 103.179 195.24C99.7341 188.602 96.3561 185.408 87.2561 187.857C86.6991 187.996 86.2371 187.317 86.5911 186.861" fill="#090E2B" blush:i="0.0.0.1.0.2.0.2"/><path id="Fill 10" fill-rule="evenodd" clip-rule="evenodd" d="M101.978 193.481C96.6631 193.633 98.9161 202.727 97.0001 200.238C96.0241 196.423 97.4291 191.439 101.879 190.748C103.901 190.396 104.023 193.685 101.978 193.481" fill="#090E2B" blush:i="0.0.0.1.0.2.0.3"/><path id="Fill 12" fill-rule="evenodd" clip-rule="evenodd" d="M164.021 271.37C154.645 269.47 148.435 265.601 140.05 261.363C139.551 261.083 130.571 255.209 130.269 254.381C129.883 253.325 130.73 253.956 131.365 254.381C138.755 259.339 158.11 266.666 169.854 269.96C170.357 270.041 173.553 271.358 171.904 271.676C171.278 271.796 167.744 272.124 164.021 271.37Z" fill="#090E2B" blush:i="0.0.0.1.0.2.0.4"/></g></g><g id="Expressions" blush:component="Expressions" blush:defaultValue="Calm 1" blush:width="120" blush:height="120" transform="translate(462 479) scale(1 1)" blush:i="0.0.0.1.0.3" blush:value="Relaxed" blush:viewBox="22.799999999999997 15.599999999999994 85.80000000000001 91.80000000000001"><g id="Expressions/Relaxed" blush:viewBox="22.799999999999997 15.599999999999994 85.80000000000001 91.80000000000001" blush:i="0.0.0.1.0.3.0"><path id="Fill 1" fill-rule="evenodd" clip-rule="evenodd" d="M93.917 85.9778C78.288 85.3498 67.34 84.9098 56.819 84.4878C53.549 84.3558 50.673 90.0738 56.294 97.5688C64.259 108.189 84.891 111.876 93.281 99.0538C97.555 92.5238 97.31 86.1148 93.917 85.9778" fill="white" blush:i="0.0.0.1.0.3.0.0"/><path id="nose" fill-rule="evenodd" clip-rule="evenodd" d="M82.7871 55.7084C86.8281 59.4834 96.9611 74.6464 87.8281 76.8394C85.9421 77.2914 77.3211 77.5114 78.5921 75.6374C79.6051 74.1434 85.9771 75.0244 86.8981 72.1854C88.1081 68.4554 83.7121 61.1524 80.9721 56.1434C80.5011 55.2804 82.1521 54.9674 82.7871 55.7084" fill="#090E2B" blush:i="0.0.0.1.0.3.0.1"/><path id="eye" fill-rule="evenodd" clip-rule="evenodd" d="M101.14 49.4726C102.716 48.4496 104.002 46.9449 104.812 43.8791C105.442 41.4928 104.117 41.182 103.446 41.8768C103.179 42.1534 102.89 42.5185 102.567 42.9254C101.4 44.4003 99.7974 46.4242 97.2379 46.7697C95.5386 47 93.0129 46.5252 90.427 44.7174C88.7963 43.5795 87.3545 43.558 88.271 45.8261C89.496 48.8593 96.5465 52.4533 101.14 49.4726ZM45.7528 54.7979C53.7067 59.04 63.5732 54.6834 63.3552 47.0155C63.2851 44.5515 61.754 44.5133 60.8831 46.19C58.6542 50.4862 51.8747 54.579 43.8676 49.2316C43.8604 49.2268 43.853 49.2219 43.8454 49.2169C43.2217 48.8006 41.4469 47.6162 40.7587 48.3637C39.6704 49.5454 41.6555 52.6145 45.7528 54.7979Z" fill="#090E2B" blush:i="0.0.0.1.0.3.0.2"/><path id="eybrow" fill-rule="evenodd" clip-rule="evenodd" d="M106.892 19.0603C97.9002 11.4322 82.9075 17.8364 81.4786 26.4153C80.9228 29.7588 84.7289 30.4299 86.5262 28.5224C93.1586 21.4848 101.912 23.1875 105.337 23.8539C106.047 23.9919 106.528 24.0854 106.714 24.0478C109.751 23.4369 108.668 20.5673 106.892 19.0603ZM27.9799 30.9433C38.6859 22.6052 49.269 24.8492 60.7363 31.6406C64.9372 32.9563 65.9182 27.4971 62.7947 24.082C55.9812 16.6332 41.7869 15.2534 31.6092 20.0844C28.5028 21.5578 24.6711 25.6739 23.7097 27.9688C22.3602 31.1906 24.1328 33.9401 27.9799 30.9433Z" fill="#090E2B" blush:i="0.0.0.1.0.3.0.3"/></g></g><g id="Facial Accesories" blush:component="Facial Accesories" blush:defaultValue="None" blush:width="120" blush:height="110" transform="translate(459 529) scale(120 110)" blush:i="0.0.0.1.0.4" blush:value="None" blush:viewBox="1.75 1.75 0 0"><g id="Facial Accesories/None" stroke="none" stroke-width="1" fill="none" fill-rule="evenodd" fill-opacity="0" blush:viewBox="1.75 1.75 0 0" blush:i="0.0.0.1.0.4.0"/></g><g id="Glass" blush:component="Glass" blush:defaultValue="None" blush:width="120" blush:height="75" transform="translate(462 484) scale(120 75)" blush:i="0.0.0.1.0.5" blush:value="None" blush:viewBox="1.75 1.75 0 0"><g id="Glass/None" stroke="none" stroke-width="1" fill="none" fill-rule="evenodd" fill-opacity="0" blush:viewBox="1.75 1.75 0 0" blush:i="0.0.0.1.0.5.0"/></g></g></g></g></g></g></svg>