<svg viewBox="160 320 3080 1759.9999999999993" fill="none" xmlns="http://www.w3.org/2000/svg" xmlns:xlink="http://www.w3.org/1999/xlink" xmlns:blush="http://design.blush" overflow="visible" width="3080px" height="1759.9999999999993px"><g id="Master/Scenes/Teamwork" blush:has-customizable-colors="true" blush:viewBox="-16 328 3231.999999999999 1743.9999999999998" blush:i="0"><g id="Background" blush:i="0.0"><g id="Floor" blush:i="0.0.0"><path id="Path 4 Copy 2" d="M3200.5 2051C3202.43 2051 3204 2052.57 3204 2054.5C3204 2056.37 3202.54 2057.9 3200.69 2057.99L3200.5 2058H2326.5C2324.57 2058 2323 2056.43 2323 2054.5C2323 2052.63 2324.46 2051.1 2326.31 2051.01L2326.5 2051H3200.5Z" fill="#090E2B" blush:i="0.0.0.0"/><path id="Path 4 Copy 3" d="M2173.5 2051C2175.43 2051 2177 2052.57 2177 2054.5C2177 2056.37 2175.54 2057.9 2173.69 2057.99L2173.5 2058H1684.5C1682.57 2058 1681 2056.43 1681 2054.5C1681 2052.63 1682.46 2051.1 1684.31 2051.01L1684.5 2051H2173.5Z" fill="#090E2B" blush:i="0.0.0.1"/><path id="Path 4 Copy" d="M1092.5 2051C1094.43 2051 1096 2052.57 1096 2054.5C1096 2056.37 1094.54 2057.9 1092.69 2057.99L1092.5 2058H210.5C208.567 2058 207 2056.43 207 2054.5C207 2052.63 208.464 2051.1 210.308 2051.01L210.5 2051H1092.5Z" fill="#090E2B" blush:i="0.0.0.2"/></g><g id="Medium Plants" blush:component="Medium Plants" blush:defaultValue="Plant 2" blush:width="845" blush:height="800" transform="translate(-1 1255) scale(1 1)" blush:i="0.0.1" blush:value="Plant 1" blush:viewBox="274.625 296.4059196617337 299.9749999999998 507.399577167019"><g id="Medium Plants/Plant 1" blush:viewBox="274.625 296.4059196617337 299.9749999999998 507.399577167019" blush:i="0.0.1.0"><g id="Group" blush:i="0.0.1.0.0"><path id="Fill 1" fill-rule="evenodd" clip-rule="evenodd" d="M356.365 503.474C327.777 445.413 300.03 424.299 291.225 417.517C299.353 433.795 363.551 619.095 372.433 667.614C342.629 608.883 327.262 596.196 321.705 590.482C306.664 575.016 287.838 564.028 277 558.602C281.745 565.191 337.284 631.858 356.927 690.191L372.506 718H450.401C450.401 718 458.529 690.988 471.398 679.057C484.268 667.128 532.765 607.409 540.216 572.138C522.239 592.953 465.071 667.128 454.901 679.057C479.964 608.117 483.727 601.563 505.145 562.223C526.564 522.881 570.969 465.279 573 463.923C549.97 476.133 482.258 518.8 450.147 603.33C436.728 638.654 432.522 661.151 432.522 661.151C432.522 661.151 447.024 590.548 446.346 521.361C445.668 452.175 450.401 297 450.401 297C450.401 297 419.527 351.185 408.086 439.025C403.855 471.509 400.285 604.942 401.639 637.22C401.639 637.22 384.121 559.844 356.365 503.474Z" fill="#009BA0" blush:i="0.0.1.0.0.0"/><path id="Fill 4" fill-rule="evenodd" clip-rule="evenodd" d="M455.622 800H365.883C352.693 800 342 781.764 342 768.532V679H482V766.029C482 780.583 470.13 800 455.622 800" fill="#FFB201" blush:i="0.0.1.0.0.1"/></g></g></g><g id="UI Elements" blush:component="UI Elements" blush:defaultValue="UI Card 1" blush:width="1101" blush:height="811" transform="translate(1050 341) scale(1 1)" blush:i="0.0.2" blush:value="UI Card 1" blush:viewBox="0 14.324728260869506 1100.9999999999998 798.8790760869566"><g id="UI Elements/UI Card 1" blush:viewBox="0 14.324728260869506 1100.9999999999998 798.8790760869566" blush:i="0.0.2.0"><g id="userinterface" blush:i="0.0.2.0.0"><path id="Stroke 1 Copy" fill-rule="evenodd" clip-rule="evenodd" d="M1073.39 810.432H69.612C56.847 810.432 46.5 800.085 46.5 787.32V78.6155C46.5 65.8505 56.847 55.5005 69.612 55.5005H1073.39C1086.15 55.5005 1096.5 65.8505 1096.5 78.6155V787.32C1096.5 800.085 1086.15 810.432 1073.39 810.432Z" fill="#090E2B" blush:i="0.0.2.0.0.0"/><path id="Stroke 1" fill-rule="evenodd" clip-rule="evenodd" d="M1030.89 774.932H27.112C14.347 774.932 4 764.585 4 751.82V43.115C4 30.35 14.347 20 27.112 20H1030.89C1043.65 20 1054 30.35 1054 43.115V751.82C1054 764.585 1043.65 774.932 1030.89 774.932Z" fill="white" blush:i="0.0.2.0.0.1"/><path id="Stroke 1 Copy 2" fill-rule="evenodd" clip-rule="evenodd" d="M27.112 17H1030.89C1045.31 17 1057 28.6927 1057 43.115V751.82C1057 766.242 1045.31 777.932 1030.89 777.932H27.112C12.6901 777.932 1 766.242 1 751.82V43.115C1 28.6927 12.6906 17 27.112 17ZM1030.89 23H27.112C16.0045 23 7 32.0062 7 43.115V751.82C7 762.928 16.0039 771.932 27.112 771.932H1030.89C1041.99 771.932 1051 762.928 1051 751.82V43.115C1051 32.0062 1041.99 23 1030.89 23Z" fill="#090E2B" blush:i="0.0.2.0.0.2"/><path id="Stroke 5" fill-rule="evenodd" clip-rule="evenodd" d="M618.178 389.062H198.784C161.623 389.062 131.5 358.939 131.5 321.778C131.5 284.623 161.623 254.5 198.784 254.5H618.178C655.336 254.5 685.459 284.623 685.459 321.778C685.459 358.939 655.336 389.062 618.178 389.062Z" fill="#FFB201" blush:i="0.0.2.0.0.3"/><path id="Stroke 7" fill-rule="evenodd" clip-rule="evenodd" d="M855.382 387.211V387.211C818.224 387.211 788.098 357.088 788.098 319.927C788.098 282.772 818.224 252.649 855.382 252.649C892.54 252.649 922.663 282.772 922.663 319.927C922.663 357.088 892.54 387.211 855.382 387.211Z" fill="#C7D2F2" blush:i="0.0.2.0.0.4"/><g id="cross" blush:i="0.0.2.0.0.5"><path id="Stroke 9" d="M990.392 71.9474C992.15 70.1901 994.999 70.1901 996.756 71.9474C998.459 73.6499 998.512 76.377 996.916 78.1435L996.756 78.3114L954.756 120.311C952.999 122.069 950.15 122.069 948.392 120.311C946.69 118.609 946.637 115.882 948.233 114.115L948.392 113.947L990.392 71.9474Z" fill="black" blush:i="0.0.2.0.0.5.0"/><path id="Stroke 11" d="M948.392 71.9474C950.095 70.245 952.822 70.1918 954.588 71.7878L954.756 71.9474L996.756 113.947C998.514 115.705 998.514 118.554 996.756 120.311C995.054 122.014 992.327 122.067 990.56 120.471L990.392 120.311L948.392 78.3114C946.635 76.554 946.635 73.7048 948.392 71.9474Z" fill="black" blush:i="0.0.2.0.0.5.1"/></g><path id="Stroke 13" d="M728.248 474.5C738.189 474.5 746.248 482.559 746.248 492.5C746.248 502.331 738.367 510.321 728.579 510.498L728.248 510.5H149.5C139.559 510.5 131.5 502.442 131.5 492.5C131.5 482.67 139.381 474.68 149.169 474.503L149.5 474.5H728.248Z" fill="#C7D2F2" blush:i="0.0.2.0.0.6"/><path id="Stroke 15" d="M480.052 581.5C489.993 581.5 498.052 589.559 498.052 599.5C498.052 609.331 490.171 617.321 480.383 617.498L480.052 617.5H149.5C139.559 617.5 131.5 609.442 131.5 599.5C131.5 589.67 139.381 581.68 149.169 581.503L149.5 581.5H480.052Z" fill="#C7D2F2" blush:i="0.0.2.0.0.7"/></g></g></g></g><g id="Master/Character/Standing [colors]" blush:has-customizable-colors="true" blush:component="Master/Character/Standing [colors]" blush:width="1110" blush:height="1500" transform="translate(249 562) scale(1 1)" blush:i="0.1" blush:value="Standing [colors]" blush:viewBox="-67.5 -172.5 1117.4999999999998 1672.4999999999998"><g id="Master/Character/Standing [colors]" blush:has-customizable-colors="true" blush:viewBox="-67.5 -172.5 1117.4999999999998 1672.4999999999998" blush:i="0.1.0"><g id="Lower Body/Standing" blush:component="Lower Body/Standing" blush:defaultValue="Blob Pant 1" blush:width="1110" blush:height="871" transform="translate(-64 629) scale(1 1)" blush:i="0.1.0.0" blush:value="Walking 1" blush:viewBox="172.04999999999995 -3.3329081632653015 826.9500000000002 877.6658163265307"><g id="Lower Body/Standing/Walking 1" blush:viewBox="172.04999999999995 -3.3329081632653015 826.9500000000002 877.6658163265307" blush:i="0.1.0.0.0"><path id="leg-2" fill-rule="evenodd" clip-rule="evenodd" d="M801 747.688C802.13 758.518 834.14 827.459 834.14 827.459C852.388 831.665 883.25 810.154 879.722 804.322C876.195 798.49 861.354 729 861.354 729C861.354 729 813.162 739.77 801 747.688" fill="#ff8282" blush:color="Skin-500" blush:i="0.1.0.0.0.0"/><path id="leg-1" fill-rule="evenodd" clip-rule="evenodd" d="M271.575 679C271.575 679 236.248 731.727 219.944 748.545C204.877 764.086 252.552 794 252.552 794L330 719.908L271.575 679Z" fill="#ff8282" blush:color="Skin-500" blush:i="0.1.0.0.0.1"/><path id="pant" fill-rule="evenodd" clip-rule="evenodd" d="M812.636 370.807C833.322 472.312 862.428 689.154 867 728.962C833.431 749.112 783.399 768.69 778.435 766.884C777.456 766.528 776.062 756.413 765.768 743.232C758.122 733.439 766.998 722.667 758.014 705.467C752.954 695.779 748.774 693.582 748.887 672.382C748.919 666.21 746.422 647.889 744.814 641.642C728.117 576.739 711.117 504.272 695.221 450.757C672.52 374.321 601.527 251.59 601.527 251.59C601.527 251.59 571.896 344.449 540.536 422.884C481.274 571.098 354.398 741.893 343.473 751.365C337.687 756.38 260.476 706.024 256 676.918C271.602 653.767 264.047 653.137 274.435 635.817C279.818 626.842 288.328 626.942 293.391 611.907C298.137 597.822 297.803 589.742 311.974 576.689C330.423 559.698 341.064 531.222 347.274 519.221C379.68 456.595 409.797 387.02 418.593 330.016C451.475 116.905 446.064 72.8723 512.302 0.421702C579.053 -1.91741 636.901 -0.972368 688.017 0.421702C689.413 32.8883 790.364 261.525 812.636 370.807Z" fill="#090E2B" blush:i="0.1.0.0.0.2"/><g id="shoe-1" blush:i="0.1.0.0.0.3"><path id="Fill 7" fill-rule="evenodd" clip-rule="evenodd" d="M327.67 852.488C322.415 829.363 297.251 826.707 281.95 804.618C277.629 798.38 282.34 784.816 273.928 779.907C261.679 772.758 261.121 792.611 240.209 771.449C234.672 765.847 236.562 754.982 227.23 746.789C225.713 745.458 223.136 739.795 214.272 745.496C209.33 748.673 181.434 767.495 180.986 780.686C213.029 811.247 235.817 839.7 260.198 852.224C277.964 861.35 291.192 864.312 324.119 866.762C331.249 867.293 329.031 858.477 327.67 852.488" fill="#090E2B" blush:i="0.1.0.0.0.3.0"/><path id="Fill 9" fill-rule="evenodd" clip-rule="evenodd" d="M308.13 870.85C275.176 870.85 261.836 863.504 241.061 847.904C223.726 834.886 207.247 817.329 194.026 804.301C171.429 782.034 175.275 776.727 178.359 773.064C184.917 765.273 189.515 763.109 191.984 762.887C209.185 761.34 211.174 791.943 208.995 803.439C225.75 821.26 238.325 835.946 253.408 846.051C274.47 860.163 287.574 862.513 327.703 865.78C324.825 871.746 316.669 870.85 308.13 870.85" fill="#FFB201" blush:i="0.1.0.0.0.3.1"/><path id="Fill 12" fill-rule="evenodd" clip-rule="evenodd" d="M264.902 815.62C264.323 817.261 278.846 811.953 286.814 813.277C287.063 813.318 281.146 816.266 278.178 820.27C276.673 822.3 276.119 823.515 278.333 822.876C291.347 819.123 295.016 820.759 296.593 820.443C301.29 819.504 294.054 816.085 283.943 818.378C286.394 816.817 290.253 814.241 289.59 812.625C287.33 807.116 265.913 812.755 264.902 815.62" fill="#FFB201" blush:i="0.1.0.0.0.3.2"/></g><path id="Fill 14" fill-rule="evenodd" clip-rule="evenodd" d="M614.374 218.774C611.466 229.242 607.297 242.804 603.945 250.791C602.448 254.359 602.224 252.627 602 252.237C606.555 230.249 613.166 208.253 619.106 186.501C624.951 167.998 629.2 137.528 639 122C628.918 151.512 622.905 188.066 614.374 218.774Z" fill="white" blush:i="0.1.0.0.0.4"/><g id="shoe-2" blush:i="0.1.0.0.0.5"><path id="Fill 16" fill-rule="evenodd" clip-rule="evenodd" d="M991.636 799.287C980.838 785.371 940.441 788.323 911.138 790.091C901.275 790.685 884.063 782.119 878.351 784.382C870.034 787.678 884.698 802.294 856.022 811.021C848.43 813.332 845.016 805.629 828.184 809.734C825.449 810.401 821.244 811.353 820.073 818.917C819.419 823.134 823.069 857.718 835.559 867.807C890.509 849.357 945.988 827.522 994.182 809.417C998.888 807.648 994.399 802.848 991.636 799.287" fill="#090E2B" blush:i="0.1.0.0.0.5.0"/><path id="Fill 18" fill-rule="evenodd" clip-rule="evenodd" d="M985.912 818.675L855.415 868.927C846.757 872.485 832.511 874.261 828.575 867.424C825.635 862.317 823.412 849.671 823.562 848.721C824.612 842.1 852.381 837.228 866.76 853.045C915.992 839.146 996.322 805.85 996.322 805.85C996.322 805.85 1000.18 812.618 985.912 818.675" fill="#FFB201" blush:i="0.1.0.0.0.5.1"/><path id="Fill 21" fill-rule="evenodd" clip-rule="evenodd" d="M920.736 799.46C921.639 791.092 922.716 789.301 920.82 788.728C916.284 787.357 901.204 802.21 901.573 807.637C901.85 811.705 910.011 796.661 919.051 791.562C916.434 796.632 916.822 809.105 919.89 805.471C934.843 787.764 938.74 789.183 938.616 788.772C938.031 786.82 930.315 787.885 920.736 799.46" fill="#FFB201" blush:i="0.1.0.0.0.5.2"/></g><path id="Fill 23" fill-rule="evenodd" clip-rule="evenodd" d="M288 683C308.821 702.793 330.901 721.303 355 737C329.265 729.245 305.634 702.126 288 683" fill="#FFB201" blush:i="0.1.0.0.0.6"/><path id="Fill 25" fill-rule="evenodd" clip-rule="evenodd" d="M864 705C856.172 711.877 845.458 715.019 836.363 719.891C827.307 724.367 816.517 730.379 807 731C818.063 723.896 830.523 719.754 842.253 714.006C849.066 711.357 857.1 705.054 864 705" fill="#FFB201" blush:i="0.1.0.0.0.7"/></g></g><g id="Upper Body/Standing" blush:component="Upper Body/Standing" blush:defaultValue="Talking 1" blush:width="906" blush:height="1041" transform="translate(69 -172) scale(1 1)" blush:i="0.1.0.1" blush:value="Mobile Chat  2" blush:viewBox="315.01724137931035 411.19499999999994 380.10344827586215 567.3449999999999"><g id="Upper Body/Standing/Mobile Chat  2" blush:viewBox="315.01724137931035 411.19499999999994 380.10344827586215 567.3449999999999" blush:i="0.1.0.1.0"><path id="Fill 1" fill-rule="evenodd" clip-rule="evenodd" d="M652.278 935.742C652.46 939.213 650.088 951.435 654.997 956.297C663.559 964.774 663.474 972.706 665.9 968.021C666.736 966.407 666.648 964.634 666.433 962.476C665.887 957.014 663.331 954.157 663.063 953.203C666.311 953.098 669.865 955.334 671.39 960.74C672.773 965.642 678.084 974.618 685.124 977.381C692.36 980.22 692.426 977.346 690.404 969.36C688.149 960.451 689.569 952.58 686.586 945.067C684.043 938.662 670.269 924.239 668.398 918.335C662.25 898.948 655.928 875.548 655.928 875.548C655.928 875.548 604.321 868.166 614.609 888.892C625.528 910.886 652.098 932.272 652.278 935.742" fill="#ff8282" blush:color="Skin-500" blush:i="0.1.0.1.0.0"/><path id="Fill 4" fill-rule="evenodd" clip-rule="evenodd" d="M432.656 477.84C426.6 481.727 417.795 483.936 410.054 488.543C402.314 493.151 439.091 510.117 459.21 523.743C487.213 542.708 503.578 543.671 512.973 533.863C522.367 524.055 532 511.226 532 503.025C532 494.824 506.499 492.637 497.133 481.6C491.83 475.351 497.133 429.415 491.83 430.987C486.528 432.559 435.815 401.882 439.633 415.491C447.588 443.84 445.312 469.718 432.656 477.84Z" fill="#ff8282" blush:color="Skin-500" blush:i="0.1.0.1.0.1"/><path id="Fill 7" fill-rule="evenodd" clip-rule="evenodd" d="M589.352 557.57C576.253 536.01 570.503 528.936 559.716 518.628C543.099 502.745 515.462 491.415 515.462 491.415C513.302 505.594 501.995 520.577 491.796 520.667C467.383 520.883 413.261 486 413.261 486C413.261 486 377.69 499.102 354.492 528.562C331.083 558.29 319.967 639.447 351.158 721.745C366.093 761.149 315.86 836.31 342.712 831.662C385.365 824.279 385.387 804.394 476.181 823.049C522.533 832.573 549.576 827.925 563.903 819.504C576.357 863.843 595.983 901.667 601.181 899.943C629.744 890.473 647.864 893.66 660 882.249C635.169 811.958 615.701 754.5 613.122 732.945C603.702 654.227 610.432 592.264 589.352 557.57Z" fill="#3615F6" blush:i="0.1.0.1.0.2"/><g id="Mobile" blush:i="0.1.0.1.0.3"><path id="Fill 9" fill-rule="evenodd" clip-rule="evenodd" d="M545.981 589.891C544.337 562.948 544.835 539.866 546.905 512.275C547.221 508.056 548.947 505.471 552.398 505.304C563.9 504.747 575.082 505.12 586.182 505.144C590.861 505.154 593.035 508.606 593.313 512.828C595.023 538.709 594.913 564.806 592.389 590.443C591.975 594.654 588.533 597.995 585.078 597.954C574.422 597.828 563.768 597.701 553.113 597.574C549.658 597.533 546.416 594.099 545.981 589.891" fill="#FFB201" blush:i="0.1.0.1.0.3.0"/><path id="Fill 11" fill-rule="evenodd" clip-rule="evenodd" d="M572.249 518.228C570.245 518.495 568.404 517.086 568.138 515.082C567.87 513.079 569.278 511.238 571.282 510.97C573.287 510.704 575.128 512.112 575.395 514.116C575.662 516.12 574.254 517.96 572.249 518.228" fill="white" blush:i="0.1.0.1.0.3.1"/></g><path id="Fill 13" fill-rule="evenodd" clip-rule="evenodd" d="M492 592.046C492 592.046 529.912 569.674 533.927 562.261C535.322 559.684 536.495 551.223 537.423 548.985C543.533 534.236 537.941 530.803 542.564 531.009C551.322 531.397 544.002 545.736 548.731 546.526C553.175 547.267 573.497 542.996 581.855 536.337C589.768 530.033 593.335 562.466 580.635 571.528C564.238 583.226 560.175 580.611 556.708 583.84C548.906 591.111 523.829 633 523.829 633L492 592.046Z" fill="#ff8282" blush:color="Skin-500" blush:i="0.1.0.1.0.4"/><path id="Fill 15" fill-rule="evenodd" clip-rule="evenodd" d="M375.714 752.934C434.685 750.168 538 635.591 538 635.591L502.758 582.821L405.553 641.927C405.553 641.927 426.417 589.065 426.84 578.484C427.105 571.868 382.566 516.477 357.124 526.125C347.367 529.825 331.305 577.686 325.995 605.296C313.34 671.115 316.742 755.698 375.714 752.934Z" fill="#3615F6" blush:i="0.1.0.1.0.5"/><path id="Fill 1" fill-rule="evenodd" clip-rule="evenodd" d="M536.878 631.322C526.105 614.7 514.677 598.509 503.397 582.239C503.002 581.664 502.215 581.493 501.616 581.863C472.009 599.521 438.694 619.711 408.878 637.9C419.129 614.234 428.535 589.42 429.216 563.444C429.24 562.89 428.4 562.846 428.323 563.362C427.187 570.121 425.931 576.858 424.344 583.46C411.192 642.495 382.809 658.427 430.431 628.654C452.667 615.124 479.651 598.589 501.933 584.789C513.459 601.452 526.168 619.316 536.45 635.692C528.366 645.812 516.593 658.892 506.361 669.182C480.776 694.955 453.245 719.358 421.902 737.908C401.173 751.239 377.162 757.296 353.331 748.565C351.231 749.187 359.73 751.92 361.721 752.34C376.578 756.687 393.069 755.827 407.009 748.867C458.019 724.166 499.426 683.091 535.965 640.528C539.345 636.081 540.253 636.267 536.878 631.322" fill="#090E2B" blush:i="0.1.0.1.0.6"/><path id="Fill 19" fill-rule="evenodd" clip-rule="evenodd" d="M560.181 718.018C563.031 740.371 569.464 762.852 574.853 784.852C576.659 793.786 581.569 804.258 573.551 811.909C570.133 815.173 567.081 817.209 563.082 819.761C562.82 819.933 562.079 820.112 562.321 819.91C566.152 816.689 569.221 814.15 571.965 810.596C574.772 807.156 576.369 803.289 574.827 798.932C573.173 791.321 569.153 777.007 567.143 769.313C562.464 751.508 558.909 736.741 556.668 718.423C554.509 699.905 558.095 681.666 560.181 663.464C562.494 645.399 562.317 625.658 556.696 608.224C556.466 607.599 557.493 608.353 558.045 609.601C572.861 645.882 556.965 681.377 560.181 718.018Z" fill="#090E2B" blush:i="0.1.0.1.0.7"/></g></g><g id="Head" blush:component="Head" blush:defaultValue="Long Hair Dark" blush:width="300" blush:height="300" transform="translate(399 26) scale(1 1)" blush:i="0.1.0.2" blush:value="Curls Dark" blush:viewBox="0 55.5 262.50000000000006 264"><g id="Head/Curls Dark" blush:viewBox="0 55.5 262.50000000000006 264" blush:i="0.1.0.2.0"><path id="Fill 1" fill-rule="evenodd" clip-rule="evenodd" d="M209.13 107.576C209.13 107.576 211.111 98.2315 225.677 99.2915C249.228 101.004 253.478 123.99 248.075 146.511C244.27 162.375 239.184 174.874 240.786 183.662C243.858 200.497 252.55 201.287 259.26 219.753C269.914 249.073 243.101 251.211 242.842 256.473C241.589 281.97 233.236 293.7 218.556 299.278C196.912 307.503 174.192 296.726 162.706 276.671C153.09 259.879 162.706 241.459 162.706 241.459L215.403 190.681L209.13 107.576Z" fill="#090E2B" blush:i="0.1.0.2.0.0"/><path id="Fill 4" fill-rule="evenodd" clip-rule="evenodd" d="M205.767 97.1399C205.767 97.1399 221.196 104.729 228.478 125.988C232.573 137.942 231.011 152.622 233.289 173.308C238.947 224.664 223.805 264.735 195.664 263.775C162.246 262.634 133.329 242.675 117.287 231.071C101.244 219.465 98.3012 204.971 98.1382 182.023C97.9762 159.075 98.8112 109.753 113.625 108.302C128.44 106.852 175.746 74.3719 205.767 97.1399" fill="#ff8282" blush:color="Skin-500" blush:i="0.1.0.2.0.1"/><path id="Fill 6" fill-rule="evenodd" clip-rule="evenodd" d="M107.061 192.611C107.085 200.502 138.572 221.412 121.831 250.892C133.198 262.711 129.991 309.253 81.1124 302.641C59.6644 331.329 14.1904 319.58 19.4464 288.852C6.01236 286.241 -0.562643 264.295 1.31436 251.892C6.17836 219.753 36.7984 215.753 36.7984 215.753C32.9554 178.829 66.6264 187.586 61.9484 162.168C57.3234 137.036 62.3714 102.183 88.8184 98.0927C92.4274 61.9707 139.068 45.6877 171.823 62.8627C179.557 55.7807 232.352 47.4767 231.247 95.8587C230.872 112.288 218.117 134.291 199.535 138.047C186.424 140.699 163.173 136.077 155.2 145.862C144.293 159.247 142.437 162.533 125.877 170.982C119.458 174.256 114.916 170.982 114.916 170.982C114.916 170.982 107.001 173.251 107.061 192.611Z" fill="#090E2B" blush:i="0.1.0.2.0.2"/><path id="Fill 9" fill-rule="evenodd" clip-rule="evenodd" d="M114.678 200.632C107.568 204.795 97.8472 199.587 92.2142 195.791C80.0062 187.565 80.4822 174.231 90.2832 167.039C97.4452 161.785 107.435 162.844 116.501 170.503C124.314 177.104 122.709 195.929 114.678 200.632" fill="#ff8282" blush:color="Skin-500" blush:i="0.1.0.2.0.3"/><path id="Fill 11" fill-rule="evenodd" clip-rule="evenodd" d="M96.0162 174.113C101.095 173.183 106.796 173.852 110.409 179.189C112.059 181.628 112.088 184.407 112.941 187.201C113.034 187.506 112.054 188.229 110.665 184.869C108.859 180.502 105.591 177.749 102.748 176.553C99.0452 174.997 94.5922 176.048 93.9242 175.4C93.2282 174.725 95.4482 174.217 96.0162 174.113" fill="black" blush:i="0.1.0.2.0.4"/><path id="Fill 13" fill-rule="evenodd" clip-rule="evenodd" d="M109.899 183.543C107.33 182.219 102.433 184.586 102.233 184.079C101.612 182.51 108.213 179.771 110.38 181.536C111.971 182.832 111.725 184.484 109.899 183.543" fill="black" blush:i="0.1.0.2.0.5"/><path id="Fill 15" fill-rule="evenodd" clip-rule="evenodd" d="M133.434 241.697C134.317 242.081 139.01 244.788 141.079 245.889C144.872 247.91 148.686 249.905 152.55 251.727C154.541 252.671 159.332 254.343 158.687 254.904C157.447 255.98 146.676 251.956 139.861 247.463C136.238 245.075 131.925 241.043 133.434 241.697" fill="#090E2B" blush:i="0.1.0.2.0.6"/></g></g><g id="Expressions" blush:component="Expressions" blush:defaultValue="Calm 1" blush:width="120" blush:height="120" transform="translate(520 159) scale(1 1)" blush:i="0.1.0.3" blush:value="Relaxed" blush:viewBox="22.799999999999997 15.599999999999994 85.80000000000001 91.80000000000001"><g id="Expressions/Relaxed" blush:viewBox="22.799999999999997 15.599999999999994 85.80000000000001 91.80000000000001" blush:i="0.1.0.3.0"><path id="Fill 1" fill-rule="evenodd" clip-rule="evenodd" d="M93.917 85.9778C78.288 85.3498 67.34 84.9098 56.819 84.4878C53.549 84.3558 50.673 90.0738 56.294 97.5688C64.259 108.189 84.891 111.876 93.281 99.0538C97.555 92.5238 97.31 86.1148 93.917 85.9778" fill="white" blush:i="0.1.0.3.0.0"/><path id="nose" fill-rule="evenodd" clip-rule="evenodd" d="M82.7871 55.7084C86.8281 59.4834 96.9611 74.6464 87.8281 76.8394C85.9421 77.2914 77.3211 77.5114 78.5921 75.6374C79.6051 74.1434 85.9771 75.0244 86.8981 72.1854C88.1081 68.4554 83.7121 61.1524 80.9721 56.1434C80.5011 55.2804 82.1521 54.9674 82.7871 55.7084" fill="#090E2B" blush:i="0.1.0.3.0.1"/><path id="eye" fill-rule="evenodd" clip-rule="evenodd" d="M101.14 49.4726C102.716 48.4496 104.002 46.9449 104.812 43.8791C105.442 41.4928 104.117 41.182 103.446 41.8768C103.179 42.1534 102.89 42.5185 102.567 42.9254C101.4 44.4003 99.7974 46.4242 97.2379 46.7697C95.5386 47 93.0129 46.5252 90.427 44.7174C88.7963 43.5795 87.3545 43.558 88.271 45.8261C89.496 48.8593 96.5465 52.4533 101.14 49.4726ZM45.7528 54.7979C53.7067 59.04 63.5732 54.6834 63.3552 47.0155C63.2851 44.5515 61.754 44.5133 60.8831 46.19C58.6542 50.4862 51.8747 54.579 43.8676 49.2316C43.8604 49.2268 43.853 49.2219 43.8454 49.2169C43.2217 48.8006 41.4469 47.6162 40.7587 48.3637C39.6704 49.5454 41.6555 52.6145 45.7528 54.7979Z" fill="#090E2B" blush:i="0.1.0.3.0.2"/><path id="eybrow" fill-rule="evenodd" clip-rule="evenodd" d="M106.892 19.0603C97.9002 11.4322 82.9075 17.8364 81.4786 26.4153C80.9228 29.7588 84.7289 30.4299 86.5262 28.5224C93.1586 21.4848 101.912 23.1875 105.337 23.8539C106.047 23.9919 106.528 24.0854 106.714 24.0478C109.751 23.4369 108.668 20.5673 106.892 19.0603ZM27.9799 30.9433C38.6859 22.6052 49.269 24.8492 60.7363 31.6406C64.9372 32.9563 65.9182 27.4971 62.7947 24.082C55.9812 16.6332 41.7869 15.2534 31.6092 20.0844C28.5028 21.5578 24.6711 25.6739 23.7097 27.9688C22.3602 31.1906 24.1328 33.9401 27.9799 30.9433Z" fill="#090E2B" blush:i="0.1.0.3.0.3"/></g></g><g id="Facial Accesories" blush:component="Facial Accesories" blush:defaultValue="None" blush:width="120" blush:height="110" transform="translate(517 209) scale(120 110)" blush:i="0.1.0.4" blush:value="None" blush:viewBox="1.75 1.75 0 0"><g id="Facial Accesories/None" stroke="none" stroke-width="1" fill="none" fill-rule="evenodd" fill-opacity="0" blush:viewBox="1.75 1.75 0 0" blush:i="0.1.0.4.0"/></g><g id="Glass" blush:component="Glass" blush:defaultValue="None" blush:width="120" blush:height="75" transform="translate(520 164) scale(120 75)" blush:i="0.1.0.5" blush:value="None" blush:viewBox="1.75 1.75 0 0"><g id="Glass/None" stroke="none" stroke-width="1" fill="none" fill-rule="evenodd" fill-opacity="0" blush:viewBox="1.75 1.75 0 0" blush:i="0.1.0.5.0"/></g></g></g><g id="Master/Character/Standing [colors]" blush:has-customizable-colors="true" blush:component="Master/Character/Standing [colors]" blush:width="1110" blush:height="1500" transform="matrix(-1 0 0 1 2970 562) scale(1 1)" blush:i="0.2" blush:value="Standing [colors]" blush:viewBox="-67.5 -172.5 1117.4999999999998 1672.4999999999998"><g id="Master/Character/Standing [colors]" blush:has-customizable-colors="true" blush:viewBox="-67.5 -172.5 1117.4999999999998 1672.4999999999998" blush:i="0.2.0"><g id="Lower Body/Standing" blush:component="Lower Body/Standing" blush:defaultValue="Blob Pant 1" blush:width="1110" blush:height="871" transform="translate(-64 629) scale(1 1)" blush:i="0.2.0.0" blush:value="Jump 1" blush:viewBox="166.5 -3.3329081632653015 560.5500000000002 483.2716836734693"><g id="Lower Body/Standing/Jump 1" blush:viewBox="166.5 -3.3329081632653015 560.5500000000002 483.2716836734693" blush:i="0.2.0.0.0"><g id="shoe-2" blush:i="0.2.0.0.0.0"><path id="leg-1" fill-rule="evenodd" clip-rule="evenodd" d="M518.88 169.66C544.954 182.323 513.089 261.4 504.997 259C496.905 256.599 416.521 168.1 416.521 168.1C416.521 168.1 409.928 136.884 451.096 126.927C451.096 126.927 491.213 156.224 518.88 169.66Z" fill="#757eff" blush:color="Skin-500" blush:i="0.2.0.0.0.0.0"/><path id="Fill 3" fill-rule="evenodd" clip-rule="evenodd" d="M435.249 200.159C439.839 200.845 442.102 192.616 437.125 182.222C431.998 171.511 421.192 170.829 421.411 167.88C422.296 155.943 439.266 134.248 444.136 133.271C450.209 132.055 455.957 134.625 459.127 131.524C462.297 128.425 445.615 94.4165 429.524 95.6005C413.433 96.7855 401.906 107.65 396.421 127.314C390.935 146.978 361.268 173.045 357.743 187.942C354.217 202.839 347.133 242.651 361.546 250.064C375.959 257.477 379.781 250.665 382.889 246.952C385.094 244.317 410.696 196.49 435.249 200.159" fill="#090E2B" blush:i="0.2.0.0.0.0.1"/><path id="Fill 5" fill-rule="evenodd" clip-rule="evenodd" d="M438.112 98.6164C438.112 98.6164 427.703 117.102 415.599 125.713C405.107 133.177 336.154 195.904 362.228 241.938C368.75 253.454 376.403 252.648 376.403 252.648C376.403 252.648 375.173 254.873 369.45 254.191C363.2 253.448 352.987 247.939 349.96 238.222C344.161 219.608 345.401 190.958 367.26 165.311C386.101 143.207 392.654 137.314 393.489 130.611C394.166 125.173 403.299 102.573 420.985 90.5764C424.945 87.8904 436.885 95.2784 438.112 98.6164" fill="#FFB201" blush:i="0.2.0.0.0.0.2"/></g><g id="shoe-1" blush:i="0.2.0.0.0.1"><path id="leg-1" fill-rule="evenodd" clip-rule="evenodd" d="M352.635 214.017C378.709 226.68 327.947 286.171 319.855 283.771C311.763 281.37 236.521 204.1 236.521 204.1C236.521 204.1 229.928 172.884 271.096 162.927C271.096 162.927 324.968 200.581 352.635 214.017Z" fill="#757eff" blush:color="Skin-500" blush:i="0.2.0.0.0.1.0"/><path id="Fill 3_2" fill-rule="evenodd" clip-rule="evenodd" d="M255.249 236.159C259.839 236.845 262.102 228.616 257.125 218.222C251.998 207.511 241.192 206.829 241.411 203.88C242.296 191.943 259.266 170.248 264.136 169.271C270.209 168.055 275.957 170.625 279.127 167.524C282.297 164.425 265.615 130.417 249.524 131.601C233.433 132.786 221.906 143.65 216.421 163.314C210.935 182.978 181.268 209.045 177.743 223.942C174.217 238.839 167.133 278.651 181.546 286.064C195.959 293.477 199.781 286.665 202.889 282.952C205.094 280.317 230.696 232.49 255.249 236.159" fill="#090E2B" blush:i="0.2.0.0.0.1.1"/><path id="Fill 5_2" fill-rule="evenodd" clip-rule="evenodd" d="M258.112 134.616C258.112 134.616 247.703 153.102 235.599 161.713C225.107 169.177 156.154 231.904 182.228 277.938C188.75 289.454 196.403 288.648 196.403 288.648C196.403 288.648 195.173 290.873 189.45 290.191C183.2 289.448 172.987 283.939 169.96 274.222C164.161 255.608 165.401 226.958 187.26 201.311C206.101 179.207 212.654 173.314 213.489 166.611C214.166 161.173 223.299 138.573 240.985 126.576C244.945 123.89 256.885 131.278 258.112 134.616" fill="#FFB201" blush:i="0.2.0.0.0.1.2"/></g><path id="pant" fill-rule="evenodd" clip-rule="evenodd" d="M707.51 104.92C705.23 46.7575 680.14 -0.000488281 680.14 -0.000488281L602.024 0.486378C601.779 0.386643 601.533 0.287651 601.285 0.189412H511.107C511.107 0.189412 469.772 42.8384 471.211 129.902C472.307 196.2 484.6 238.788 492.581 266.436C495.29 275.819 497.502 283.482 498.611 289.766C496.947 288.565 495.261 287.345 493.553 286.11C456.422 259.254 408.995 224.951 355.932 206.738C355.112 207.793 353.957 209.219 352.535 210.974C336.256 231.072 285.076 294.255 303.074 335.211C315.924 345.171 338.552 358.91 363.882 374.29C397.603 394.765 436.113 418.148 462.714 439.391C509.295 476.592 544.353 483.007 568.378 466.965C585.235 455.709 596.419 444.431 605.682 411.487C619.926 418.513 641.426 424.396 659.416 425.396C688.631 427.02 709.567 385.477 716.708 362.201C731.571 313.769 716.761 186.608 710.24 130.612C708.715 117.518 707.643 108.315 707.51 104.92Z" fill="#FFB201" blush:i="0.2.0.0.0.2"/><path id="shade" fill-rule="evenodd" clip-rule="evenodd" d="M671.099 33.3726C671.366 33.8992 671.635 34.4328 671.907 34.9721C677.704 46.4747 684.793 60.5395 698.571 62.6696C699.045 62.7096 699.396 63.1376 699.341 63.6106C688.504 67.5516 677.826 52.9316 673.735 44.0926C673.703 44.0188 673.65 43.901 673.58 43.7458L673.58 43.7457C672.562 41.4889 667.979 31.3227 671.099 33.3726ZM487.674 81.8794C506.159 76.8504 518.847 60.1524 525.364 42.8934C525.365 42.8934 528.023 35.1754 528.023 35.1754C528.085 34.9484 528.714 34.1784 528.938 34.2574C526.734 50.2654 517.06 67.5414 503.334 76.9554C502.502 78.3934 483.905 86.6044 487.674 81.8794ZM628.372 121.419C630.03 150.455 630.19 179.613 629.772 208.481C628.143 268.773 624.774 329.763 611.776 388.696C610.103 396.281 606.585 411.582 605.805 411.606C605.767 411.607 605.724 411.644 605.681 411.679C605.504 411.826 605.351 411.953 605.762 409.427C606.287 406.206 607.161 401.372 608.143 395.94C610.037 385.47 612.333 372.778 613.301 365.13C625.308 284.55 630.007 202.388 625.962 120.989C625.124 106.156 623.796 89.2733 622.165 74.5133C621.764 69.607 620.917 63.2829 620.153 57.587L620.153 57.5867L620.153 57.586L620.153 57.5858L620.153 57.5856C619.858 55.3796 619.575 53.2679 619.335 51.3693C619.274 50.3678 619.067 48.8249 618.846 47.1794L618.846 47.1792C618.315 43.214 617.703 38.653 618.856 39.6353C623.747 65.7846 626.635 92.3663 628.234 119.061C642.201 112.096 640.995 83.7238 640.28 66.9072L640.28 66.9054C640.19 64.7821 640.108 62.8431 640.064 61.1547C640.25 60.4246 639.839 57.1881 639.361 53.4219L639.36 53.4214C638.461 46.34 637.324 37.3866 639.466 39.7007C642.692 57.8554 649.46 113.453 628.372 121.419ZM498.264 290.139C502.82 295.725 506.767 301.696 510.734 307.706C516.061 309.464 500.757 288.07 498.336 289.404C498.107 289.583 498.076 289.919 498.264 290.139Z" fill="#090E2B" blush:i="0.2.0.0.0.3"/></g></g><g id="Upper Body/Standing" blush:component="Upper Body/Standing" blush:defaultValue="Talking 1" blush:width="906" blush:height="1041" transform="translate(69 -172) scale(1 1)" blush:i="0.2.0.1" blush:value="Mobile Chat 1" blush:viewBox="315.01724137931035 411.19499999999994 380.10344827586215 567.3449999999999"><g id="Upper Body/Standing/Mobile Chat 1" blush:viewBox="315.01724137931035 411.19499999999994 380.10344827586215 567.3449999999999" blush:i="0.2.0.1.0"><path id="Fill 1" fill-rule="evenodd" clip-rule="evenodd" d="M652.278 935.742C652.46 939.213 650.088 951.435 654.997 956.297C663.559 964.774 663.474 972.706 665.9 968.022C666.736 966.407 666.648 964.634 666.433 962.476C665.887 957.014 663.331 954.157 663.063 953.203C666.311 953.098 669.865 955.334 671.39 960.74C672.773 965.642 678.084 974.618 685.124 977.382C692.36 980.22 692.426 977.346 690.404 969.36C688.149 960.451 689.569 952.58 686.586 945.067C684.043 938.662 670.269 924.239 668.398 918.335C662.25 898.948 655.928 875.549 655.928 875.549C655.928 875.549 604.321 868.166 614.609 888.892C625.528 910.886 652.098 932.272 652.278 935.742" fill="#757eff" blush:color="Skin-500" blush:i="0.2.0.1.0.0"/><path id="Fill 4" fill-rule="evenodd" clip-rule="evenodd" d="M432.656 477.84C426.6 481.727 417.795 483.936 410.054 488.543C402.314 493.151 439.091 510.117 459.21 523.743C487.213 542.708 503.578 543.671 512.973 533.863C522.367 524.055 532 511.226 532 503.025C532 494.824 506.499 492.637 497.133 481.6C491.83 475.351 497.133 429.415 491.83 430.987C486.528 432.559 435.815 401.882 439.633 415.491C447.588 443.84 445.312 469.718 432.656 477.84Z" fill="#757eff" blush:color="Skin-500" blush:i="0.2.0.1.0.1"/><path id="Fill 7" fill-rule="evenodd" clip-rule="evenodd" d="M589.352 557.57C576.253 536.01 570.503 528.936 559.716 518.628C543.099 502.745 515.462 491.415 515.462 491.415C513.302 505.594 501.995 520.577 491.796 520.667C467.383 520.883 413.261 486 413.261 486C413.261 486 377.69 499.102 354.492 528.562C331.083 558.29 319.967 639.447 351.158 721.745C366.093 761.149 315.86 836.31 342.712 831.662C385.365 824.279 385.387 804.394 476.181 823.049C522.533 832.573 549.576 827.925 563.903 819.504C576.357 863.843 595.983 901.667 601.181 899.943C629.744 890.473 647.864 893.66 660 882.249C635.169 811.958 615.701 754.5 613.122 732.945C603.702 654.227 610.432 592.264 589.352 557.57Z" fill="#FF0057" blush:i="0.2.0.1.0.2"/><g id="Mobile" blush:i="0.2.0.1.0.3"><path id="Fill 9" fill-rule="evenodd" clip-rule="evenodd" d="M545.981 589.891C544.337 562.948 544.835 539.866 546.905 512.275C547.221 508.056 548.947 505.471 552.398 505.304C563.9 504.747 575.082 505.12 586.182 505.144C590.861 505.154 593.035 508.606 593.313 512.828C595.023 538.709 594.913 564.806 592.389 590.443C591.975 594.654 588.533 597.995 585.078 597.954C574.422 597.828 563.768 597.701 553.113 597.574C549.658 597.533 546.416 594.099 545.981 589.891" fill="#090E2B" blush:i="0.2.0.1.0.3.0"/><path id="Fill 11" fill-rule="evenodd" clip-rule="evenodd" d="M572.249 518.228C570.245 518.495 568.404 517.086 568.138 515.082C567.87 513.079 569.278 511.238 571.282 510.97C573.287 510.704 575.128 512.112 575.395 514.116C575.662 516.12 574.254 517.96 572.249 518.228" fill="#FFB201" blush:i="0.2.0.1.0.3.1"/></g><path id="Fill 13" fill-rule="evenodd" clip-rule="evenodd" d="M492 592.046C492 592.046 529.912 569.674 533.927 562.261C535.322 559.684 536.495 551.223 537.423 548.985C543.533 534.236 537.941 530.803 542.564 531.009C551.322 531.397 544.002 545.736 548.731 546.526C553.175 547.267 573.497 542.996 581.855 536.337C589.768 530.033 593.335 562.466 580.635 571.528C564.238 583.226 560.175 580.611 556.708 583.84C548.906 591.111 523.829 633 523.829 633L492 592.046Z" fill="#757eff" blush:color="Skin-500" blush:i="0.2.0.1.0.4"/><path id="Fill 15" fill-rule="evenodd" clip-rule="evenodd" d="M375.714 752.934C434.685 750.168 538 635.591 538 635.591L502.758 582.821L405.553 641.927C405.553 641.927 426.417 589.065 426.84 578.484C427.105 571.868 382.566 516.477 357.124 526.125C347.367 529.825 331.305 577.686 325.995 605.296C313.34 671.115 316.742 755.698 375.714 752.934Z" fill="#FF0057" blush:i="0.2.0.1.0.5"/><path id="Fill 1" fill-rule="evenodd" clip-rule="evenodd" d="M536.878 631.322C526.105 614.7 514.677 598.509 503.397 582.239C503.002 581.664 502.215 581.493 501.616 581.863C472.009 599.521 438.694 619.711 408.878 637.9C419.129 614.234 428.535 589.42 429.216 563.444C429.24 562.89 428.4 562.846 428.323 563.362C427.187 570.121 425.931 576.858 424.344 583.46C411.192 642.495 382.809 658.427 430.431 628.654C452.667 615.124 479.651 598.589 501.933 584.789C513.459 601.452 526.168 619.316 536.45 635.692C528.366 645.812 516.593 658.892 506.361 669.182C480.776 694.955 453.245 719.358 421.902 737.908C401.173 751.239 377.162 757.296 353.331 748.565C351.231 749.187 359.73 751.92 361.721 752.34C376.578 756.687 393.069 755.827 407.009 748.867C458.019 724.166 499.426 683.091 535.965 640.528C539.345 636.081 540.253 636.267 536.878 631.322" fill="#090E2B" blush:i="0.2.0.1.0.6"/><path id="Fill 19" fill-rule="evenodd" clip-rule="evenodd" d="M560.181 718.018C563.031 740.371 569.464 762.852 574.853 784.852C576.659 793.786 581.569 804.258 573.551 811.909C570.133 815.173 567.081 817.209 563.082 819.761C562.82 819.933 562.079 820.112 562.321 819.91C566.152 816.689 569.221 814.15 571.965 810.596C574.772 807.156 576.369 803.289 574.827 798.932C573.173 791.321 569.153 777.007 567.143 769.313C562.464 751.508 558.909 736.741 556.668 718.423C554.509 699.905 558.095 681.666 560.181 663.464C562.494 645.399 562.317 625.658 556.696 608.224C556.466 607.599 557.493 608.353 558.045 609.601C572.861 645.882 556.965 681.377 560.181 718.018Z" fill="#090E2B" blush:i="0.2.0.1.0.7"/></g></g><g id="Head" blush:component="Head" blush:defaultValue="Long Hair Dark" blush:width="300" blush:height="300" transform="translate(399 26) scale(1 1)" blush:i="0.2.0.2" blush:value="Long Hair Hat Gray" blush:viewBox="-136.5 16.5 439.5 372"><g id="Head/Long Hair Hat Gray" blush:viewBox="-136.5 16.5 439.5 372" blush:i="0.2.0.2.0"><path id="Path 10" fill-rule="evenodd" clip-rule="evenodd" d="M70.2562 97.4989C70.2562 97.4989 48.6944 43.7932 97.6996 26.2653C146.705 8.73743 185.296 17.9742 190.236 59.3052C198.158 125.599 94.9178 158.925 70.2562 97.4989Z" fill="#090E2B" blush:i="0.2.0.2.0.0"/><path id="Fill 1" fill-rule="evenodd" clip-rule="evenodd" d="M146.176 222.265C53.2246 222.265 -22 206.483 -22 143.464C-22 80.4452 31.2017 46.2417 130.855 31.5907C230.508 16.9396 302 13.2005 302 96.4541C302 159.474 239.129 222.265 146.176 222.265Z" fill="#090E2B" blush:i="0.2.0.2.0.1"/><path id="Fill 3" fill-rule="evenodd" clip-rule="evenodd" d="M-106.282 235.5C-66.068 209.611 -17.1446 224.379 8.88736 215.123C51.1954 200.08 45.4882 152.69 85.35 135.013C96.1764 100.832 126.661 83.7612 171.659 83.7612C242.273 83.7612 244.239 140.447 245.971 150C252.336 185.102 239.116 253.488 252.47 276.992C274.888 316.454 264.527 342.215 252.837 351.627C240.235 361.774 203.569 352.484 195.614 345.892C180.433 333.313 165.115 328.377 165.115 286.672C157.189 274.503 156.722 270.9 158.512 256.127C160.666 238.353 162.691 222.274 124.435 215.123C127.545 245.856 132.654 267.017 118.354 282.576C104.054 298.134 89.6971 298.134 72.0618 304C35.0071 316.324 22.5879 420.655 -90.4692 376.973C-151.085 354.33 -146.495 261.389 -106.282 235.5Z" fill="#E3E4E6" blush:i="0.2.0.2.0.2"/><path id="Combined Shape" fill-rule="evenodd" clip-rule="evenodd" d="M232.575 234.655C240.592 218.766 243.748 193.622 234.766 156.81C232.702 148.348 231.768 140.973 230.975 134.711C228.319 113.731 227.245 105.249 190.535 110.271C163.009 114.037 120.164 131.23 112.624 161.39C112.624 161.39 112.49 163.053 112.357 165.813C101.569 153.837 85.3501 166.516 85.3501 176.745C85.3501 199.59 104.018 209.45 115.276 206.801C115.616 207.955 115.99 209.052 116.402 210.081C116.754 210.962 117.114 211.894 117.491 212.87C120.63 220.991 124.935 232.132 135.518 241.803C146.77 252.086 166.782 263.904 198.631 262.784C215.143 262.203 223.139 253.357 232.575 234.655Z" fill="#757eff" blush:color="Skin-500" blush:i="0.2.0.2.0.3"/><path id="Fill 8" fill-rule="evenodd" clip-rule="evenodd" d="M110.261 179.03C107.388 173.262 100.467 169.688 94.4889 173.724C93.1359 174.637 94.9599 175.262 95.5309 175.198C102.632 174.269 105.451 176.21 107.784 180.247C105.553 180.794 103.324 182.779 103.039 185.021C102.865 186.397 103.341 190.47 104.391 189.185C105.117 188.297 103.517 182.239 108.806 182.792C108.886 182.81 108.958 182.814 109.033 182.821C109.282 183.419 111.273 184.657 112.128 183.619C112.652 182.985 111.573 181.667 110.261 179.03" fill="#090E2B" blush:i="0.2.0.2.0.4"/><path id="Fill 9" fill-rule="evenodd" clip-rule="evenodd" d="M184.511 83.8578C156.443 85.8888 116.345 115.898 109.891 137.898C108.798 141.625 109.8 161.009 112.187 165.389C115.364 171.22 115.016 184.517 124.482 186.059C141.169 188.776 124.021 163.956 126.553 157.471C136.096 133.018 166.369 148.55 184.511 143.014C209.354 135.434 218.556 130.045 219.194 129.08C222.416 141.456 239.796 165.149 245.815 169.768C247.773 171.269 245.135 144.379 238.852 122.622C235.05 109.456 211.194 81.9268 184.511 83.8578Z" fill="#E3E4E6" blush:i="0.2.0.2.0.5"/><path id="Fill 11" fill-rule="evenodd" clip-rule="evenodd" d="M107.274 236.091C95.6422 236.091 86.1782 226.627 86.1782 214.995C86.1782 208.848 88.8402 202.929 93.5032 198.914C94.2692 199.697 95.1862 200.566 95.8692 201.149C91.8702 204.593 89.1782 209.722 89.1782 214.995C89.1782 224.973 97.2962 233.091 107.274 233.091C117.252 233.091 125.37 224.973 125.37 214.995C125.37 205.018 117.252 196.9 107.274 196.9C106.446 196.9 105.774 196.228 105.774 195.4C105.774 194.571 106.446 193.9 107.274 193.9C118.906 193.9 128.37 203.363 128.37 214.995C128.37 226.627 118.906 236.091 107.274 236.091" fill="white" blush:i="0.2.0.2.0.6"/><path id="Fill 4" fill-rule="evenodd" clip-rule="evenodd" d="M151.936 254.628C147.843 252.187 139.507 247.655 137.848 245.046C136.983 243.686 140.059 245.478 141.65 246.678C143.768 248.275 152.519 252.985 163.318 258.066C164.255 258.506 170.267 261.033 170.416 261.371C170.556 261.688 169.953 262.236 169.242 262.142C164.462 261.505 156.448 257.319 151.936 254.628Z" fill="#090E2B" blush:i="0.2.0.2.0.7"/></g></g><g id="Expressions" blush:component="Expressions" blush:defaultValue="Calm 1" blush:width="120" blush:height="120" transform="translate(520 159) scale(1 1)" blush:i="0.2.0.3" blush:value="Happy" blush:viewBox="21 10.200000000000003 89.4 91.80000000000001"><g id="Expressions/Happy" blush:viewBox="21 10.200000000000003 89.4 91.80000000000001" blush:i="0.2.0.3.0"><g id="eye1" blush:i="0.2.0.3.0.0"><path id="Fill 1" fill-rule="evenodd" clip-rule="evenodd" d="M21.0758 18.1794C22.852 10.1964 46.2248 7.39831 56.5098 13.5793C60.0658 15.6923 66.6698 21.4974 60.8228 24.6574C59.2788 25.3294 57.7788 24.6404 56.5098 23.8214C42.4918 14.0794 19.8377 23.7441 21.0758 18.1794Z" fill="#090E2B" blush:i="0.2.0.3.0.0.0"/><path id="Fill 6" fill-rule="evenodd" clip-rule="evenodd" d="M40.0385 32.611C34.7505 34.111 30.2175 38.361 29.7965 41.883C29.5415 44.011 37.8915 49.12 45.9445 49.517C56.5385 50.038 61.8785 44.299 61.8595 42.465C61.1465 36.915 54.7555 28.437 40.0385 32.611Z" fill="white" blush:i="0.2.0.3.0.0.1"/><path id="Fill 8" fill-rule="evenodd" clip-rule="evenodd" d="M56.4251 35.7687C48.2821 29.6147 35.6701 33.6247 29.7961 41.8827C29.4591 42.3107 29.5561 41.2337 29.7901 40.7427C32.6241 34.7957 37.7371 31.9887 43.6651 30.7647C47.2321 30.0277 50.5581 29.9677 54.0371 31.5257C55.3821 32.1267 57.7581 33.9587 59.5941 36.0307C61.0261 37.6457 62.2321 40.4147 60.5751 39.4357C59.2781 38.6687 57.5051 36.5857 56.4251 35.7687Z" fill="#090E2B" blush:i="0.2.0.3.0.0.2"/><path id="Fill 10" fill-rule="evenodd" clip-rule="evenodd" d="M45.8406 46.276C50.3676 46.276 54.0376 42.928 54.0376 38.797C54.0376 34.667 50.3676 31.318 45.8406 31.318C41.3136 31.318 37.6436 34.667 37.6436 38.797C37.6436 42.928 41.3136 46.276 45.8406 46.276Z" fill="#090E2B" blush:i="0.2.0.3.0.0.3"/></g><g id="eye2" blush:i="0.2.0.3.0.1"><path id="Fill 4" fill-rule="evenodd" clip-rule="evenodd" d="M104.459 16.8615C107.813 18.3492 112.278 23.2874 108.561 23.2874C104.844 23.2874 96.7934 22.233 91.3964 24.46C89.5114 24.942 88.0809 25.8644 86.1879 26.0894C81.8799 26.9284 79.5393 21.7686 82.5852 18.6493C86.0263 15.1253 97.6432 13.4545 104.459 16.8615Z" fill="#090E2B" blush:i="0.2.0.3.0.1.0"/><path id="Fill 12" fill-rule="evenodd" clip-rule="evenodd" d="M100.659 49.2345C106.03 47.9855 110.047 43.1155 109.593 39.4765C108.707 34.6545 99.4218 31.5755 94.2208 34.2085C89.0698 36.8155 85.8468 42.6405 86.2628 44.9405C86.8638 46.5325 95.1698 50.5115 100.659 49.2345Z" fill="white" blush:i="0.2.0.3.0.1.1"/><path id="Fill 14" fill-rule="evenodd" clip-rule="evenodd" d="M96.2146 46.6063C99.7526 46.6063 102.621 43.8523 102.621 40.4563C102.621 37.0593 100.6 33.8493 96.2146 34.3063C92.6956 34.6723 89.8076 37.0593 89.8076 40.4563C89.8076 43.8523 92.6766 46.6063 96.2146 46.6063Z" fill="#090E2B" blush:i="0.2.0.3.0.1.2"/><path id="Fill 22" fill-rule="evenodd" clip-rule="evenodd" d="M86.454 41.6378C88.483 34.0638 97.644 30.1689 104.889 33.7549C105.909 34.2869 107.565 35.4809 108.805 36.9229C109.946 38.2529 109.797 38.9499 109.331 38.8119C108.559 38.5819 106.926 37.1169 105.599 36.4869C98.889 33.3039 91.908 35.0899 86.797 42.5589C86.546 42.9459 86.308 42.0748 86.454 41.6378" fill="#090E2B" blush:i="0.2.0.3.0.1.3"/></g><path id="Fill 18" fill-rule="evenodd" clip-rule="evenodd" d="M89.7737 88.8586C81.2033 89.8586 88.1482 99.3834 83.7083 100.649C72.341 103.888 59.9999 99.9573 58.0066 89.8586C56.8302 83.8987 60.3418 84.6194 63.1467 84.8682C65.9516 85.1171 79.8038 85.6293 87.2446 85.6293C94.4592 85.6293 90.8333 88.735 89.7737 88.8586Z" fill="#090E2B" blush:i="0.2.0.3.0.2"/><path id="nose" fill-rule="evenodd" clip-rule="evenodd" d="M79.5164 56.0474C79.9047 56.0474 82.4879 60.4695 83.4357 62.0222C86.4544 66.9676 89.7813 72.5049 84.8702 75.6882C82.4912 77.2312 75.0122 74.8407 75.0122 73.0252C75.0122 70.2631 81.8382 75.1192 83.4442 72.3152C84.3858 70.8872 80.8591 63.644 79.5164 59.3488C78.7671 56.9517 79.1281 56.0474 79.5164 56.0474Z" fill="#090E2B" blush:i="0.2.0.3.0.3"/></g></g><g id="Facial Accesories" blush:component="Facial Accesories" blush:defaultValue="None" blush:width="120" blush:height="110" transform="translate(517 209) scale(120 110)" blush:i="0.2.0.4" blush:value="None" blush:viewBox="1.75 1.75 0 0"><g id="Facial Accesories/None" stroke="none" stroke-width="1" fill="none" fill-rule="evenodd" fill-opacity="0" blush:viewBox="1.75 1.75 0 0" blush:i="0.2.0.4.0"/></g><g id="Glass" blush:component="Glass" blush:defaultValue="None" blush:width="120" blush:height="75" transform="translate(520 164) scale(120 75)" blush:i="0.2.0.5" blush:value="None" blush:viewBox="1.75 1.75 0 0"><g id="Glass/None" stroke="none" stroke-width="1" fill="none" fill-rule="evenodd" fill-opacity="0" blush:viewBox="1.75 1.75 0 0" blush:i="0.2.0.5.0"/></g></g></g></g></svg>