<svg viewBox="0 0 3240 2119.9999999999995" fill="none" xmlns="http://www.w3.org/2000/svg" xmlns:xlink="http://www.w3.org/1999/xlink" xmlns:blush="http://design.blush" overflow="visible" width="3240px" height="2119.9999999999995px"><g id="Master/Scenes/Socializing" blush:has-customizable-colors="true" blush:viewBox="16 -7.999999999999773 3343.9999999999995 2111.999999999999" blush:i="0"><g id="Background" blush:i="0.0"><path id="Bricks" fill-rule="evenodd" clip-rule="evenodd" d="M1948.48 374.001C1948.48 372.344 1947.14 371.001 1945.48 371.001L1800.53 371L1800.35 371.005C1798.78 371.096 1797.53 372.402 1797.53 374L1797.54 374.176C1797.63 375.751 1798.93 377 1800.53 377H1859.2V436.461L1692 436.462L1691.82 436.467C1690.25 436.558 1689 437.864 1689 439.462C1689 441.119 1690.34 442.462 1692 442.462L1772.28 442.461V501.925L1725.96 501.926L1725.78 501.931C1724.21 502.022 1722.96 503.328 1722.96 504.926L1722.96 505.102C1723.05 506.677 1724.36 507.926 1725.96 507.926L1859.2 507.925V567.385L1725.96 567.386L1725.78 567.391C1724.21 567.482 1722.96 568.788 1722.96 570.386C1722.96 572.042 1724.3 573.386 1725.96 573.386L1772.28 573.385L1772.28 635.85L1772.29 636.026C1772.38 637.601 1773.69 638.85 1775.28 638.85H1862.2L1862.38 638.845C1863.95 638.753 1865.2 637.447 1865.2 635.85L1865.2 635.673C1865.11 634.099 1863.8 632.85 1862.2 632.85L1778.28 632.849V573.387L1945.48 573.388L1945.52 573.386L2032.4 573.387L2032.58 573.382C2034.16 573.29 2035.4 571.984 2035.4 570.387L2035.4 570.21C2035.31 568.636 2034 567.387 2032.4 567.387L1865.2 567.386V507.926L2032.4 507.927L2032.58 507.922C2034.16 507.83 2035.4 506.524 2035.4 504.927C2035.4 503.27 2034.06 501.927 2032.4 501.927L1948.48 501.926V442.462L2032.4 442.463L2032.58 442.458C2034.16 442.366 2035.4 441.06 2035.4 439.463L2035.4 439.287C2035.31 437.712 2034 436.463 2032.4 436.463L1865.2 436.462V377L1945.48 377.001L1945.66 376.996C1947.24 376.904 1948.48 375.598 1948.48 374.001ZM1778.28 442.463H1942.48V501.925H1778.28V442.463Z" fill="black" fill-opacity="0.08" blush:i="0.0.0"/><path id="Bricks " fill-rule="evenodd" clip-rule="evenodd" d="M2940.48 861.288C2940.39 859.713 2939.08 858.464 2937.49 858.464H2767.28L2767.11 858.469C2765.53 858.56 2764.28 859.866 2764.28 861.464L2764.28 925.36C2764 925.815 2763.84 926.352 2763.84 926.925L2763.84 927.102C2763.94 928.677 2765.24 929.925 2766.84 929.925L2851.2 929.926L2851.2 989.385L2766.84 989.385L2766.66 989.391C2765.09 989.482 2763.84 990.788 2763.84 992.385C2763.84 994.042 2765.18 995.385 2766.84 995.385L2955.16 995.386L2955.34 995.381C2956.91 995.29 2958.16 993.984 2958.16 992.386L2958.15 992.21C2958.06 990.635 2956.76 989.386 2955.16 989.386L2857.2 989.386V929.926L3024.4 929.926L3024.58 929.921C3026.16 929.83 3027.4 928.524 3027.4 926.926C3027.4 925.27 3026.06 923.926 3024.4 923.926L2940.48 923.926L2940.49 861.464L2940.48 861.288ZM2770.28 864.463H2934.48V923.925H2770.28V864.463Z" fill="black" fill-opacity="0.08" blush:i="0.0.1"/><g id="window" blush:i="0.0.2"><path id="Fill 1" fill-rule="evenodd" clip-rule="evenodd" d="M1991 1204H2776V0H1991V1204Z" fill="#E7EAFD" blush:i="0.0.2.0"/><path id="Fill 2" fill-rule="evenodd" clip-rule="evenodd" d="M2034 584H2365V49H2034V584Z" fill="white" blush:i="0.0.2.1"/><path id="Fill 3" fill-rule="evenodd" clip-rule="evenodd" d="M2402 584H2733V49H2402V584Z" fill="white" blush:i="0.0.2.2"/><path id="Fill 4" fill-rule="evenodd" clip-rule="evenodd" d="M2034 1156H2365V621H2034V1156Z" fill="white" blush:i="0.0.2.3"/><path id="Fill 5" fill-rule="evenodd" clip-rule="evenodd" d="M2402 1156H2733V621H2402V1156Z" fill="white" blush:i="0.0.2.4"/><path id="Fill 6" fill-rule="evenodd" clip-rule="evenodd" d="M1991 1722H2177V0H1991V1722Z" fill="#C7D2F2" blush:i="0.0.2.5"/><path id="Fill 7" fill-rule="evenodd" clip-rule="evenodd" d="M2140.54 268.126L2140.01 454.247L2139.01 826.5L2140 1198.75L2140.53 1384.88L2142 1571L2143.47 1384.88L2143.99 1198.75L2144.99 826.5L2143.99 454.247L2143.46 268.126L2142 82L2140.54 268.126Z" fill="white" blush:i="0.0.2.6"/><path id="Fill 8" fill-rule="evenodd" clip-rule="evenodd" d="M2054.54 291.249L2053.7 457.503L2053 790L2053.69 1122.5L2054.53 1288.75L2056 1455L2057.47 1288.75L2058.31 1122.5L2059 790L2058.3 457.503L2057.46 291.249L2056 125L2054.54 291.249Z" fill="white" blush:i="0.0.2.7"/><path id="Fill 9" fill-rule="evenodd" clip-rule="evenodd" d="M2097.54 359.622L2097.01 554.25L2096.01 943.5L2097 1332.75L2097.53 1527.38L2099 1722L2100.47 1527.38L2100.99 1332.75L2101.99 943.5L2100.99 554.25L2100.46 359.622L2099 165L2097.54 359.622Z" fill="white" blush:i="0.0.2.8"/><path id="Fill 10" fill-rule="evenodd" clip-rule="evenodd" d="M2023.54 295.747L2023.01 499.5L2022 907L2023 1314.5L2023.53 1518.25L2025 1722L2026.47 1518.25L2026.99 1314.5L2028 907L2026.99 499.5L2026.46 295.747L2025 92L2023.54 295.747Z" fill="white" blush:i="0.0.2.9"/><path id="Fill 11" fill-rule="evenodd" clip-rule="evenodd" d="M2590 1722H2776V0H2590V1722Z" fill="#C7D2F2" blush:i="0.0.2.10"/><path id="Fill 12" fill-rule="evenodd" clip-rule="evenodd" d="M2623.54 268.126L2623.01 454.247L2622.01 826.5L2623.01 1198.75L2623.53 1384.88L2625 1571L2626.47 1384.88L2627 1198.75L2627.99 826.5L2626.99 454.247L2626.46 268.126L2625 82L2623.54 268.126Z" fill="white" blush:i="0.0.2.11"/><path id="Fill 13" fill-rule="evenodd" clip-rule="evenodd" d="M2709.54 291.249L2708.71 457.503L2708 790L2708.7 1122.5L2709.54 1288.75L2711 1455L2712.47 1288.75L2713.31 1122.5L2714 790L2713.3 457.503L2712.46 291.249L2711 125L2709.54 291.249Z" fill="white" blush:i="0.0.2.12"/><path id="Fill 14" fill-rule="evenodd" clip-rule="evenodd" d="M2666.54 359.622L2666.01 554.25L2665.01 943.5L2666.01 1332.75L2666.53 1527.38L2668 1722L2669.47 1527.38L2670 1332.75L2670.99 943.5L2669.99 554.25L2669.46 359.622L2668 165L2666.54 359.622Z" fill="white" blush:i="0.0.2.13"/><path id="Fill 15" fill-rule="evenodd" clip-rule="evenodd" d="M2740.54 295.747L2740.01 499.5L2739.01 907L2740.01 1314.5L2740.53 1518.25L2742.01 1722L2743.47 1518.25L2744 1314.5L2744.99 907L2743.99 499.5L2743.46 295.747L2742.01 92L2740.54 295.747Z" fill="white" blush:i="0.0.2.14"/></g><g id="Group 3" blush:i="0.0.3"><path id="Fill 1_2" fill-rule="evenodd" clip-rule="evenodd" d="M1024.46 401.596C1024.46 485.32 957.42 553.192 874.724 553.192C792.036 553.192 725 485.32 725 401.596C725 317.872 792.036 250 874.724 250C957.42 250 1024.46 317.872 1024.46 401.596" fill="#C7D2F2" blush:i="0.0.3.0"/><path id="Fill 3_2" fill-rule="evenodd" clip-rule="evenodd" d="M1008.22 401.596C1008.22 476.24 948.454 536.752 874.726 536.752C801.002 536.752 741.238 476.24 741.238 401.596C741.238 326.952 801.002 266.44 874.726 266.44C948.454 266.44 1008.22 326.952 1008.22 401.596" fill="#F9FAFA" blush:i="0.0.3.1"/><path id="Fill 5_2" fill-rule="evenodd" clip-rule="evenodd" d="M885.905 401.596C885.905 407.844 880.901 412.912 874.725 412.912C868.553 412.912 863.549 407.844 863.549 401.596C863.549 395.344 868.553 390.276 874.725 390.276C880.901 390.276 885.905 395.344 885.905 401.596" fill="#C7D2F2" blush:i="0.0.3.2"/><path id="Fill 7_2" fill-rule="evenodd" clip-rule="evenodd" d="M872.193 296.102H877.565V271.378H872.193V296.102Z" fill="#C7D2F2" blush:i="0.0.3.3"/><path id="Fill 9_2" fill-rule="evenodd" clip-rule="evenodd" d="M872.193 531.958H877.565V507.234H872.193V531.958Z" fill="#C7D2F2" blush:i="0.0.3.4"/><path id="Fill 10_2" fill-rule="evenodd" clip-rule="evenodd" d="M979.146 404.386H1003.56V398.946H979.146V404.386Z" fill="#C7D2F2" blush:i="0.0.3.5"/><path id="Fill 11_2" fill-rule="evenodd" clip-rule="evenodd" d="M746.189 404.386H770.609V398.946H746.189V404.386Z" fill="#C7D2F2" blush:i="0.0.3.6"/><path id="Fill 12_2" fill-rule="evenodd" clip-rule="evenodd" d="M871.926 397.68L874.93 311.968L877.938 397.68H871.926Z" fill="#C7D2F2" blush:i="0.0.3.7"/><path id="Fill 13_2" fill-rule="evenodd" clip-rule="evenodd" d="M871.452 403.125L813.768 340.317L875.704 398.825L871.452 403.125Z" fill="#C7D2F2" blush:i="0.0.3.8"/></g><path id="Bricks_2" fill-rule="evenodd" clip-rule="evenodd" d="M3097.48 205.001C3097.48 203.344 3096.14 202.001 3094.48 202.001L2949.53 202L2949.35 202.005C2947.78 202.096 2946.53 203.402 2946.53 205L2946.53 205.176C2946.63 206.751 2947.93 208 2949.53 208H3008.2V267.461L2923.84 267.462L2923.66 267.467C2922.09 267.558 2920.84 268.864 2920.84 270.462C2920.84 271.036 2921 271.572 2921.28 272.028V334.36C2921 334.816 2920.84 335.352 2920.84 335.926L2920.84 336.102C2920.94 337.677 2922.24 338.926 2923.84 338.926L3008.2 338.926L3008.2 398.385L2923.84 398.386L2923.66 398.391C2922.09 398.482 2920.84 399.788 2920.84 401.386C2920.84 403.042 2922.18 404.386 2923.84 404.386L3011.17 404.385L3011.2 404.387H3112.16L3112.34 404.382C3113.91 404.29 3115.16 402.984 3115.16 401.387L3115.15 401.21C3115.06 399.636 3113.76 398.387 3112.16 398.387L3014.2 398.386V338.926L3181.4 338.927L3181.58 338.922C3183.16 338.83 3184.4 337.524 3184.4 335.927C3184.4 334.27 3183.06 332.927 3181.4 332.927L3097.48 332.926V273.462L3141.65 273.463L3141.83 273.458C3143.4 273.366 3144.65 272.06 3144.65 270.463L3144.65 270.287C3144.55 268.712 3143.25 267.463 3141.65 267.463L3014.2 267.462V208L3094.48 208.001L3094.66 207.996C3096.24 207.904 3097.48 206.598 3097.48 205.001ZM2927.28 273.463H3091.48V332.925H2927.28V273.463Z" fill="black" fill-opacity="0.08" blush:i="0.0.4"/><g id="Chair" blush:component="Chair" blush:defaultValue="Tall Chair 2" blush:width="600" blush:height="800" transform="matrix(-1 0 0 1 2624 1281) scale(0.8571428571428571 1)" blush:i="0.0.5" blush:value="Tall Chair 1" blush:viewBox="170.20547945205476 164 347.6027397260276 635.9999999999999"><g id="Chair/Tall Chair 1" blush:viewBox="170.20547945205476 164 347.6027397260276 635.9999999999999" blush:i="0.0.5.0"><g id="Chair" blush:i="0.0.5.0.0"><path id="Fill 4" fill-rule="evenodd" clip-rule="evenodd" d="M449.095 418.881C448.726 417.021 447.3 415.63 445.593 415.622H445.564L306.434 415.001L306.422 415C304.534 414.99 302.824 416.502 302.384 418.738L235.917 796.631C235.63 798.096 236.404 799.564 237.661 799.918C238.928 800.274 240.203 799.368 240.509 797.892L309.711 424.683L442.708 424.088L511.489 797.892C511.791 799.357 513.051 800.27 514.314 799.929C515.584 799.587 516.375 798.111 516.081 796.631L449.095 418.881Z" fill="#090E2B" blush:i="0.0.5.0.0.0"/><path id="Fill 4 Copy" fill-rule="evenodd" clip-rule="evenodd" d="M400.238 418.881C399.869 417.021 398.443 415.63 396.736 415.622H396.707L257.577 415.001L257.565 415C255.677 414.99 253.967 416.502 253.527 418.738L187.06 796.631C186.773 798.096 187.548 799.564 188.804 799.918C190.071 800.274 191.346 799.368 191.652 797.892L260.855 424.683L393.851 424.088L462.632 797.892C462.934 799.357 464.194 800.27 465.457 799.929C466.727 799.587 467.518 798.111 467.225 796.631L400.238 418.881Z" fill="#090E2B" blush:i="0.0.5.0.0.1"/><path id="Fill 1" fill-rule="evenodd" clip-rule="evenodd" d="M222.307 206.22C229.264 246.419 268.454 371.924 289.598 386.043C310.741 400.16 434.22 397.41 448.704 398.82C463.189 400.231 478.881 410.105 476.467 428.441C474.052 446.778 468.017 441.135 425.771 441.135C383.524 441.135 284.547 441.955 284.547 441.955C284.547 441.955 233.293 445.665 212.196 385.787C192.874 330.946 175.779 229.748 173.364 211.41C170.951 193.073 172.696 170.585 184.655 166.02C193.71 162.565 215.351 166.02 222.307 206.22Z" fill="#F0F1FF" blush:i="0.0.5.0.0.2"/></g></g></g><g id="Medium Plants" blush:component="Medium Plants" blush:defaultValue="Plant 2" blush:width="845" blush:height="800" transform="translate(2507 1281) scale(1 1)" blush:i="0.0.6" blush:value="Plant 1" blush:viewBox="274.625 296.4059196617337 299.9749999999998 507.399577167019"><g id="Medium Plants/Plant 1" blush:viewBox="274.625 296.4059196617337 299.9749999999998 507.399577167019" blush:i="0.0.6.0"><g id="Group" blush:i="0.0.6.0.0"><path id="Fill 1" fill-rule="evenodd" clip-rule="evenodd" d="M356.365 503.474C327.777 445.413 300.03 424.299 291.225 417.517C299.353 433.795 363.551 619.095 372.433 667.614C342.629 608.883 327.262 596.196 321.705 590.482C306.664 575.016 287.838 564.028 277 558.602C281.745 565.191 337.284 631.858 356.927 690.191L372.506 718H450.401C450.401 718 458.529 690.988 471.398 679.057C484.268 667.128 532.765 607.409 540.216 572.138C522.239 592.953 465.071 667.128 454.901 679.057C479.964 608.117 483.727 601.563 505.145 562.223C526.564 522.881 570.969 465.279 573 463.923C549.97 476.133 482.258 518.8 450.147 603.33C436.728 638.654 432.522 661.151 432.522 661.151C432.522 661.151 447.024 590.548 446.346 521.361C445.668 452.175 450.401 297 450.401 297C450.401 297 419.527 351.185 408.086 439.025C403.855 471.509 400.285 604.942 401.639 637.22C401.639 637.22 384.121 559.844 356.365 503.474Z" fill="#009BA0" blush:i="0.0.6.0.0.0"/><path id="Fill 4" fill-rule="evenodd" clip-rule="evenodd" d="M455.622 800H365.883C352.693 800 342 781.764 342 768.532V679H482V766.029C482 780.583 470.13 800 455.622 800" fill="#FFB201" blush:i="0.0.6.0.0.1"/></g></g></g><g id="Medium Plants" blush:component="Medium Plants" blush:defaultValue="Plant 1" blush:width="845" blush:height="800" transform="translate(111 537) scale(1 1)" blush:i="0.0.7" blush:value="Plant 1" blush:viewBox="274.625 296.4059196617337 299.9749999999998 507.399577167019"><g id="Medium Plants/Plant 1" blush:viewBox="274.625 296.4059196617337 299.9749999999998 507.399577167019" blush:i="0.0.7.0"><g id="Group" blush:i="0.0.7.0.0"><path id="Fill 1" fill-rule="evenodd" clip-rule="evenodd" d="M356.365 503.474C327.777 445.413 300.03 424.299 291.225 417.517C299.353 433.795 363.551 619.095 372.433 667.614C342.629 608.883 327.262 596.196 321.705 590.482C306.664 575.016 287.838 564.028 277 558.602C281.745 565.191 337.284 631.858 356.927 690.191L372.506 718H450.401C450.401 718 458.529 690.988 471.398 679.057C484.268 667.128 532.765 607.409 540.216 572.138C522.239 592.953 465.071 667.128 454.901 679.057C479.964 608.117 483.727 601.563 505.145 562.223C526.564 522.881 570.969 465.279 573 463.923C549.97 476.133 482.258 518.8 450.147 603.33C436.728 638.654 432.522 661.151 432.522 661.151C432.522 661.151 447.024 590.548 446.346 521.361C445.668 452.175 450.401 297 450.401 297C450.401 297 419.527 351.185 408.086 439.025C403.855 471.509 400.285 604.942 401.639 637.22C401.639 637.22 384.121 559.844 356.365 503.474Z" fill="#009BA0" blush:i="0.0.7.0.0.0"/><path id="Fill 4" fill-rule="evenodd" clip-rule="evenodd" d="M455.622 800H365.883C352.693 800 342 781.764 342 768.532V679H482V766.029C482 780.583 470.13 800 455.622 800" fill="#FFB201" blush:i="0.0.7.0.0.1"/></g></g></g><g id="Bubble 1" blush:i="0.0.8"><path id="Fill 1_3" fill-rule="evenodd" clip-rule="evenodd" d="M1478.12 841.08C1478.12 905.16 1426.16 957.12 1362.04 957.12C1345.88 957.12 1330.52 953.8 1316.56 947.84L1260.96 973.36L1285.4 928.16C1261.24 906.92 1246 875.8 1246 841.08C1246 776.96 1297.96 725 1362.04 725C1426.16 725 1478.12 776.96 1478.12 841.08" fill="#FFB201" blush:i="0.0.8.0"/><rect id="Rectangle" x="1296" y="798" width="132" height="12" rx="6" fill="white" blush:i="0.0.8.1"/><rect id="Rectangle Copy" x="1296" y="832" width="112" height="12" rx="6" fill="white" blush:i="0.0.8.2"/><rect id="Rectangle Copy 2" x="1296" y="866" width="79" height="12" rx="6" fill="white" blush:i="0.0.8.3"/></g><g id="Bubble 2" blush:i="0.0.9"><path id="Fill 4_2" fill-rule="evenodd" clip-rule="evenodd" d="M1868.68 928.121C1868.68 995.257 1923.12 1049.7 1990.3 1049.7C2007.23 1049.7 2023.32 1046.22 2037.95 1039.97L2096.2 1066.71L2070.6 1019.36C2095.91 997.101 2111.88 964.497 2111.88 928.121C2111.88 860.941 2057.43 806.501 1990.3 806.501C1923.12 806.501 1868.68 860.941 1868.68 928.121" fill="#FFB201" blush:i="0.0.9.0"/><rect id="Rectangle Copy 3" x="1927" y="888" width="132" height="12" rx="6" fill="white" blush:i="0.0.9.1"/><rect id="Rectangle Copy 4" x="1927" y="922" width="117" height="12" rx="6" fill="white" blush:i="0.0.9.2"/><rect id="Rectangle Copy 5" x="1927" y="956" width="79" height="12" rx="6" fill="white" blush:i="0.0.9.3"/></g><g id="Shelf" blush:i="0.0.10"><path id="Fill 16" fill-rule="evenodd" clip-rule="evenodd" d="M55 2084H576V1363H55V2084Z" fill="#F0F1FF" blush:i="0.0.10.0"/><path id="Fill 17" fill-rule="evenodd" clip-rule="evenodd" d="M30 1363H601V1336H30V1363Z" fill="white" blush:i="0.0.10.1"/><path id="Fill 18" fill-rule="evenodd" clip-rule="evenodd" d="M601 1363H781V1336H601V1363Z" fill="#BACCFF" blush:i="0.0.10.2"/><path id="Fill 19" fill-rule="evenodd" clip-rule="evenodd" d="M576 2084H752V1363H576V2084Z" fill="#C7D2F2" blush:i="0.0.10.3"/><path id="Stroke 20 (Stroke)" fill-rule="evenodd" clip-rule="evenodd" d="M112 1466H525V1702H112V1466ZM118 1472V1696H519V1472H118Z" fill="white" blush:i="0.0.10.4"/><path id="Fill 21" fill-rule="evenodd" clip-rule="evenodd" d="M278 1579H358V1533H278V1579Z" fill="white" blush:i="0.0.10.5"/><path id="Stroke 23 (Stroke)" fill-rule="evenodd" clip-rule="evenodd" d="M112 1756H525V1992H112V1756ZM118 1762V1986H519V1762H118Z" fill="white" blush:i="0.0.10.6"/><path id="Fill 24" fill-rule="evenodd" clip-rule="evenodd" d="M278 1869H358V1823H278V1869Z" fill="white" blush:i="0.0.10.7"/></g><g id="Chair" blush:component="Chair" blush:defaultValue="Tall Chair 2" blush:width="600" blush:height="800" transform="translate(721 1281) scale(0.8571428571428571 1)" blush:i="0.0.11" blush:value="Tall Chair 2" blush:viewBox="150.22831050228308 168 403.5388127853881 631.9999999999999"><g id="Chair/Tall Chair 2" blush:viewBox="150.22831050228308 168 403.5388127853881 631.9999999999999" blush:i="0.0.11.0"><g id="Group" blush:i="0.0.11.0.0"><path id="Fill 4" fill-rule="evenodd" clip-rule="evenodd" d="M472.778 418.881C472.347 417.021 470.684 415.63 468.692 415.622H468.658L306.34 415.001L306.326 415C304.123 414.99 302.128 416.502 301.615 418.738L224.07 796.631C223.735 798.096 224.639 799.564 226.105 799.918C227.583 800.274 229.07 799.368 229.428 797.892L310.164 424.683L465.326 424.088L545.57 797.892C545.923 799.357 547.394 800.27 548.867 799.929C550.348 799.587 551.271 798.111 550.929 796.631L472.778 418.881Z" fill="#090E2B" blush:i="0.0.11.0.0.0"/><path id="Fill 4 Copy" fill-rule="evenodd" clip-rule="evenodd" d="M415.778 418.881C415.347 417.021 413.684 415.63 411.692 415.622H411.658L249.34 415.001L249.326 415C247.123 414.99 245.128 416.502 244.615 418.738L167.07 796.631C166.735 798.096 167.639 799.564 169.105 799.918C170.583 800.274 172.07 799.368 172.428 797.892L253.164 424.683L408.326 424.088L488.57 797.892C488.923 799.357 490.394 800.27 491.867 799.929C493.348 799.587 494.271 798.111 493.929 796.631L415.778 418.881Z" fill="#090E2B" blush:i="0.0.11.0.0.1"/><path id="Fill 1" fill-rule="evenodd" clip-rule="evenodd" d="M208.192 210.22C216.309 250.419 262.03 375.924 286.698 390.043C311.365 404.16 455.424 401.41 472.322 402.82C489.221 404.231 507.528 414.105 504.711 432.441C501.895 450.778 494.854 445.135 445.566 445.135C396.278 445.135 280.806 445.955 280.806 445.955C280.806 445.955 221.008 449.665 196.395 389.787C173.853 334.946 153.909 233.748 151.092 215.41C148.277 197.073 150.312 174.585 164.264 170.02C174.828 166.565 200.076 170.02 208.192 210.22Z" fill="#FF0057" blush:i="0.0.11.0.0.2"/></g></g></g><path id="Floor" d="M3233.5 2081C3235.43 2081 3237 2082.57 3237 2084.5C3237 2086.37 3235.54 2087.9 3233.69 2087.99L3233.5 2088H19.5C17.567 2088 16 2086.43 16 2084.5C16 2082.63 17.4643 2081.1 19.308 2081.01L19.5 2081H3233.5Z" fill="#090E2B" blush:i="0.0.12"/></g><g id="Master/Character/Sitting [colors]" blush:has-customizable-colors="true" blush:component="Master/Character/Sitting [colors]" blush:width="1110" blush:height="1500" transform="translate(502 589) scale(1 1)" blush:i="0.1" blush:value="Sitting [colors]" blush:viewBox="172.5 165 765.0000000000002 1335"><g id="Master/Character/Sitting [colors]" blush:has-customizable-colors="true" blush:viewBox="172.5 165 765.0000000000002 1335" blush:i="0.1.0"><g id="Lower Body/Sitting" blush:component="Lower Body/Sitting" blush:defaultValue="On Chair 1" blush:width="752" blush:height="560" transform="translate(179 940) scale(1 1)" blush:i="0.1.0.0" blush:value="On Chair 2" blush:viewBox="176.72000000000003 -36.12903225806457 616.6399999999999 594.6236559139786"><g id="Lower Body/Sitting/On Chair 2" blush:viewBox="176.72000000000003 -36.12903225806457 616.6399999999999 594.6236559139786" blush:i="0.1.0.0.0"><path id="Fill 3" fill-rule="evenodd" clip-rule="evenodd" d="M410.615 399.5C410.615 399.5 400.358 471.95 396.172 502.906C391.95 534.126 467.049 503.737 467.049 503.737C467.049 503.737 453.51 484.443 453.305 479.158C453.101 473.871 476.219 412 476.219 412L410.615 399.5Z" fill="#ff8282" blush:color="Skin-500" blush:i="0.1.0.0.0.0"/><path id="Fill 5" fill-rule="evenodd" clip-rule="evenodd" d="M561.036 -1.52588e-05C597.898 16.8477 635.154 59.3885 602.589 139.129C570.025 218.869 493.394 411.872 481.35 420.555C469.306 429.239 405.785 412 405.785 412C405.785 412 412.733 330.944 426.535 251.243C436.642 192.88 457.953 150.326 457.953 150.326C457.953 150.326 286.541 174.784 243.983 146.076C188.125 108.397 229.481 6.86053 261.586 -5.71066C302.859 -21.8714 490.855 -32.0758 561.036 -1.52588e-05Z" fill="#090E2B" blush:i="0.1.0.0.0.1"/><path id="Fill 17" fill-rule="evenodd" clip-rule="evenodd" d="M559.105 537.55C553.719 520.869 514.662 509.853 486.46 501.514C476.967 498.706 463.703 484.835 457.546 485.001C448.582 485.245 457.367 503.898 427.363 502.274C419.419 501.845 418.852 493.484 401.592 491.581C398.787 491.273 394.499 490.728 390.796 497.394C388.732 501.111 380.282 534.664 388.578 548.345C446.664 549.846 506.413 548.363 558.02 547.882C563.06 547.834 560.482 541.819 559.105 537.55" fill="#FF0057" blush:i="0.1.0.0.0.2"/><path id="Fill 1" fill-rule="evenodd" clip-rule="evenodd" d="M654.971 412C654.971 412 665.531 466.51 672.596 475.378C679.663 484.243 716.329 494.221 717.975 499.698C719.619 505.175 639.821 518 639.821 518L591 416.698L654.971 412Z" fill="#ff8282" blush:color="Skin-500" blush:i="0.1.0.0.0.3"/><path id="Fill 10" fill-rule="evenodd" clip-rule="evenodd" d="M790.105 534.55C784.719 517.87 745.662 506.853 717.46 498.513C707.967 495.706 694.703 481.834 688.546 482.001C679.582 482.244 688.367 500.898 658.363 499.274C650.42 498.845 649.853 490.483 632.592 488.581C629.787 488.272 625.499 487.728 621.796 494.393C619.732 498.11 611.282 531.663 619.578 545.346C677.664 546.846 737.413 545.362 789.02 544.881C794.06 544.833 791.482 538.818 790.105 534.55" fill="#FF0057" blush:i="0.1.0.0.0.4"/><path id="Fill 15" fill-rule="evenodd" clip-rule="evenodd" d="M722.705 510.43C726.392 503.004 728.005 501.713 726.433 500.544C722.673 497.748 703.571 506.385 702.07 511.523C700.945 515.374 713.664 504.229 723.821 502.566C719.659 506.366 715.779 518.02 719.874 515.696C739.827 504.382 742.974 507.006 742.999 506.586C743.117 504.585 735.566 502.967 722.705 510.43" fill="#FFB201" blush:i="0.1.0.0.0.5"/><path id="Fill 7" fill-rule="evenodd" clip-rule="evenodd" d="M180.128 77C192.092 138.955 247.292 161.212 295.191 159.362C368.357 156.536 442.941 124.042 468.153 113.183C465.932 129.164 477.806 220.025 497.63 262.074C517.453 304.124 582.01 430.62 582.01 430.62C582.01 430.62 654.852 431.05 657.967 413.369C660.016 401.738 591.632 76.8495 569.01 20.5962C556.02 -11.7082 513.977 -25.6487 427.502 -33C340.648 -40.3834 214.032 -26.7716 214.032 -26.7716C214.032 -26.7716 168.163 15.0448 180.128 77Z" fill="#090E2B" blush:i="0.1.0.0.0.6"/><path id="Fill 22" fill-rule="evenodd" clip-rule="evenodd" d="M491.705 514.43C495.392 507.005 497.005 505.714 495.432 504.544C491.672 501.749 472.571 510.385 471.07 515.522C469.945 519.373 482.664 508.228 492.821 506.566C488.659 510.367 484.778 522.019 488.874 519.697C508.827 508.381 511.974 511.006 511.999 510.585C512.117 508.585 504.566 506.966 491.705 514.43" fill="#FFB201" blush:i="0.1.0.0.0.7"/><path id="Fill 19" fill-rule="evenodd" clip-rule="evenodd" d="M546.831 554.392L407.016 556.858C397.662 557.232 383.67 554.015 382.317 546.244C381.306 540.438 383.554 527.796 384.02 526.955C387.277 521.095 415.032 526.039 423.117 545.828C474.131 549.65 561.008 545.913 561.008 545.913C561.008 545.913 562.312 553.594 546.831 554.392" fill="#090E2B" blush:i="0.1.0.0.0.8"/><path id="Fill 12" fill-rule="evenodd" clip-rule="evenodd" d="M777.721 550.785L637.906 553.251C628.553 553.625 614.56 550.409 613.207 542.638C612.197 536.832 614.444 524.19 614.911 523.349C618.167 517.489 645.922 522.433 654.007 542.222C705.021 546.044 791.899 542.307 791.899 542.307C791.899 542.307 793.202 549.988 777.721 550.785" fill="#090E2B" blush:i="0.1.0.0.0.9"/></g></g><g id="Upper Body/Sitting" blush:component="Upper Body/Sitting" blush:defaultValue="Talking 1" blush:width="600" blush:height="951" transform="translate(243 170) scale(1 1.0010526315789474)" blush:i="0.1.0.1" blush:value="Namaste 2" blush:viewBox="62.658227848101205 380 346.51898734177234 432.24999999999983"><g id="Upper Body/Sitting/Namaste 2" blush:viewBox="62.658227848101205 380 346.51898734177234 432.24999999999983" blush:i="0.1.0.1.0"><path id="Fill 1" fill-rule="evenodd" clip-rule="evenodd" d="M345.929 635.913L330 606.848C330 606.848 352.184 582.633 362.545 578.415C378.141 572.066 385.088 573.056 385.088 573.056C385.088 573.056 401.978 610.371 405 641.546C387.504 654.184 345.929 635.913 345.929 635.913" fill="#ff8282" blush:color="Skin-500" blush:i="0.1.0.1.0.0"/><path id="neck" fill-rule="evenodd" clip-rule="evenodd" d="M209.711 383C209.711 383 215.323 427.557 206.83 445.779C204.052 451.742 183.267 456.894 178 460.553C197.222 496.926 242.955 504 256.243 504C279.98 504 279.978 480.329 281 462.91C272.788 460.486 264.542 457.207 262.729 450.071C261.535 445.379 265.808 410.555 265.808 410.555L209.711 383Z" fill="#ff8282" blush:color="Skin-500" blush:i="0.1.0.1.0.1"/><path id="Fill 5" fill-rule="evenodd" clip-rule="evenodd" d="M277.47 459.358C277.47 459.358 274.379 488.896 261.206 495.747C254.399 499.285 193.401 464.038 187.094 455.003C182.683 454.979 146.816 465.343 141.804 469.223C136.791 473.103 121.532 548.55 127.715 567.117C133.898 585.684 154.718 583.819 156.725 619.15C160.01 676.99 146.732 748.018 129.207 780.916C126.655 785.706 111.944 801.592 133.803 809.646C145.957 814.124 217.616 774.842 252.689 766.061C315.076 750.442 330.054 755.147 333.551 752.994C345.007 745.944 310.549 728.031 322.36 642.283C324.2 628.926 326.795 617.307 329.073 607.543C330.31 611.464 332.923 622.968 336.83 622.418C354.125 619.987 390.035 613.325 400.702 607.379C403.668 605.725 383.892 554.937 367.465 527.435C355.673 507.692 338.864 481.49 318.802 471.51C303.593 463.943 277.47 459.358 277.47 459.358Z" fill="#3615F6" blush:i="0.1.0.1.0.2"/><path id="Fill 8" fill-rule="evenodd" clip-rule="evenodd" d="M272.909 551.031C272.909 551.031 278.36 544.21 286.899 551.032C293.07 555.964 294.84 571.376 295.32 575.533C295.8 579.691 298.162 609.274 291.312 617.824C311.289 622.814 350.791 634.194 350.791 634.194C350.791 634.194 377.522 634.231 404.386 637.683C407.171 657.323 409.058 694.65 385.944 696.904C375.696 697.903 321.052 692.247 277.318 625.445C262.361 621.061 261.82 612.854 261.042 599.609C260.179 584.929 272.909 551.031 272.909 551.031" fill="#ff8282" blush:color="Skin-500" blush:i="0.1.0.1.0.3"/><path id="Fill 11" fill-rule="evenodd" clip-rule="evenodd" d="M78.5889 585.435C68.0046 612.002 62.2001 666.634 64.4991 685.17C69.972 729.302 138.889 723.197 208.833 675.247C241.199 653.061 258.41 639.035 268.812 628.68C276.035 621.488 284.022 621.194 287.447 606.611C290.26 594.625 289.161 566.935 284.884 557.622C280.605 548.308 274.564 547.593 271.048 547.054C262.38 545.726 258.182 569.119 255.683 577.811C255.23 575.222 253.115 571.77 251.437 570.558C246.954 567.319 244.221 569.04 247.481 576.808C250.913 584.978 241.13 605.413 250.724 614.347C234.551 624.114 204.112 627.789 181.378 632.613C160.514 637.038 141.113 641.237 138.297 641.488C143.429 625.364 155.515 597.208 155.515 597.208C155.515 597.208 89.1742 558.868 78.5889 585.435" fill="#ff8282" blush:color="Skin-500" blush:i="0.1.0.1.0.4"/><path id="Fill 23" fill-rule="evenodd" clip-rule="evenodd" d="M113.074 649.569C121.03 645.473 129.582 641.64 138.694 641C139.028 640.988 139.124 641.47 138.804 641.573C132.691 643.814 125.953 646.157 119.782 648.145C118.91 648.222 112.226 651.057 113.074 649.569" fill="#090E2B" blush:i="0.1.0.1.0.5"/><path id="Fill 13" fill-rule="evenodd" clip-rule="evenodd" d="M144.254 468C144.254 468 182.094 513.192 183.938 535.583C185.781 557.974 145.665 629.001 144.047 629C140.231 628.998 125.474 621.872 98.5416 618.118C71.7805 614.389 70.6568 614.106 70.0511 610.111C68.7876 601.793 91.2166 532.472 110.154 500.663C124.819 476.031 144.254 468 144.254 468" fill="#3615F6" blush:i="0.1.0.1.0.6"/><path id="Fill 15" fill-rule="evenodd" clip-rule="evenodd" d="M183.383 525.676C182.476 523.095 184.296 519.483 185.709 530.704C187.605 545.761 179.917 561.817 171.937 579.967C169.517 584.963 159.056 604.015 154.463 611.33C153.138 613.441 154.94 610.145 156.314 607.247C163.763 591.533 187.605 550.423 183.383 525.676Z" fill="#090E2B" blush:i="0.1.0.1.0.7"/><path id="Fill 17" fill-rule="evenodd" clip-rule="evenodd" d="M328.767 527.614C341.516 552.935 334.646 581.233 329.097 607.542C329.037 607.834 328.788 608.194 328.837 607.876C330.603 592.065 333.65 573.229 333.706 557.46C333.264 547.425 330.886 536.798 328.024 527.183C327.86 526.751 328.579 527.162 328.767 527.614" fill="#090E2B" blush:i="0.1.0.1.0.8"/><path id="Fill 19" fill-rule="evenodd" clip-rule="evenodd" d="M277.696 549.012C294.42 553.093 294.22 609.256 283.514 619.32C280.953 621.924 277.392 624.41 274 625C275.262 623.87 277.331 623.24 278.693 622.051C292.161 612.467 289.21 581.633 287.356 566.897C286.325 560.261 284.561 552.195 277.573 549.384C277.34 549.322 277.458 548.926 277.696 549.012" fill="#090E2B" blush:i="0.1.0.1.0.9"/><path id="Fill 21" fill-rule="evenodd" clip-rule="evenodd" d="M344.177 632.003C352.516 633.531 371.52 637.14 378.646 641.982C379.12 642.305 380.347 643.183 379.906 642.966C379.547 642.79 378.666 642.413 378.037 642.15C368.803 638.3 358.138 636.379 348.627 633.575L344.111 632.314C343.932 632.267 343.981 631.968 344.177 632.003" fill="#090E2B" blush:i="0.1.0.1.0.10"/></g></g><g id="Head" blush:component="Head" blush:defaultValue="Long Hair Dark" blush:width="300" blush:height="300" transform="translate(341 346) scale(1 1)" blush:i="0.1.0.2" blush:value="Hair Bun Blue" blush:viewBox="13.5 -16.49999999999997 229.50000000000003 283.5"><g id="Head/Hair Bun Blue" blush:viewBox="13.5 -16.49999999999997 229.50000000000003 283.5" blush:i="0.1.0.2.0"><path id="Fill 1" fill-rule="evenodd" clip-rule="evenodd" d="M199.344 265.553C216.517 263.335 241.691 222.379 236.024 172.148C230.357 121.918 241.691 121.918 230.019 81.5711C220.33 48.0799 161.709 79.0942 138.154 89.6041C110.247 102.057 86.0354 150.801 87.6184 184.716C87.6184 224.595 145.237 272.54 199.344 265.553Z" fill="#ff8282" blush:color="Skin-500" blush:i="0.1.0.2.0.0"/><path id="Fill 3" fill-rule="evenodd" clip-rule="evenodd" d="M193.585 33.9056C150.208 14.2296 105.689 35.1006 105.689 35.1006C118.599 -30.0504 38.0716 -33.9034 17.3446 29.3026C3.23564 65.4986 37.2296 97.3536 54.9916 81.5726C39.5926 101.098 42.2996 153.212 59.4066 183.852C66.4566 196.479 78.6366 205.726 88.9736 207.649C107.841 211.16 88.8366 193.347 86.9746 187.89C87.7266 172.107 106.448 144.41 109.941 178.852C111.397 187.577 106.835 222.298 107.412 230.474C107.821 236.277 108.174 239.409 111.752 246.066C115.186 252.455 113.035 265.519 113.417 266.941C113.94 263.39 115.147 256.965 113.947 249.545C113.449 246.456 112.239 243.321 110.859 239.95C107.968 232.882 114.169 216.73 117.161 179.26C119.211 153.593 106.274 140.151 121.695 130.451C153.182 110.647 206.131 133.434 236.485 108.122C250.189 96.6956 237.166 53.6756 193.585 33.9056" fill="#001386" blush:i="0.1.0.2.0.1"/><path id="Fill 6" fill-rule="evenodd" clip-rule="evenodd" d="M108.016 170.028C110.682 180.582 111.719 189.325 102.419 193.792C93.1179 198.259 76.8391 190.933 72.1261 181.121C67.4131 171.308 69.9071 156.153 79.0581 151.387C93.3191 143.961 104.577 156.412 108.016 170.028Z" fill="#ff8282" blush:color="Skin-500" blush:i="0.1.0.2.0.2"/><path id="Combined Shape" fill-rule="evenodd" clip-rule="evenodd" d="M86.1501 26.2935C68.2001 37.4115 53.7271 59.3915 54.9711 81.3665C54.9741 81.4295 54.9901 81.6215 54.9951 81.5585C54.9957 81.5515 54.9963 81.5445 54.9968 81.5375C54.9975 81.5413 54.999 81.5436 55.0014 81.5443C55.0244 81.5522 55.0899 81.4186 55.1562 81.2832C55.1906 81.2129 55.2253 81.142 55.2544 81.0903C66.3594 61.2143 81.4394 41.4393 105.813 35.2673C106.693 35.0523 106.45 33.6903 105.562 33.7633C80.6224 35.9053 62.9104 58.6643 55.2124 80.9273C55.1892 80.9948 55.1545 81.0831 55.1198 81.1717C55.066 81.3089 55.0118 81.447 54.9991 81.5097C56.5341 63.0094 64.5051 48.7487 79.3101 35.2825C83.5781 30.9485 100.295 21.6835 105.591 26.3665C106.67 28.7715 108.72 24.7845 107.024 22.7615C101.986 16.7525 91.8931 22.7355 86.1501 26.2935Z" fill="#FFB201" blush:i="0.1.0.2.0.3"/><path id="Fill 12" fill-rule="evenodd" clip-rule="evenodd" d="M100.398 178.131C99.8758 174.344 99.0018 170.952 96.5408 168.081C92.8728 163.991 87.4958 161.425 82.0198 161.714C81.6068 161.735 80.6908 162.318 80.6278 162.742C80.5488 163.27 81.4808 163.779 82.0058 163.808C87.8878 164.571 93.6318 167.856 96.4468 173.182C93.1198 171.956 85.4758 175.829 86.0728 178.438C86.4988 180.302 92.8178 174.325 97.8648 176.179C98.4678 177.634 99.0788 179.995 99.5408 182.357C99.6238 182.779 99.8948 183.282 100.271 183.037C100.886 182.637 100.595 179.558 100.398 178.131" fill="#090E2B" blush:i="0.1.0.2.0.4"/><path id="Fill 14" fill-rule="evenodd" clip-rule="evenodd" d="M132.303 247.954C137.544 250.656 146.397 255.258 154.061 258.625C156.533 259.711 159.064 260.736 161.633 261.615C161.881 261.698 161.583 262.603 159.803 262.19C154.506 260.963 149.332 258.84 143.995 256.133C139.537 253.872 133.753 250.359 131.307 248.498C129.335 246.999 129.89 246.711 132.303 247.954" fill="black" blush:i="0.1.0.2.0.5"/></g></g><g id="Expressions" blush:component="Expressions" blush:defaultValue="Calm 1" blush:width="120" blush:height="120" transform="translate(462 479) scale(1 1)" blush:i="0.1.0.3" blush:value="Smile" blush:viewBox="21 10.200000000000003 89.4 88.80000000000001"><g id="Expressions/Smile" blush:viewBox="21 10.200000000000003 89.4 88.80000000000001" blush:i="0.1.0.3.0"><g id="eye1" blush:i="0.1.0.3.0.0"><path id="Fill 1" fill-rule="evenodd" clip-rule="evenodd" d="M21.0758 18.1794C22.852 10.1965 46.2248 7.39836 56.5098 13.5794C60.0658 15.6924 66.6698 21.4974 60.8228 24.6574C59.2788 25.3294 57.7788 24.6404 56.5098 23.8214C42.4918 14.0794 19.8377 23.7442 21.0758 18.1794Z" fill="#090E2B" blush:i="0.1.0.3.0.0.0"/><path id="Fill 6" fill-rule="evenodd" clip-rule="evenodd" d="M40.0382 32.611C34.7502 34.111 30.2172 38.361 29.7962 41.883C29.5412 44.011 37.8912 49.12 45.9442 49.517C56.5382 50.038 61.8782 44.299 61.8592 42.465C61.1462 36.915 54.7552 28.437 40.0382 32.611Z" fill="white" blush:i="0.1.0.3.0.0.1"/><path id="Fill 8" fill-rule="evenodd" clip-rule="evenodd" d="M56.4251 35.7687C48.2821 29.6147 35.6701 33.6247 29.7961 41.8827C29.4591 42.3107 29.5561 41.2337 29.7901 40.7427C32.6241 34.7957 37.7371 31.9887 43.6651 30.7647C47.2321 30.0277 50.5581 29.9677 54.0371 31.5257C55.3821 32.1267 57.7581 33.9587 59.5941 36.0307C61.0261 37.6457 62.2321 40.4147 60.5751 39.4357C59.2781 38.6687 57.5051 36.5857 56.4251 35.7687Z" fill="#090E2B" blush:i="0.1.0.3.0.0.2"/><path id="Fill 10" fill-rule="evenodd" clip-rule="evenodd" d="M45.8406 46.276C50.3676 46.276 54.0376 42.928 54.0376 38.797C54.0376 34.667 50.3676 31.318 45.8406 31.318C41.3136 31.318 37.6436 34.667 37.6436 38.797C37.6436 42.928 41.3136 46.276 45.8406 46.276Z" fill="#090E2B" blush:i="0.1.0.3.0.0.3"/></g><g id="eye2" blush:i="0.1.0.3.0.1"><path id="Fill 4" fill-rule="evenodd" clip-rule="evenodd" d="M104.459 16.8614C107.813 18.3492 112.278 23.2873 108.561 23.2873C104.844 23.2873 96.7936 22.2329 91.3966 24.4599C89.5116 24.9419 88.0811 25.8643 86.1881 26.0893C81.8801 26.9283 79.5395 21.7686 82.5855 18.6492C86.0265 15.1253 97.6434 13.4544 104.459 16.8614Z" fill="#090E2B" blush:i="0.1.0.3.0.1.0"/><path id="Fill 12" fill-rule="evenodd" clip-rule="evenodd" d="M100.659 49.2345C106.03 47.9855 110.047 43.1155 109.593 39.4765C108.707 34.6545 99.422 31.5755 94.221 34.2085C89.07 36.8155 85.847 42.6405 86.263 44.9405C86.864 46.5325 95.17 50.5115 100.659 49.2345Z" fill="white" blush:i="0.1.0.3.0.1.1"/><path id="Fill 14" fill-rule="evenodd" clip-rule="evenodd" d="M96.2146 46.6062C99.7526 46.6062 102.621 43.8522 102.621 40.4562C102.621 37.0592 100.6 33.8492 96.2146 34.3062C92.6956 34.6722 89.8076 37.0592 89.8076 40.4562C89.8076 43.8522 92.6766 46.6062 96.2146 46.6062Z" fill="#090E2B" blush:i="0.1.0.3.0.1.2"/><path id="Fill 22" fill-rule="evenodd" clip-rule="evenodd" d="M86.4543 41.6378C88.4833 34.0638 97.6443 30.1688 104.889 33.7548C105.909 34.2868 107.565 35.4808 108.805 36.9228C109.946 38.2528 109.797 38.9498 109.331 38.8118C108.559 38.5818 106.926 37.1168 105.599 36.4868C98.8893 33.3038 91.9083 35.0898 86.7973 42.5588C86.5463 42.9458 86.3083 42.0748 86.4543 41.6378" fill="#090E2B" blush:i="0.1.0.3.0.1.3"/></g><path id="nose" fill-rule="evenodd" clip-rule="evenodd" d="M86.9878 70.3387C86.013 75.2575 79.9688 75.736 76.0322 74.6213C72.8324 73.7153 72.0033 71.8513 73.0852 71.2538C74.8484 70.2799 80.4996 72.989 82.5857 70.4028C86.3055 65.7913 74.8913 48.8346 78.5176 51.5592C83.3101 55.16 87.6385 67.0559 86.9878 70.3387Z" fill="#090E2B" blush:i="0.1.0.3.0.2"/><path id="Fill 18" fill-rule="evenodd" clip-rule="evenodd" d="M89.6386 90.5818C88.8706 91.1602 87.0676 93.5464 85.2445 95.0617C81.1443 98.4697 74.4744 99.2531 70.5442 98.4697C63.1557 96.9971 59.9594 92.1782 58.0065 90.8586C56.0537 89.539 59.7198 87.8443 62.5247 88.0931C65.3297 88.342 67.2122 89.1562 72.5652 91.4593C76.0197 92.9455 83.8309 90.8586 86.038 89.539C90.2482 87.0217 91.5111 89.1717 89.6386 90.5818Z" fill="#090E2B" blush:i="0.1.0.3.0.3"/></g></g><g id="Facial Accesories" blush:component="Facial Accesories" blush:defaultValue="None" blush:width="120" blush:height="110" transform="translate(459 529) scale(120 110)" blush:i="0.1.0.4" blush:value="None" blush:viewBox="1.75 1.75 0 0"><g id="Facial Accesories/None" stroke="none" stroke-width="1" fill="none" fill-rule="evenodd" fill-opacity="0" blush:viewBox="1.75 1.75 0 0" blush:i="0.1.0.4.0"/></g><g id="Glass" blush:component="Glass" blush:defaultValue="None" blush:width="120" blush:height="75" transform="translate(462 484) scale(120 75)" blush:i="0.1.0.5" blush:value="None" blush:viewBox="1.75 1.75 0 0"><g id="Glass/None" stroke="none" stroke-width="1" fill="none" fill-rule="evenodd" fill-opacity="0" blush:viewBox="1.75 1.75 0 0" blush:i="0.1.0.5.0"/></g></g></g><g id="Master/Character/Sitting [colors]" blush:has-customizable-colors="true" blush:component="Master/Character/Sitting [colors]" blush:width="1110" blush:height="1500" transform="matrix(-1 0 0 1 2832 589) scale(1 1)" blush:i="0.2" blush:value="Sitting [colors]" blush:viewBox="172.5 165 765.0000000000002 1335"><g id="Master/Character/Sitting [colors]" blush:has-customizable-colors="true" blush:viewBox="172.5 165 765.0000000000002 1335" blush:i="0.2.0"><g id="Lower Body/Sitting" blush:component="Lower Body/Sitting" blush:defaultValue="On Chair 1" blush:width="752" blush:height="560" transform="translate(179 940) scale(1 1)" blush:i="0.2.0.0" blush:value="On Chair 2" blush:viewBox="176.72000000000003 -36.12903225806457 616.6399999999999 594.6236559139786"><g id="Lower Body/Sitting/On Chair 2" blush:viewBox="176.72000000000003 -36.12903225806457 616.6399999999999 594.6236559139786" blush:i="0.2.0.0.0"><path id="Fill 3" fill-rule="evenodd" clip-rule="evenodd" d="M410.615 399.5C410.615 399.5 400.358 471.95 396.172 502.906C391.95 534.126 467.049 503.737 467.049 503.737C467.049 503.737 453.51 484.443 453.305 479.158C453.101 473.871 476.219 412 476.219 412L410.615 399.5Z" fill="#b75858" blush:color="Skin-500" blush:i="0.2.0.0.0.0"/><path id="Fill 5" fill-rule="evenodd" clip-rule="evenodd" d="M561.036 -1.52588e-05C597.898 16.8477 635.154 59.3885 602.589 139.129C570.025 218.869 493.394 411.872 481.35 420.555C469.306 429.239 405.785 412 405.785 412C405.785 412 412.733 330.944 426.535 251.243C436.642 192.88 457.953 150.326 457.953 150.326C457.953 150.326 286.541 174.784 243.983 146.076C188.125 108.397 229.481 6.86053 261.586 -5.71066C302.859 -21.8714 490.855 -32.0758 561.036 -1.52588e-05Z" fill="#090E2B" blush:i="0.2.0.0.0.1"/><path id="Fill 17" fill-rule="evenodd" clip-rule="evenodd" d="M559.105 537.55C553.719 520.869 514.662 509.853 486.46 501.514C476.967 498.706 463.703 484.835 457.546 485.001C448.582 485.245 457.367 503.898 427.363 502.274C419.419 501.845 418.852 493.484 401.592 491.581C398.787 491.273 394.499 490.728 390.796 497.394C388.732 501.111 380.282 534.664 388.578 548.345C446.664 549.846 506.413 548.363 558.02 547.882C563.06 547.834 560.482 541.819 559.105 537.55" fill="#FF0057" blush:i="0.2.0.0.0.2"/><path id="Fill 1" fill-rule="evenodd" clip-rule="evenodd" d="M654.971 412C654.971 412 665.531 466.51 672.596 475.378C679.663 484.243 716.329 494.221 717.975 499.698C719.619 505.175 639.821 518 639.821 518L591 416.698L654.971 412Z" fill="#b75858" blush:color="Skin-500" blush:i="0.2.0.0.0.3"/><path id="Fill 10" fill-rule="evenodd" clip-rule="evenodd" d="M790.105 534.55C784.719 517.87 745.662 506.853 717.46 498.513C707.967 495.706 694.703 481.834 688.546 482.001C679.582 482.244 688.367 500.898 658.363 499.274C650.42 498.845 649.853 490.483 632.592 488.581C629.787 488.272 625.499 487.728 621.796 494.393C619.732 498.11 611.282 531.663 619.578 545.346C677.664 546.846 737.413 545.362 789.02 544.881C794.06 544.833 791.482 538.818 790.105 534.55" fill="#FF0057" blush:i="0.2.0.0.0.4"/><path id="Fill 15" fill-rule="evenodd" clip-rule="evenodd" d="M722.705 510.43C726.392 503.004 728.005 501.713 726.433 500.544C722.673 497.748 703.571 506.385 702.07 511.523C700.945 515.374 713.664 504.229 723.821 502.566C719.659 506.366 715.779 518.02 719.874 515.696C739.827 504.382 742.974 507.006 742.999 506.586C743.117 504.585 735.566 502.967 722.705 510.43" fill="#FFB201" blush:i="0.2.0.0.0.5"/><path id="Fill 7" fill-rule="evenodd" clip-rule="evenodd" d="M180.128 77C192.092 138.955 247.292 161.212 295.191 159.362C368.357 156.536 442.941 124.042 468.153 113.183C465.932 129.164 477.806 220.025 497.63 262.074C517.453 304.124 582.01 430.62 582.01 430.62C582.01 430.62 654.852 431.05 657.967 413.369C660.016 401.738 591.632 76.8495 569.01 20.5962C556.02 -11.7082 513.977 -25.6487 427.502 -33C340.648 -40.3834 214.032 -26.7716 214.032 -26.7716C214.032 -26.7716 168.163 15.0448 180.128 77Z" fill="#090E2B" blush:i="0.2.0.0.0.6"/><path id="Fill 22" fill-rule="evenodd" clip-rule="evenodd" d="M491.705 514.43C495.392 507.005 497.005 505.714 495.432 504.544C491.672 501.749 472.571 510.385 471.07 515.522C469.945 519.373 482.664 508.228 492.821 506.566C488.659 510.367 484.778 522.019 488.874 519.697C508.827 508.381 511.974 511.006 511.999 510.585C512.117 508.585 504.566 506.966 491.705 514.43" fill="#FFB201" blush:i="0.2.0.0.0.7"/><path id="Fill 19" fill-rule="evenodd" clip-rule="evenodd" d="M546.831 554.392L407.016 556.858C397.662 557.232 383.67 554.015 382.317 546.244C381.306 540.438 383.554 527.796 384.02 526.955C387.277 521.095 415.032 526.039 423.117 545.828C474.131 549.65 561.008 545.913 561.008 545.913C561.008 545.913 562.312 553.594 546.831 554.392" fill="#090E2B" blush:i="0.2.0.0.0.8"/><path id="Fill 12" fill-rule="evenodd" clip-rule="evenodd" d="M777.721 550.785L637.906 553.251C628.553 553.625 614.56 550.409 613.207 542.638C612.197 536.832 614.444 524.19 614.911 523.349C618.167 517.489 645.922 522.433 654.007 542.222C705.021 546.044 791.899 542.307 791.899 542.307C791.899 542.307 793.202 549.988 777.721 550.785" fill="#090E2B" blush:i="0.2.0.0.0.9"/></g></g><g id="Upper Body/Sitting" blush:component="Upper Body/Sitting" blush:defaultValue="Talking 1" blush:width="600" blush:height="951" transform="translate(243 170) scale(1 1.0010526315789474)" blush:i="0.2.0.1" blush:value="With Laptop 2" blush:viewBox="34.177215189873436 370.5 588.607594936709 441.7499999999999"><g id="Upper Body/Sitting/With Laptop 2" blush:viewBox="34.177215189873436 370.5 588.607594936709 441.7499999999999" blush:i="0.2.0.1.0"><path id="Fill 1" fill-rule="evenodd" clip-rule="evenodd" d="M286 448C299.898 455.921 321.105 472.381 333.718 510.851C344.32 543.182 368.57 589.863 369.354 594.557C381.886 599.248 432 624.25 432 624.25C432 624.25 397.463 680 394.618 680C391.772 680 374.926 679.132 358.612 677.849C305.347 673.659 302.615 637.159 299.973 622.271C291.424 574.088 289.989 453.179 286 448" fill="#3615F6" blush:i="0.2.0.1.0.0"/><path id="Fill 3" fill-rule="evenodd" clip-rule="evenodd" d="M203.679 373C203.679 373 215.229 430.304 207.464 436.256C203.587 439.228 187 443.605 187 443.605C187 443.605 227.845 476.13 252.813 476.967C277.781 477.805 294.466 462.609 291.701 457.101C287.564 448.858 258.313 441.498 257.221 434.162C255.975 425.794 256.521 389.174 256.521 389.174L203.679 373Z" fill="#b75858" blush:color="Skin-500" blush:i="0.2.0.1.0.1"/><path id="Fill 8" fill-rule="evenodd" clip-rule="evenodd" d="M126.185 468.342C125.002 478.894 113.436 610.159 129.055 629.825C147.759 653.375 120.262 728.83 108.36 748.037C87.6538 781.45 64.3167 841.503 140.314 792.468C209.312 747.949 301.723 743.109 319.79 737.775C325.933 735.961 321.714 730.278 321.315 726.364C316.68 680.826 327.91 585.791 327.999 553.732C328.056 533.119 305.18 458.994 287.181 448.378C283.594 446.262 265.901 438.729 265.901 441.674C265.901 456.144 264.743 476.667 257.864 476.667C240.342 476.667 195.014 444.859 187.991 441.674C171.889 444.931 127.536 456.296 126.185 468.342Z" fill="#3615F6" blush:i="0.2.0.1.0.2"/><path id="Fill 13" fill-rule="evenodd" clip-rule="evenodd" d="M306.705 490.535C316.375 509.147 326.774 528.76 327.724 549.894C328.925 576.556 325.874 607.021 324.942 633.743C324.667 640.722 324.411 647.704 324.397 654.681C324.409 655.088 323.712 655.123 323.717 654.687C323.052 622.182 327.108 582.533 325.629 549.984C324.683 529.179 314.437 509.034 306.02 490.085C305.875 489.817 306.555 490.243 306.705 490.535" fill="#090E2B" blush:i="0.2.0.1.0.3"/><g id="macbook" blush:i="0.2.0.1.0.4"><path id="Fill 15" fill-rule="evenodd" clip-rule="evenodd" d="M400.37 639.886L280.737 650.015C278.696 650.184 272.283 652.863 272.062 654.898C272.062 654.898 271.115 660.144 276.637 660.144H400.37V639.886Z" fill="white" blush:i="0.2.0.1.0.4.0"/><path id="Fill 17" fill-rule="evenodd" clip-rule="evenodd" d="M563.427 660.144H376.125L427.804 522.887C430.941 515.138 437.583 507.392 448.064 507.392L604.657 507.51C621.488 507.388 623.6 513.634 619.981 523.475C609.556 551.816 582.743 631.168 573.525 653.402C571.831 657.485 567.848 660.144 563.427 660.144" fill="white" blush:i="0.2.0.1.0.4.1"/><path id="Fill 19" fill-rule="evenodd" clip-rule="evenodd" d="M603.827 506.473C560.59 506.369 500.598 506.281 457.252 506.172C442.145 505.233 432.769 507.791 426.51 522.715C412.548 559.913 396.395 603.339 382.858 640.832L286.824 649.499C295.941 648.768 383.381 642.467 383.636 641.663C399.014 603.32 415.175 558.328 430.532 520.106C436.818 508.519 445.502 508.153 457.252 508.625L489.825 508.608C511.135 508.713 566.973 508.405 587.547 508.555C594.947 509.416 618.268 505.31 620.298 514.788C620.673 523.795 615.155 532.789 612.527 541.408C610.152 549.198 601.801 572.167 601.801 572.167C593.258 596.261 583.657 625.225 574.573 648.878C571.156 659.683 566.623 659.789 556.463 659.532C551.324 659.571 537.941 660.132 532.655 660.178C532.019 660.187 531.382 660.621 532.033 660.639C541.388 660.518 555.456 661.018 564.672 660.717C570.836 660.37 574.239 654.677 575.893 649.397C585.713 624.075 594.543 598.387 603.56 572.781C607.053 562.195 615.919 536.707 619.855 526.734C626.164 510.754 618.738 505.986 603.827 506.473" fill="#090E2B" blush:i="0.2.0.1.0.4.2"/></g><path id="Fill 21" fill-rule="evenodd" clip-rule="evenodd" d="M258.796 651.475C258.431 651.503 258.215 651.522 258.204 651.525L258.796 651.475Z" fill="black" blush:i="0.2.0.1.0.5"/><path id="Fill 23" fill-rule="evenodd" clip-rule="evenodd" d="M471 659.775H504.342C516.167 659.993 509.981 635.809 522.9 638.161C533.929 640.169 533.431 646.637 532.286 659.68C534.519 656.887 538.763 655.968 540.216 656.917C542.293 658.274 539.968 658.675 536.461 664.296C532.406 670.794 520.879 676.871 507.14 678.026C503.005 678.373 479.248 682 479.248 682L471 659.775Z" fill="#b75858" blush:color="Skin-500" blush:i="0.2.0.1.0.6"/><path id="Fill 25" fill-rule="evenodd" clip-rule="evenodd" d="M276.485 647.783C276.485 647.783 285.752 641.18 293.7 642.114C304.303 643.357 305.148 638.575 307.86 642.743C308.456 643.658 306.585 646.596 301.674 647.688C295.046 649.16 297.823 653.25 297.823 653.25C297.823 653.25 320.846 658.74 324.083 659.319C325.871 659.638 326.353 664.727 312.835 668.738C305.784 670.831 295.707 670.886 283.83 671.285C280.526 671.398 242.53 683 242.53 683L240.188 664.067L239 644.394L276.485 647.783Z" fill="#b75858" blush:color="Skin-500" blush:i="0.2.0.1.0.7"/><path id="Fill 27" fill-rule="evenodd" clip-rule="evenodd" d="M395 680.025C395 680.025 490.409 683.881 496.352 682.813C502.295 681.745 490.252 660 490.252 660H404.046L395 680.025Z" fill="#3615F6" blush:i="0.2.0.1.0.8"/><g id="blush" blush:i="0.2.0.1.0.9"><path id="Fill 29" fill-rule="evenodd" clip-rule="evenodd" d="M506.171 586.015H506.156C501.892 586.015 500.019 584.223 499.282 583.154C498.734 582.358 498.934 581.268 499.73 580.72C500.525 580.171 501.616 580.373 502.163 581.167C502.754 582.024 504.21 582.515 506.157 582.515H506.17C509.16 582.515 511.246 581.389 512.225 580.718C513.023 580.169 514.111 580.374 514.657 581.17C515.204 581.967 515.002 583.056 514.205 583.603C511.941 585.159 509.087 586.015 506.171 586.015" fill="#090E2B" blush:i="0.2.0.1.0.9.0"/><path id="Fill 31" fill-rule="evenodd" clip-rule="evenodd" d="M494.117 588.799C491.743 594.995 484.822 600.018 478.66 600.018C472.498 600.018 469.428 594.995 471.803 588.799C474.177 582.604 481.097 577.581 487.26 577.581C493.422 577.581 496.492 582.604 494.117 588.799" fill="#FF00A4" blush:i="0.2.0.1.0.9.1"/><path id="Fill 33" fill-rule="evenodd" clip-rule="evenodd" d="M537.985 588.799C535.61 594.995 528.689 600.018 522.527 600.018C516.365 600.018 513.295 594.995 515.67 588.799C518.045 582.604 524.964 577.581 531.127 577.581C537.29 577.581 540.36 582.604 537.985 588.799" fill="#FF00A4" blush:i="0.2.0.1.0.9.2"/><path id="Fill 35" fill-rule="evenodd" clip-rule="evenodd" d="M497.923 573.951C497.298 575.582 495.477 576.903 493.856 576.903C492.234 576.903 491.426 575.582 492.051 573.951C492.676 572.321 494.497 571 496.118 571C497.739 571 498.548 572.321 497.923 573.951" fill="#090E2B" blush:i="0.2.0.1.0.9.3"/><path id="Fill 37" fill-rule="evenodd" clip-rule="evenodd" d="M528.872 573.951C528.247 575.582 526.426 576.903 524.805 576.903C523.183 576.903 522.375 575.582 523 573.951C523.625 572.321 525.445 571 527.067 571C528.688 571 529.496 572.321 528.872 573.951" fill="#090E2B" blush:i="0.2.0.1.0.9.4"/></g><path id="Fill 39" fill-rule="evenodd" clip-rule="evenodd" d="M187.02 561.172C178.53 583.552 131.375 633.529 131.375 633.529C131.375 633.529 241.684 644.975 257.979 644.973C258.357 650.702 253.559 694.183 253.559 694.183C205.553 700.984 53.1528 720.653 41.0842 680.373C15.9392 596.452 114.605 481.936 127.273 466.451C145.018 444.759 198.374 531.239 187.02 561.172" fill="#3615F6" blush:i="0.2.0.1.0.10"/><path id="Fill 42" fill-rule="evenodd" clip-rule="evenodd" d="M257.714 644.434C215.359 642.423 176.769 635.397 134.316 631.665C149.27 615.655 163.802 599.173 176.277 581.151C180.554 574.793 184.438 568.478 186.983 561.201C187.061 560.969 187.671 559.084 187.438 559C177.527 579.201 161.244 598.575 145.832 615.386C140.656 620.974 135.381 626.497 130.006 631.865C129.117 632.701 127.894 634.197 130.974 634.403C163.524 636.573 196.118 640.633 228.598 643.662C239.483 644.455 245.187 644.96 256.136 645C257.896 645.007 258.379 644.419 257.714 644.434" fill="#090E2B" blush:i="0.2.0.1.0.11"/><path id="Fill 44" fill-rule="evenodd" clip-rule="evenodd" d="M254.944 679C254.426 679 250.565 694.199 249.377 694.362C209.234 699.899 166.001 705.665 125.324 704.408C124.561 704.331 125.277 705.06 126.114 705.142C155.99 708.395 220.894 701.486 230.656 699.596C248.855 696.071 250.414 696.345 251.194 695.113C251.194 695.113 255.462 679 254.944 679Z" fill="#090E2B" blush:i="0.2.0.1.0.12"/></g></g><g id="Head" blush:component="Head" blush:defaultValue="Long Hair Dark" blush:width="300" blush:height="300" transform="translate(341 346) scale(1 1)" blush:i="0.2.0.2" blush:value="Long Hair Blue" blush:viewBox="-42 61.5 288 291"><g id="Head/Long Hair Blue" blush:viewBox="-42 61.5 288 291" blush:i="0.2.0.2.0"><path id="hair" fill-rule="evenodd" clip-rule="evenodd" d="M202.96 90.8915C181.85 92.4506 184.201 119.345 184.201 119.345L160.791 237.654L164.171 239.649C164.171 239.649 157.941 272.507 161.916 282.441C164.689 289.374 176.166 298.622 184.156 300.456C187.906 301.317 191.248 298.585 193.299 294.599C205.503 270.882 175.322 223.023 216.652 191.504C225.03 173.545 231.832 159.591 233.996 156.767C241.022 147.596 269.219 85.9966 202.96 90.8915" fill="#001386" blush:i="0.2.0.2.0.0"/><path id="face" fill-rule="evenodd" clip-rule="evenodd" d="M231.595 169.854C231.717 186.9 240.727 192.188 233.169 222.16C227.297 245.445 204.337 266.222 197.588 266.222C160.591 266.222 132.306 237.766 116.041 222.16C99.7771 206.554 83.9321 173.964 94.9881 136.896C106.042 99.8283 189.094 48.6463 217.223 106.107C225.869 123.768 231.336 133.563 231.595 169.854Z" fill="#b75858" blush:color="Skin-500" blush:i="0.2.0.2.0.1"/><path id="hair_2" fill-rule="evenodd" clip-rule="evenodd" d="M129.399 177.968C128.065 171.431 126.139 165.19 126.54 162.536C137.808 137.905 202.807 164.98 229.927 112.089C239.646 93.1341 220.844 67.8305 196.057 63.7044C148 55.7046 94.0475 75.7789 71.6945 132.653C57.5485 168.645 86.5035 215.853 60.7515 217.008C-17.4695 220.517 -34.6575 251.486 -39.8695 280.62C-46.4775 317.555 -23.3965 354.421 10.5785 340.636C59.7395 379.877 115.696 300.615 120.223 241.305C123 204.916 95.7905 197.483 100.679 184.511C105.053 175.351 110.514 161.82 115.925 179.974C116.697 182.567 115.729 189.835 118.073 193.201C121.485 198.102 126.864 197.637 128.625 195.291C131.49 191.473 130.747 184.57 129.399 177.968Z" fill="#001386" blush:i="0.2.0.2.0.2"/><path id="ear" fill-rule="evenodd" clip-rule="evenodd" d="M115.313 181.264C114.883 173.3 111.137 163.343 100.53 162.562C94.8072 162.14 82.1602 166.579 87.7552 189.184C91.7972 205.508 108.376 210.145 113.018 209.26C121.327 207.677 115.947 193.049 115.313 181.264" fill="#b75858" blush:color="Skin-500" blush:i="0.2.0.2.0.3"/><path id="Fill 11" fill-rule="evenodd" clip-rule="evenodd" d="M160.046 257.312C155.325 256.324 150.368 253.273 146.542 250.168C143.423 247.637 138.642 242.711 136.488 240.103C135.462 238.861 137.141 239.973 138.77 241.136C140.929 242.677 148.163 248.846 155.415 252.959C156.316 253.47 161.281 256.317 161.24 256.832C161.212 257.176 160.748 257.459 160.046 257.312" fill="#090E2B" blush:i="0.2.0.2.0.4"/><path id="Fill 13" fill-rule="evenodd" clip-rule="evenodd" d="M97.6772 177.008C95.0942 177.191 95.6262 181.256 98.1642 180.777C101.588 180.131 104.414 181.805 106.42 184.354C103.983 184.647 101.342 187.222 99.6492 188.594C98.4302 189.716 100.297 191.549 101.398 190.318C102.41 189.22 103.595 188.114 104.817 187.249C105.636 186.705 106.519 186.111 107.422 186.166C107.525 186.194 107.62 186.248 107.715 186.311C108.651 188.003 109.286 189.878 109.569 191.654C114.825 195.795 108.33 174.422 97.6772 177.008" fill="#090E2B" blush:i="0.2.0.2.0.5"/></g></g><g id="Expressions" blush:component="Expressions" blush:defaultValue="Calm 1" blush:width="120" blush:height="120" transform="translate(462 479) scale(1 1)" blush:i="0.2.0.3" blush:value="Smile" blush:viewBox="21 10.200000000000003 89.4 88.80000000000001"><g id="Expressions/Smile" blush:viewBox="21 10.200000000000003 89.4 88.80000000000001" blush:i="0.2.0.3.0"><g id="eye1" blush:i="0.2.0.3.0.0"><path id="Fill 1" fill-rule="evenodd" clip-rule="evenodd" d="M21.0758 18.1794C22.852 10.1965 46.2248 7.39836 56.5098 13.5794C60.0658 15.6924 66.6698 21.4974 60.8228 24.6574C59.2788 25.3294 57.7788 24.6404 56.5098 23.8214C42.4918 14.0794 19.8377 23.7442 21.0758 18.1794Z" fill="#090E2B" blush:i="0.2.0.3.0.0.0"/><path id="Fill 6" fill-rule="evenodd" clip-rule="evenodd" d="M40.0382 32.611C34.7502 34.111 30.2172 38.361 29.7962 41.883C29.5412 44.011 37.8912 49.12 45.9442 49.517C56.5382 50.038 61.8782 44.299 61.8592 42.465C61.1462 36.915 54.7552 28.437 40.0382 32.611Z" fill="white" blush:i="0.2.0.3.0.0.1"/><path id="Fill 8" fill-rule="evenodd" clip-rule="evenodd" d="M56.4251 35.7687C48.2821 29.6147 35.6701 33.6247 29.7961 41.8827C29.4591 42.3107 29.5561 41.2337 29.7901 40.7427C32.6241 34.7957 37.7371 31.9887 43.6651 30.7647C47.2321 30.0277 50.5581 29.9677 54.0371 31.5257C55.3821 32.1267 57.7581 33.9587 59.5941 36.0307C61.0261 37.6457 62.2321 40.4147 60.5751 39.4357C59.2781 38.6687 57.5051 36.5857 56.4251 35.7687Z" fill="#090E2B" blush:i="0.2.0.3.0.0.2"/><path id="Fill 10" fill-rule="evenodd" clip-rule="evenodd" d="M45.8406 46.276C50.3676 46.276 54.0376 42.928 54.0376 38.797C54.0376 34.667 50.3676 31.318 45.8406 31.318C41.3136 31.318 37.6436 34.667 37.6436 38.797C37.6436 42.928 41.3136 46.276 45.8406 46.276Z" fill="#090E2B" blush:i="0.2.0.3.0.0.3"/></g><g id="eye2" blush:i="0.2.0.3.0.1"><path id="Fill 4" fill-rule="evenodd" clip-rule="evenodd" d="M104.459 16.8614C107.813 18.3492 112.278 23.2873 108.561 23.2873C104.844 23.2873 96.7936 22.2329 91.3966 24.4599C89.5116 24.9419 88.0811 25.8643 86.1881 26.0893C81.8801 26.9283 79.5395 21.7686 82.5855 18.6492C86.0265 15.1253 97.6434 13.4544 104.459 16.8614Z" fill="#090E2B" blush:i="0.2.0.3.0.1.0"/><path id="Fill 12" fill-rule="evenodd" clip-rule="evenodd" d="M100.659 49.2345C106.03 47.9855 110.047 43.1155 109.593 39.4765C108.707 34.6545 99.422 31.5755 94.221 34.2085C89.07 36.8155 85.847 42.6405 86.263 44.9405C86.864 46.5325 95.17 50.5115 100.659 49.2345Z" fill="white" blush:i="0.2.0.3.0.1.1"/><path id="Fill 14" fill-rule="evenodd" clip-rule="evenodd" d="M96.2146 46.6062C99.7526 46.6062 102.621 43.8522 102.621 40.4562C102.621 37.0592 100.6 33.8492 96.2146 34.3062C92.6956 34.6722 89.8076 37.0592 89.8076 40.4562C89.8076 43.8522 92.6766 46.6062 96.2146 46.6062Z" fill="#090E2B" blush:i="0.2.0.3.0.1.2"/><path id="Fill 22" fill-rule="evenodd" clip-rule="evenodd" d="M86.4543 41.6378C88.4833 34.0638 97.6443 30.1688 104.889 33.7548C105.909 34.2868 107.565 35.4808 108.805 36.9228C109.946 38.2528 109.797 38.9498 109.331 38.8118C108.559 38.5818 106.926 37.1168 105.599 36.4868C98.8893 33.3038 91.9083 35.0898 86.7973 42.5588C86.5463 42.9458 86.3083 42.0748 86.4543 41.6378" fill="#090E2B" blush:i="0.2.0.3.0.1.3"/></g><path id="nose" fill-rule="evenodd" clip-rule="evenodd" d="M86.9878 70.3387C86.013 75.2575 79.9688 75.736 76.0322 74.6213C72.8324 73.7153 72.0033 71.8513 73.0852 71.2538C74.8484 70.2799 80.4996 72.989 82.5857 70.4028C86.3055 65.7913 74.8913 48.8346 78.5176 51.5592C83.3101 55.16 87.6385 67.0559 86.9878 70.3387Z" fill="#090E2B" blush:i="0.2.0.3.0.2"/><path id="Fill 18" fill-rule="evenodd" clip-rule="evenodd" d="M89.6386 90.5818C88.8706 91.1602 87.0676 93.5464 85.2445 95.0617C81.1443 98.4697 74.4744 99.2531 70.5442 98.4697C63.1557 96.9971 59.9594 92.1782 58.0065 90.8586C56.0537 89.539 59.7198 87.8443 62.5247 88.0931C65.3297 88.342 67.2122 89.1562 72.5652 91.4593C76.0197 92.9455 83.8309 90.8586 86.038 89.539C90.2482 87.0217 91.5111 89.1717 89.6386 90.5818Z" fill="#090E2B" blush:i="0.2.0.3.0.3"/></g></g><g id="Facial Accesories" blush:component="Facial Accesories" blush:defaultValue="None" blush:width="120" blush:height="110" transform="translate(459 529) scale(120 110)" blush:i="0.2.0.4" blush:value="None" blush:viewBox="1.75 1.75 0 0"><g id="Facial Accesories/None" stroke="none" stroke-width="1" fill="none" fill-rule="evenodd" fill-opacity="0" blush:viewBox="1.75 1.75 0 0" blush:i="0.2.0.4.0"/></g><g id="Glass" blush:component="Glass" blush:defaultValue="None" blush:width="120" blush:height="75" transform="translate(462 484) scale(120 75)" blush:i="0.2.0.5" blush:value="None" blush:viewBox="1.75 1.75 0 0"><g id="Glass/None" stroke="none" stroke-width="1" fill="none" fill-rule="evenodd" fill-opacity="0" blush:viewBox="1.75 1.75 0 0" blush:i="0.2.0.5.0"/></g></g></g></g></svg>